NotoAmalgamated-DisplayCondensedItalic.ufo
<glyph name="exclam" format="2">
  <advance width="232"/>
  <unicode hex="0021"/>
  <outline>
    <contour>
      <point x="62" y="199" type="line"/>
      <point x="126" y="199" type="line"/>
      <point x="250" y="714" type="line"/>
      <point x="159" y="714" type="line"/>
    </contour>
    <contour>
      <point x="52" y="-8" type="curve" smooth="yes"/>
      <point x="87" y="-8"/>
      <point x="115" y="26"/>
      <point x="115" y="71" type="curve" smooth="yes"/>
      <point x="115" y="98"/>
      <point x="100" y="115"/>
      <point x="76" y="115" type="curve" smooth="yes"/>
      <point x="33" y="115"/>
      <point x="10" y="77"/>
      <point x="10" y="35" type="curve" smooth="yes"/>
      <point x="10" y="7"/>
      <point x="27" y="-8"/>
    </contour>
  </outline>
</glyph>
<glyph name="numbersign" format="2">
  <advance width="416"/>
  <unicode hex="0023"/>
  <outline>
    <contour>
      <point x="4" y="0" type="line"/>
      <point x="65" y="0" type="line"/>
      <point x="131" y="218" type="line"/>
      <point x="219" y="218" type="line"/>
      <point x="151" y="0" type="line"/>
      <point x="212" y="0" type="line"/>
      <point x="279" y="218" type="line"/>
      <point x="364" y="218" type="line"/>
      <point x="375" y="280" type="line"/>
      <point x="298" y="280" type="line"/>
      <point x="352" y="451" type="line"/>
      <point x="431" y="451" type="line"/>
      <point x="443" y="513" type="line"/>
      <point x="372" y="513" type="line"/>
      <point x="433" y="714" type="line"/>
      <point x="373" y="714" type="line"/>
      <point x="311" y="513" type="line"/>
      <point x="224" y="513" type="line"/>
      <point x="287" y="714" type="line"/>
      <point x="226" y="714" type="line"/>
      <point x="164" y="513" type="line"/>
      <point x="80" y="513" type="line"/>
      <point x="69" y="451" type="line"/>
      <point x="144" y="451" type="line"/>
      <point x="91" y="280" type="line"/>
      <point x="12" y="280" type="line"/>
      <point x="1" y="218" type="line"/>
      <point x="72" y="218" type="line"/>
    </contour>
    <contour>
      <point x="152" y="280" type="line"/>
      <point x="205" y="451" type="line"/>
      <point x="292" y="451" type="line"/>
      <point x="238" y="280" type="line"/>
    </contour>
  </outline>
</glyph>
<glyph name="dollar" format="2">
  <advance width="385"/>
  <unicode hex="0024"/>
  <outline>
    <contour>
      <point x="120" y="48" type="curve"/>
      <point x="97" y="-58" type="line"/>
      <point x="137" y="-58" type="line"/>
      <point x="159" y="48" type="line"/>
      <point x="261" y="58"/>
      <point x="331" y="121"/>
      <point x="331" y="232" type="curve" smooth="yes"/>
      <point x="331" y="311"/>
      <point x="288" y="353"/>
      <point x="234" y="396" type="curve"/>
      <point x="278" y="610" type="line"/>
      <point x="314" y="607"/>
      <point x="343" y="594"/>
      <point x="370" y="576" type="curve"/>
      <point x="406" y="641" type="line"/>
      <point x="377" y="659"/>
      <point x="344" y="674"/>
      <point x="293" y="677" type="curve"/>
      <point x="310" y="760" type="line"/>
      <point x="271" y="760" type="line"/>
      <point x="253" y="677" type="line"/>
      <point x="156" y="669"/>
      <point x="86" y="610"/>
      <point x="86" y="496" type="curve" smooth="yes"/>
      <point x="86" y="421"/>
      <point x="134" y="380"/>
      <point x="182" y="342" type="curve"/>
      <point x="135" y="116" type="line"/>
      <point x="82" y="119"/>
      <point x="38" y="139"/>
      <point x="12" y="160" type="curve"/>
      <point x="1" y="81" type="line"/>
      <point x="27" y="64"/>
      <point x="68" y="50"/>
    </contour>
    <contour>
      <point x="175" y="119" type="curve"/>
      <point x="215" y="315" type="line"/>
      <point x="250" y="281"/>
      <point x="260" y="257"/>
      <point x="260" y="221" type="curve" smooth="yes"/>
      <point x="260" y="168"/>
      <point x="235" y="127"/>
    </contour>
    <contour>
      <point x="239" y="609" type="curve"/>
      <point x="200" y="424" type="line"/>
      <point x="168" y="455"/>
      <point x="156" y="477"/>
      <point x="156" y="508" type="curve" smooth="yes"/>
      <point x="156" y="562"/>
      <point x="183" y="601"/>
    </contour>
  </outline>
</glyph>
<glyph name="ampersand" format="2">
  <advance width="423"/>
  <unicode hex="0026"/>
  <outline>
    <contour>
      <point x="115" y="-10" type="curve" smooth="yes"/>
      <point x="177" y="-10"/>
      <point x="216" y="25"/>
      <point x="255" y="67" type="curve"/>
      <point x="274" y="0" type="line"/>
      <point x="363" y="0" type="line"/>
      <point x="317" y="128" type="line"/>
      <point x="358" y="189"/>
      <point x="394" y="268"/>
      <point x="412" y="338" type="curve"/>
      <point x="336" y="338" type="line"/>
      <point x="322" y="287"/>
      <point x="305" y="240"/>
      <point x="286" y="204" type="curve"/>
      <point x="235" y="377" type="line"/>
      <point x="312" y="444"/>
      <point x="362" y="528"/>
      <point x="362" y="623" type="curve" smooth="yes"/>
      <point x="362" y="690"/>
      <point x="320" y="724"/>
      <point x="267" y="724" type="curve" smooth="yes"/>
      <point x="174" y="724"/>
      <point x="123" y="632"/>
      <point x="123" y="521" type="curve" smooth="yes"/>
      <point x="123" y="475"/>
      <point x="132" y="432"/>
      <point x="145" y="390" type="curve"/>
      <point x="52" y="321"/>
      <point x="-5" y="235"/>
      <point x="-5" y="124" type="curve" smooth="yes"/>
      <point x="-5" y="41"/>
      <point x="40" y="-10"/>
    </contour>
    <contour>
      <point x="130" y="60" type="curve" smooth="yes"/>
      <point x="94" y="60"/>
      <point x="74" y="88"/>
      <point x="74" y="138" type="curve" smooth="yes"/>
      <point x="74" y="216"/>
      <point x="106" y="280"/>
      <point x="167" y="333" type="curve"/>
      <point x="229" y="132" type="line"/>
      <point x="202" y="96"/>
      <point x="174" y="60"/>
    </contour>
    <contour>
      <point x="211" y="433" type="curve"/>
      <point x="202" y="463"/>
      <point x="197" y="495"/>
      <point x="197" y="532" type="curve" smooth="yes"/>
      <point x="197" y="593"/>
      <point x="213" y="662"/>
      <point x="256" y="662" type="curve" smooth="yes"/>
      <point x="278" y="662"/>
      <point x="288" y="641"/>
      <point x="288" y="611" type="curve" smooth="yes"/>
      <point x="288" y="543"/>
      <point x="257" y="478"/>
    </contour>
  </outline>
</glyph>
<glyph name="parenleft" format="2">
  <advance width="253"/>
  <unicode hex="0028"/>
  <outline>
    <contour>
      <point x="67" y="-158" type="curve"/>
      <point x="132" y="-158" type="line"/>
      <point x="105" y="-86"/>
      <point x="93" y="11"/>
      <point x="93" y="99" type="curve" smooth="yes"/>
      <point x="93" y="319"/>
      <point x="179" y="541"/>
      <point x="319" y="719" type="curve"/>
      <point x="252" y="719" type="line"/>
      <point x="105" y="555"/>
      <point x="18" y="323"/>
      <point x="18" y="101" type="curve" smooth="yes"/>
      <point x="18" y="14"/>
      <point x="35" y="-93"/>
    </contour>
  </outline>
</glyph>
<glyph name="parenright" format="2">
  <advance width="253"/>
  <unicode hex="0029"/>
  <outline>
    <contour>
      <point x="-72" y="-158" type="curve"/>
      <point x="-5" y="-158" type="line"/>
      <point x="140" y="4"/>
      <point x="228" y="234"/>
      <point x="228" y="461" type="curve" smooth="yes"/>
      <point x="228" y="551"/>
      <point x="212" y="648"/>
      <point x="179" y="719" type="curve"/>
      <point x="114" y="719" type="line"/>
      <point x="141" y="652"/>
      <point x="153" y="547"/>
      <point x="153" y="462" type="curve" smooth="yes"/>
      <point x="153" y="242"/>
      <point x="67" y="20"/>
    </contour>
  </outline>
</glyph>
<glyph name="asterisk" format="2">
  <advance width="355"/>
  <unicode hex="002A"/>
  <outline>
    <contour>
      <point x="283" y="430" type="line"/>
      <point x="349" y="464" type="line"/>
      <point x="283" y="579" type="line"/>
      <point x="397" y="580" type="line"/>
      <point x="391" y="653" type="line"/>
      <point x="278" y="629" type="line"/>
      <point x="307" y="754" type="line"/>
      <point x="231" y="764" type="line"/>
      <point x="226" y="635" type="line"/>
      <point x="122" y="689" type="line"/>
      <point x="98" y="620" type="line"/>
      <point x="206" y="588" type="line"/>
      <point x="112" y="495" type="line"/>
      <point x="166" y="446" type="line"/>
      <point x="242" y="551" type="line"/>
    </contour>
  </outline>
</glyph>
<glyph name="plus" format="2">
  <advance width="419"/>
  <unicode hex="002B"/>
  <outline>
    <contour>
      <point x="264" y="387" type="line"/>
      <point x="264" y="588" type="line"/>
      <point x="194" y="588" type="line"/>
      <point x="194" y="387" type="line"/>
      <point x="49" y="387" type="line"/>
      <point x="49" y="319" type="line"/>
      <point x="194" y="319" type="line"/>
      <point x="194" y="119" type="line"/>
      <point x="264" y="119" type="line"/>
      <point x="264" y="319" type="line"/>
      <point x="408" y="319" type="line"/>
      <point x="408" y="387" type="line"/>
    </contour>
  </outline>
</glyph>
<glyph name="period" format="2">
  <advance width="200"/>
  <unicode hex="002E"/>
  <outline>
    <contour>
      <point x="53" y="-8" type="curve" smooth="yes"/>
      <point x="87" y="-8"/>
      <point x="116" y="26"/>
      <point x="116" y="71" type="curve" smooth="yes"/>
      <point x="116" y="98"/>
      <point x="101" y="115"/>
      <point x="76" y="115" type="curve" smooth="yes"/>
      <point x="34" y="115"/>
      <point x="11" y="77"/>
      <point x="11" y="35" type="curve" smooth="yes"/>
      <point x="11" y="7"/>
      <point x="28" y="-8"/>
    </contour>
  </outline>
</glyph>
<glyph name="slash" format="2">
  <advance width="329"/>
  <unicode hex="002F"/>
  <outline>
    <contour>
      <point x="-48" y="-3" type="line"/>
      <point x="24" y="-3" type="line"/>
      <point x="406" y="717" type="line"/>
      <point x="333" y="717" type="line"/>
    </contour>
  </outline>
</glyph>
<glyph name="zero" format="2">
  <advance width="385"/>
  <unicode hex="0030"/>
  <outline>
    <contour>
      <point x="135" y="-10" type="curve" smooth="yes"/>
      <point x="313" y="-10"/>
      <point x="386" y="394"/>
      <point x="386" y="559" type="curve" smooth="yes"/>
      <point x="386" y="672"/>
      <point x="348" y="724"/>
      <point x="274" y="724" type="curve" smooth="yes"/>
      <point x="95" y="724"/>
      <point x="22" y="315"/>
      <point x="22" y="158" type="curve" smooth="yes"/>
      <point x="22" y="42"/>
      <point x="59" y="-10"/>
    </contour>
    <contour>
      <point x="142" y="63" type="curve" smooth="yes"/>
      <point x="111" y="63"/>
      <point x="98" y="91"/>
      <point x="98" y="156" type="curve" smooth="yes"/>
      <point x="98" y="277"/>
      <point x="168" y="651"/>
      <point x="267" y="651" type="curve" smooth="yes"/>
      <point x="297" y="651"/>
      <point x="310" y="621"/>
      <point x="310" y="562" type="curve" smooth="yes"/>
      <point x="310" y="435"/>
      <point x="244" y="63"/>
    </contour>
  </outline>
</glyph>
<glyph name="one" format="2">
  <advance width="385"/>
  <unicode hex="0031"/>
  <outline>
    <contour>
      <point x="228" y="501" type="curve" smooth="yes"/>
      <point x="123" y="0" type="line"/>
      <point x="201" y="0" type="line"/>
      <point x="352" y="714" type="line"/>
      <point x="279" y="714" type="line"/>
      <point x="104" y="557" type="line"/>
      <point x="141" y="506" type="line"/>
      <point x="221" y="577" type="line" smooth="yes"/>
      <point x="234" y="588"/>
      <point x="244" y="599"/>
      <point x="254" y="610" type="curve"/>
      <point x="238" y="549"/>
      <point x="236" y="540"/>
    </contour>
  </outline>
</glyph>
<glyph name="two" format="2">
  <advance width="385"/>
  <unicode hex="0032"/>
  <outline>
    <contour>
      <point x="-32" y="0" type="line"/>
      <point x="276" y="0" type="line"/>
      <point x="291" y="71" type="line"/>
      <point x="75" y="71" type="line"/>
      <point x="75" y="74" type="line"/>
      <point x="218" y="246" type="line" smooth="yes"/>
      <point x="314" y="361"/>
      <point x="388" y="470"/>
      <point x="388" y="585" type="curve" smooth="yes"/>
      <point x="388" y="671"/>
      <point x="336" y="724"/>
      <point x="257" y="724" type="curve" smooth="yes"/>
      <point x="197" y="724"/>
      <point x="149" y="699"/>
      <point x="107" y="658" type="curve"/>
      <point x="136" y="600" type="line"/>
      <point x="171" y="628"/>
      <point x="202" y="653"/>
      <point x="241" y="653" type="curve" smooth="yes"/>
      <point x="284" y="653"/>
      <point x="306" y="624"/>
      <point x="306" y="572" type="curve" smooth="yes"/>
      <point x="306" y="464"/>
      <point x="231" y="368"/>
      <point x="149" y="267" type="curve" smooth="yes"/>
      <point x="-21" y="59" type="line"/>
    </contour>
  </outline>
</glyph>
<glyph name="three" format="2">
  <advance width="385"/>
  <unicode hex="0033"/>
  <outline>
    <contour>
      <point x="105" y="-10" type="curve" smooth="yes"/>
      <point x="246" y="-10"/>
      <point x="325" y="105"/>
      <point x="325" y="231" type="curve" smooth="yes"/>
      <point x="325" y="307"/>
      <point x="290" y="353"/>
      <point x="240" y="370" type="curve"/>
      <point x="241" y="373" type="line"/>
      <point x="333" y="398"/>
      <point x="392" y="486"/>
      <point x="392" y="589" type="curve" smooth="yes"/>
      <point x="392" y="673"/>
      <point x="339" y="724"/>
      <point x="255" y="724" type="curve" smooth="yes"/>
      <point x="196" y="724"/>
      <point x="151" y="704"/>
      <point x="107" y="670" type="curve"/>
      <point x="131" y="609" type="line"/>
      <point x="167" y="637"/>
      <point x="203" y="654"/>
      <point x="241" y="654" type="curve" smooth="yes"/>
      <point x="287" y="654"/>
      <point x="310" y="623"/>
      <point x="310" y="572" type="curve" smooth="yes"/>
      <point x="310" y="479"/>
      <point x="251" y="403"/>
      <point x="156" y="403" type="curve" smooth="yes"/>
      <point x="125" y="403" type="line"/>
      <point x="110" y="334" type="line"/>
      <point x="142" y="334" type="line" smooth="yes"/>
      <point x="208" y="334"/>
      <point x="243" y="298"/>
      <point x="243" y="224" type="curve" smooth="yes"/>
      <point x="243" y="133"/>
      <point x="192" y="60"/>
      <point x="102" y="60" type="curve" smooth="yes"/>
      <point x="62" y="60"/>
      <point x="18" y="72"/>
      <point x="-16" y="98" type="curve"/>
      <point x="-16" y="18" type="line"/>
      <point x="18" y="-1"/>
      <point x="53" y="-10"/>
    </contour>
  </outline>
</glyph>
<glyph name="four" format="2">
  <advance width="385"/>
  <unicode hex="0034"/>
  <outline>
    <contour>
      <point x="164" y="0" type="line"/>
      <point x="242" y="0" type="line"/>
      <point x="274" y="156" type="line"/>
      <point x="340" y="156" type="line"/>
      <point x="355" y="225" type="line"/>
      <point x="290" y="225" type="line"/>
      <point x="394" y="720" type="line"/>
      <point x="309" y="720" type="line"/>
      <point x="-4" y="219" type="line"/>
      <point x="-17" y="156" type="line"/>
      <point x="197" y="156" type="line"/>
    </contour>
    <contour>
      <point x="66" y="225" type="line"/>
      <point x="244" y="520" type="line" smooth="yes"/>
      <point x="259" y="546"/>
      <point x="272" y="570"/>
      <point x="296" y="616" type="curve"/>
      <point x="299" y="616" type="line"/>
      <point x="292" y="586"/>
      <point x="282" y="552"/>
      <point x="276" y="522" type="curve" smooth="yes"/>
      <point x="212" y="225" type="line"/>
    </contour>
  </outline>
</glyph>
<glyph name="five" format="2">
  <advance width="385"/>
  <unicode hex="0035"/>
  <outline>
    <contour>
      <point x="103" y="-10" type="curve" smooth="yes"/>
      <point x="263" y="-10"/>
      <point x="338" y="126"/>
      <point x="338" y="266" type="curve" smooth="yes"/>
      <point x="338" y="376"/>
      <point x="288" y="439"/>
      <point x="204" y="439" type="curve" smooth="yes"/>
      <point x="185" y="439"/>
      <point x="167" y="436"/>
      <point x="149" y="431" type="curve"/>
      <point x="207" y="641" type="line"/>
      <point x="382" y="641" type="line"/>
      <point x="398" y="714" type="line"/>
      <point x="153" y="714" type="line"/>
      <point x="64" y="385" type="line"/>
      <point x="89" y="354" type="line"/>
      <point x="115" y="364"/>
      <point x="139" y="370"/>
      <point x="164" y="370" type="curve" smooth="yes"/>
      <point x="225" y="370"/>
      <point x="255" y="327"/>
      <point x="255" y="251" type="curve" smooth="yes"/>
      <point x="255" y="151"/>
      <point x="202" y="60"/>
      <point x="104" y="60" type="curve" smooth="yes"/>
      <point x="57" y="60"/>
      <point x="18" y="75"/>
      <point x="-10" y="99" type="curve"/>
      <point x="-10" y="15" type="line"/>
      <point x="14" y="2"/>
      <point x="54" y="-10"/>
    </contour>
  </outline>
</glyph>
<glyph name="six" format="2">
  <advance width="385"/>
  <unicode hex="0036"/>
  <outline>
    <contour>
      <point x="152" y="-10" type="curve" smooth="yes"/>
      <point x="294" y="-10"/>
      <point x="353" y="173"/>
      <point x="353" y="303" type="curve" smooth="yes"/>
      <point x="353" y="389"/>
      <point x="320" y="451"/>
      <point x="250" y="451" type="curve" smooth="yes"/>
      <point x="200" y="451"/>
      <point x="158" y="422"/>
      <point x="130" y="376" type="curve"/>
      <point x="127" y="376" type="line"/>
      <point x="181" y="558"/>
      <point x="245" y="654"/>
      <point x="332" y="654" type="curve" smooth="yes"/>
      <point x="354" y="654"/>
      <point x="376" y="650"/>
      <point x="394" y="643" type="curve"/>
      <point x="412" y="714" type="line"/>
      <point x="391" y="720"/>
      <point x="367" y="724"/>
      <point x="332" y="724" type="curve" smooth="yes"/>
      <point x="247" y="724"/>
      <point x="184" y="661"/>
      <point x="142" y="598" type="curve" smooth="yes"/>
      <point x="70" y="490"/>
      <point x="25" y="317"/>
      <point x="25" y="168" type="curve" smooth="yes"/>
      <point x="25" y="62"/>
      <point x="63" y="-10"/>
    </contour>
    <contour>
      <point x="158" y="61" type="curve" smooth="yes"/>
      <point x="123" y="61"/>
      <point x="102" y="98"/>
      <point x="102" y="165" type="curve" smooth="yes"/>
      <point x="102" y="216"/>
      <point x="109" y="265"/>
      <point x="123" y="297" type="curve" smooth="yes"/>
      <point x="143" y="343"/>
      <point x="174" y="381"/>
      <point x="220" y="381" type="curve" smooth="yes"/>
      <point x="253" y="381"/>
      <point x="273" y="349"/>
      <point x="273" y="295" type="curve" smooth="yes"/>
      <point x="273" y="214"/>
      <point x="241" y="61"/>
    </contour>
  </outline>
</glyph>
<glyph name="seven" format="2">
  <advance width="385"/>
  <unicode hex="0037"/>
  <outline>
    <contour>
      <point x="30" y="0" type="line"/>
      <point x="112" y="0" type="line"/>
      <point x="419" y="655" type="line"/>
      <point x="430" y="714" type="line"/>
      <point x="110" y="714" type="line"/>
      <point x="95" y="641" type="line"/>
      <point x="335" y="641" type="line"/>
    </contour>
  </outline>
</glyph>
<glyph name="eight" format="2">
  <advance width="385"/>
  <unicode hex="0038"/>
  <outline>
    <contour>
      <point x="149" y="-10" type="curve" smooth="yes"/>
      <point x="263" y="-10"/>
      <point x="334" y="87"/>
      <point x="334" y="194" type="curve" smooth="yes"/>
      <point x="334" y="262"/>
      <point x="310" y="317"/>
      <point x="255" y="373" type="curve"/>
      <point x="346" y="423"/>
      <point x="399" y="497"/>
      <point x="399" y="589" type="curve" smooth="yes"/>
      <point x="399" y="671"/>
      <point x="348" y="724"/>
      <point x="268" y="724" type="curve" smooth="yes"/>
      <point x="157" y="724"/>
      <point x="92" y="641"/>
      <point x="92" y="535" type="curve" smooth="yes"/>
      <point x="92" y="476"/>
      <point x="112" y="424"/>
      <point x="152" y="377" type="curve"/>
      <point x="53" y="321"/>
      <point x="-6" y="252"/>
      <point x="-6" y="142" type="curve" smooth="yes"/>
      <point x="-6" y="48"/>
      <point x="51" y="-10"/>
    </contour>
    <contour>
      <point x="150" y="57" type="curve" smooth="yes"/>
      <point x="101" y="57"/>
      <point x="72" y="98"/>
      <point x="72" y="149" type="curve" smooth="yes"/>
      <point x="72" y="240"/>
      <point x="124" y="294"/>
      <point x="194" y="334" type="curve"/>
      <point x="232" y="292"/>
      <point x="257" y="246"/>
      <point x="257" y="190" type="curve" smooth="yes"/>
      <point x="257" y="120"/>
      <point x="222" y="57"/>
    </contour>
    <contour>
      <point x="214" y="415" type="curve"/>
      <point x="185" y="449"/>
      <point x="168" y="488"/>
      <point x="168" y="537" type="curve" smooth="yes"/>
      <point x="168" y="612"/>
      <point x="203" y="657"/>
      <point x="258" y="657" type="curve" smooth="yes"/>
      <point x="297" y="657"/>
      <point x="322" y="628"/>
      <point x="322" y="577" type="curve" smooth="yes"/>
      <point x="322" y="511"/>
      <point x="286" y="454"/>
    </contour>
  </outline>
</glyph>
<glyph name="nine" format="2">
  <advance width="385"/>
  <unicode hex="0039"/>
  <outline>
    <contour>
      <point x="82" y="-10" type="curve" smooth="yes"/>
      <point x="183" y="-10"/>
      <point x="252" y="65"/>
      <point x="299" y="160" type="curve" smooth="yes"/>
      <point x="352" y="268"/>
      <point x="383" y="421"/>
      <point x="383" y="550" type="curve" smooth="yes"/>
      <point x="383" y="664"/>
      <point x="340" y="724"/>
      <point x="259" y="724" type="curve" smooth="yes"/>
      <point x="115" y="724"/>
      <point x="55" y="540"/>
      <point x="55" y="413" type="curve" smooth="yes"/>
      <point x="55" y="328"/>
      <point x="88" y="263"/>
      <point x="159" y="263" type="curve" smooth="yes"/>
      <point x="207" y="263"/>
      <point x="250" y="293"/>
      <point x="279" y="338" type="curve"/>
      <point x="282" y="338" type="line"/>
      <point x="240" y="155"/>
      <point x="173" y="60"/>
      <point x="79" y="60" type="curve" smooth="yes"/>
      <point x="48" y="60"/>
      <point x="19" y="65"/>
      <point x="-1" y="73" type="curve"/>
      <point x="-1" y="1" type="line"/>
      <point x="21" y="-5"/>
      <point x="46" y="-10"/>
    </contour>
    <contour>
      <point x="189" y="334" type="curve" smooth="yes"/>
      <point x="155" y="334"/>
      <point x="135" y="366"/>
      <point x="135" y="424" type="curve" smooth="yes"/>
      <point x="135" y="513"/>
      <point x="175" y="653"/>
      <point x="251" y="653" type="curve" smooth="yes"/>
      <point x="287" y="653"/>
      <point x="306" y="617"/>
      <point x="306" y="551" type="curve" smooth="yes"/>
      <point x="306" y="478"/>
      <point x="296" y="424"/>
      <point x="265" y="380" type="curve" smooth="yes"/>
      <point x="244" y="350"/>
      <point x="221" y="334"/>
    </contour>
  </outline>
</glyph>
<glyph name="semicolon" format="2">
  <advance width="200"/>
  <unicode hex="003B"/>
  <outline>
    <contour>
      <point x="-50" y="-132" type="curve"/>
      <point x="10" y="-132" type="line"/>
      <point x="54" y="-59"/>
      <point x="94" y="23"/>
      <point x="125" y="102" type="curve"/>
      <point x="121" y="112" type="line"/>
      <point x="41" y="112" type="line"/>
      <point x="19" y="35"/>
      <point x="-13" y="-50"/>
    </contour>
    <contour>
      <point x="139" y="417" type="curve" smooth="yes"/>
      <point x="175" y="417"/>
      <point x="202" y="451"/>
      <point x="202" y="496" type="curve" smooth="yes"/>
      <point x="202" y="521"/>
      <point x="188" y="540"/>
      <point x="162" y="540" type="curve" smooth="yes"/>
      <point x="120" y="540"/>
      <point x="97" y="502"/>
      <point x="97" y="460" type="curve" smooth="yes"/>
      <point x="97" y="432"/>
      <point x="114" y="417"/>
    </contour>
  </outline>
</glyph>
<glyph name="equal" format="2">
  <advance width="419"/>
  <unicode hex="003D"/>
  <outline>
    <contour>
      <point x="49" y="425" type="line"/>
      <point x="408" y="425" type="line"/>
      <point x="408" y="493" type="line"/>
      <point x="49" y="493" type="line"/>
    </contour>
    <contour>
      <point x="49" y="211" type="line"/>
      <point x="408" y="211" type="line"/>
      <point x="408" y="279" type="line"/>
      <point x="49" y="279" type="line"/>
    </contour>
  </outline>
</glyph>
<glyph name="greater" format="2">
  <advance width="419"/>
  <unicode hex="003E"/>
  <outline>
    <contour>
      <point x="49" y="210" type="line"/>
      <point x="49" y="132" type="line"/>
      <point x="411" y="332" type="line"/>
      <point x="411" y="380" type="line"/>
      <point x="49" y="578" type="line"/>
      <point x="49" y="500" type="line"/>
      <point x="318" y="355" type="line"/>
    </contour>
  </outline>
</glyph>
<glyph name="question" format="2">
  <advance width="284"/>
  <unicode hex="003F"/>
  <outline>
    <contour>
      <point x="61" y="199" type="curve"/>
      <point x="125" y="199" type="line"/>
      <point x="140" y="284"/>
      <point x="161" y="319"/>
      <point x="220" y="386" type="curve" smooth="yes"/>
      <point x="280" y="455"/>
      <point x="328" y="518"/>
      <point x="328" y="607" type="curve" smooth="yes"/>
      <point x="328" y="680"/>
      <point x="286" y="724"/>
      <point x="211" y="724" type="curve" smooth="yes"/>
      <point x="168" y="724"/>
      <point x="126" y="709"/>
      <point x="85" y="678" type="curve"/>
      <point x="102" y="617" type="line"/>
      <point x="130" y="636"/>
      <point x="159" y="653"/>
      <point x="194" y="653" type="curve" smooth="yes"/>
      <point x="228" y="653"/>
      <point x="250" y="633"/>
      <point x="250" y="590" type="curve" smooth="yes"/>
      <point x="250" y="528"/>
      <point x="223" y="489"/>
      <point x="151" y="402" type="curve" smooth="yes"/>
      <point x="101" y="341"/>
      <point x="81" y="296"/>
    </contour>
    <contour>
      <point x="57" y="-8" type="curve" smooth="yes"/>
      <point x="91" y="-8"/>
      <point x="119" y="26"/>
      <point x="119" y="71" type="curve" smooth="yes"/>
      <point x="119" y="98"/>
      <point x="104" y="115"/>
      <point x="80" y="115" type="curve" smooth="yes"/>
      <point x="37" y="115"/>
      <point x="14" y="77"/>
      <point x="14" y="35" type="curve" smooth="yes"/>
      <point x="14" y="7"/>
      <point x="31" y="-8"/>
    </contour>
  </outline>
</glyph>
<glyph name="at" format="2">
  <advance width="576"/>
  <unicode hex="0040"/>
  <outline>
    <contour>
      <point x="217" y="-84" type="curve" smooth="yes"/>
      <point x="261" y="-84"/>
      <point x="308" y="-72"/>
      <point x="347" y="-52" type="curve"/>
      <point x="348" y="1" type="line"/>
      <point x="310" y="-19"/>
      <point x="263" y="-31"/>
      <point x="219" y="-31" type="curve" smooth="yes"/>
      <point x="120" y="-31"/>
      <point x="83" y="46"/>
      <point x="83" y="153" type="curve" smooth="yes"/>
      <point x="83" y="385"/>
      <point x="194" y="666"/>
      <point x="383" y="666" type="curve" smooth="yes"/>
      <point x="466" y="666"/>
      <point x="510" y="607"/>
      <point x="510" y="487" type="curve" smooth="yes"/>
      <point x="510" y="387"/>
      <point x="463" y="168"/>
      <point x="398" y="168" type="curve" smooth="yes"/>
      <point x="381" y="168"/>
      <point x="373" y="180"/>
      <point x="373" y="207" type="curve" smooth="yes"/>
      <point x="373" y="221"/>
      <point x="377" y="243"/>
      <point x="384" y="272" type="curve" smooth="yes"/>
      <point x="442" y="506" type="line"/>
      <point x="418" y="518"/>
      <point x="389" y="525"/>
      <point x="353" y="525" type="curve" smooth="yes"/>
      <point x="229" y="525"/>
      <point x="166" y="323"/>
      <point x="166" y="213" type="curve" smooth="yes"/>
      <point x="166" y="146"/>
      <point x="190" y="113"/>
      <point x="238" y="113" type="curve" smooth="yes"/>
      <point x="272" y="113"/>
      <point x="304" y="145"/>
      <point x="325" y="193" type="curve"/>
      <point x="326" y="193" type="line"/>
      <point x="330" y="145"/>
      <point x="344" y="115"/>
      <point x="392" y="115" type="curve" smooth="yes"/>
      <point x="498" y="115"/>
      <point x="568" y="344"/>
      <point x="568" y="492" type="curve" smooth="yes"/>
      <point x="568" y="629"/>
      <point x="503" y="720"/>
      <point x="389" y="720" type="curve" smooth="yes"/>
      <point x="164" y="720"/>
      <point x="24" y="419"/>
      <point x="24" y="147" type="curve" smooth="yes"/>
      <point x="24" y="10"/>
      <point x="89" y="-84"/>
    </contour>
    <contour>
      <point x="254" y="168" type="curve" smooth="yes"/>
      <point x="236" y="168"/>
      <point x="227" y="185"/>
      <point x="227" y="221" type="curve" smooth="yes"/>
      <point x="227" y="302"/>
      <point x="270" y="472"/>
      <point x="343" y="472" type="curve" smooth="yes"/>
      <point x="355" y="472"/>
      <point x="364" y="471"/>
      <point x="371" y="468" type="curve"/>
      <point x="334" y="323" type="line" smooth="yes"/>
      <point x="307" y="218"/>
      <point x="282" y="168"/>
    </contour>
  </outline>
</glyph>
<glyph name="A" format="2">
  <advance width="398"/>
  <unicode hex="0041"/>
  <anchor x="144" y="0" name="bottom"/>
  <anchor x="282" y="715" name="top"/>
  <anchor x="475" y="714" name="topright"/>
  <outline>
    <contour>
      <point x="-64" y="0" type="line"/>
      <point x="23" y="0" type="line"/>
      <point x="114" y="227" type="line"/>
      <point x="253" y="227" type="line"/>
      <point x="251" y="0" type="line"/>
      <point x="334" y="0" type="line"/>
      <point x="334" y="717" type="line"/>
      <point x="232" y="717" type="line"/>
    </contour>
    <contour>
      <point x="142" y="300" type="line"/>
      <point x="236" y="551" type="line" smooth="yes"/>
      <point x="249" y="585"/>
      <point x="257" y="613"/>
      <point x="263" y="636" type="curve"/>
      <point x="266" y="636" type="line"/>
      <point x="263" y="612"/>
      <point x="262" y="583"/>
      <point x="262" y="551" type="curve" smooth="yes"/>
      <point x="257" y="300" type="line"/>
    </contour>
  </outline>
</glyph>
<glyph name="B" format="2">
  <advance width="424"/>
  <unicode hex="0042"/>
  <anchor x="161" y="0" name="bottom"/>
  <anchor x="309" y="714" name="top"/>
  <anchor x="500" y="714" name="topright"/>
  <outline>
    <contour>
      <point x="0" y="0" type="line"/>
      <point x="155" y="0" type="line" smooth="yes"/>
      <point x="298" y="0"/>
      <point x="375" y="109"/>
      <point x="375" y="242" type="curve" smooth="yes"/>
      <point x="375" y="303"/>
      <point x="349" y="357"/>
      <point x="299" y="372" type="curve"/>
      <point x="299" y="375" type="line"/>
      <point x="392" y="400"/>
      <point x="433" y="487"/>
      <point x="433" y="576" type="curve" smooth="yes"/>
      <point x="433" y="668"/>
      <point x="367" y="714"/>
      <point x="282" y="714" type="curve" smooth="yes"/>
      <point x="151" y="714" type="line"/>
    </contour>
    <contour>
      <point x="155" y="71" type="curve" smooth="yes"/>
      <point x="95" y="71" type="line"/>
      <point x="152" y="339" type="line"/>
      <point x="210" y="339" type="line" smooth="yes"/>
      <point x="261" y="339"/>
      <point x="292" y="306"/>
      <point x="292" y="244" type="curve" smooth="yes"/>
      <point x="292" y="150"/>
      <point x="250" y="71"/>
    </contour>
    <contour>
      <point x="221" y="407" type="curve" smooth="yes"/>
      <point x="166" y="407" type="line"/>
      <point x="216" y="644" type="line"/>
      <point x="265" y="644" type="line" smooth="yes"/>
      <point x="321" y="644"/>
      <point x="347" y="617"/>
      <point x="347" y="564" type="curve" smooth="yes"/>
      <point x="347" y="480"/>
      <point x="301" y="407"/>
    </contour>
  </outline>
</glyph>
<glyph name="C" format="2">
  <advance width="380"/>
  <unicode hex="0043"/>
  <anchor x="166" y="0" name="bottom"/>
  <anchor x="328" y="714" name="top"/>
  <anchor x="457" y="714" name="topright"/>
  <outline>
    <contour>
      <point x="192" y="-10" type="curve" smooth="yes"/>
      <point x="229" y="-10"/>
      <point x="268" y="-3"/>
      <point x="304" y="13" type="curve"/>
      <point x="305" y="86" type="line"/>
      <point x="271" y="72"/>
      <point x="240" y="62"/>
      <point x="211" y="62" type="curve" smooth="yes"/>
      <point x="147" y="62"/>
      <point x="119" y="111"/>
      <point x="119" y="225" type="curve" smooth="yes"/>
      <point x="119" y="361"/>
      <point x="189" y="652"/>
      <point x="339" y="652" type="curve" smooth="yes"/>
      <point x="367" y="652"/>
      <point x="391" y="643"/>
      <point x="413" y="624" type="curve"/>
      <point x="455" y="689" type="line"/>
      <point x="424" y="714"/>
      <point x="386" y="725"/>
      <point x="340" y="725" type="curve" smooth="yes"/>
      <point x="137" y="725"/>
      <point x="36" y="417"/>
      <point x="36" y="218" type="curve" smooth="yes"/>
      <point x="36" y="67"/>
      <point x="89" y="-10"/>
    </contour>
  </outline>
</glyph>
<glyph name="D" format="2">
  <advance width="457"/>
  <unicode hex="0044"/>
  <anchor x="174" y="0" name="bottom"/>
  <anchor x="255" y="357" name="center"/>
  <anchor x="305" y="714" name="top"/>
  <anchor x="513" y="714" name="topright"/>
  <outline>
    <contour>
      <point x="0" y="0" type="line"/>
      <point x="117" y="0" type="line" smooth="yes"/>
      <point x="355" y="0"/>
      <point x="445" y="288"/>
      <point x="445" y="505" type="curve" smooth="yes"/>
      <point x="445" y="643"/>
      <point x="382" y="714"/>
      <point x="267" y="714" type="curve" smooth="yes"/>
      <point x="151" y="714" type="line"/>
    </contour>
    <contour>
      <point x="129" y="73" type="curve" smooth="yes"/>
      <point x="95" y="73" type="line"/>
      <point x="216" y="641" type="line"/>
      <point x="257" y="641" type="line" smooth="yes"/>
      <point x="326" y="641"/>
      <point x="360" y="597"/>
      <point x="360" y="499" type="curve" smooth="yes"/>
      <point x="360" y="321"/>
      <point x="292" y="73"/>
    </contour>
  </outline>
</glyph>
<glyph name="E" format="2">
  <advance width="360"/>
  <unicode hex="0045"/>
  <anchor x="126" y="0" name="bottom"/>
  <anchor x="277" y="714" name="top"/>
  <anchor x="437" y="714" name="topright"/>
  <outline>
    <contour>
      <point x="0" y="0" type="line"/>
      <point x="255" y="0" type="line"/>
      <point x="270" y="72" type="line"/>
      <point x="95" y="72" type="line"/>
      <point x="151" y="337" type="line"/>
      <point x="314" y="337" type="line"/>
      <point x="330" y="409" type="line"/>
      <point x="167" y="409" type="line"/>
      <point x="216" y="642" type="line"/>
      <point x="391" y="642" type="line"/>
      <point x="406" y="714" type="line"/>
      <point x="151" y="714" type="line"/>
    </contour>
  </outline>
</glyph>
<glyph name="F" format="2">
  <advance width="339"/>
  <unicode hex="0046"/>
  <anchor x="115" y="0" name="bottom"/>
  <anchor x="276" y="714" name="top"/>
  <anchor x="416" y="714" name="topright"/>
  <outline>
    <contour>
      <point x="0" y="0" type="line"/>
      <point x="80" y="0" type="line"/>
      <point x="145" y="308" type="line"/>
      <point x="309" y="308" type="line"/>
      <point x="324" y="380" type="line"/>
      <point x="161" y="380" type="line"/>
      <point x="216" y="642" type="line"/>
      <point x="391" y="642" type="line"/>
      <point x="407" y="714" type="line"/>
      <point x="151" y="714" type="line"/>
    </contour>
  </outline>
</glyph>
<glyph name="G" format="2">
  <advance width="483"/>
  <unicode hex="0047"/>
  <anchor x="207" y="0" name="bottom"/>
  <anchor x="348" y="714" name="top"/>
  <anchor x="559" y="714" name="topright"/>
  <outline>
    <contour>
      <point x="223" y="-10" type="curve" smooth="yes"/>
      <point x="270" y="-10"/>
      <point x="323" y="1"/>
      <point x="375" y="21" type="curve"/>
      <point x="451" y="377" type="line"/>
      <point x="285" y="377" type="line"/>
      <point x="270" y="306" type="line"/>
      <point x="355" y="306" type="line"/>
      <point x="307" y="74" type="line"/>
      <point x="283" y="66"/>
      <point x="257" y="62"/>
      <point x="230" y="62" type="curve" smooth="yes"/>
      <point x="156" y="62"/>
      <point x="119" y="110"/>
      <point x="119" y="219" type="curve" smooth="yes"/>
      <point x="119" y="421"/>
      <point x="211" y="652"/>
      <point x="353" y="652" type="curve" smooth="yes"/>
      <point x="394" y="652"/>
      <point x="430" y="640"/>
      <point x="468" y="611" type="curve"/>
      <point x="508" y="680" type="line"/>
      <point x="470" y="707"/>
      <point x="418" y="725"/>
      <point x="360" y="725" type="curve" smooth="yes"/>
      <point x="172" y="725"/>
      <point x="36" y="496"/>
      <point x="36" y="215" type="curve" smooth="yes"/>
      <point x="36" y="67"/>
      <point x="97" y="-10"/>
    </contour>
  </outline>
</glyph>
<glyph name="H" format="2">
  <advance width="475"/>
  <unicode hex="0048"/>
  <anchor x="171" y="0" name="bottom"/>
  <anchor x="247" y="357" name="center"/>
  <anchor x="323" y="714" name="top"/>
  <anchor x="550" y="714" name="topright"/>
  <outline>
    <contour>
      <point x="0" y="0" type="line"/>
      <point x="80" y="0" type="line"/>
      <point x="151" y="337" type="line"/>
      <point x="339" y="337" type="line"/>
      <point x="268" y="0" type="line"/>
      <point x="348" y="0" type="line"/>
      <point x="500" y="714" type="line"/>
      <point x="420" y="714" type="line"/>
      <point x="355" y="410" type="line"/>
      <point x="167" y="410" type="line"/>
      <point x="231" y="714" type="line"/>
      <point x="151" y="714" type="line"/>
    </contour>
  </outline>
</glyph>
<glyph name="I" format="2">
  <advance width="256"/>
  <unicode hex="0049"/>
  <anchor x="73" y="0" name="bottom"/>
  <anchor x="223" y="714" name="top"/>
  <anchor x="333" y="714" name="topright"/>
  <outline>
    <contour>
      <point x="-50" y="0" type="line"/>
      <point x="178" y="0" type="line"/>
      <point x="187" y="45" type="line"/>
      <point x="118" y="61" type="line"/>
      <point x="242" y="653" type="line"/>
      <point x="319" y="669" type="line"/>
      <point x="329" y="714" type="line"/>
      <point x="101" y="714" type="line"/>
      <point x="92" y="669" type="line"/>
      <point x="162" y="653" type="line"/>
      <point x="38" y="61" type="line"/>
      <point x="-40" y="45" type="line"/>
    </contour>
  </outline>
</glyph>
<glyph name="J" format="2">
  <advance width="199"/>
  <unicode hex="004A"/>
  <anchor x="-79" y="-192" name="bottom"/>
  <anchor x="196" y="714" name="top"/>
  <anchor x="276" y="714" name="topright"/>
  <outline>
    <contour>
      <point x="-79" y="-192" type="curve" smooth="yes"/>
      <point x="1" y="-192"/>
      <point x="52" y="-139"/>
      <point x="78" y="-14" type="curve" smooth="yes"/>
      <point x="232" y="714" type="line"/>
      <point x="152" y="714" type="line"/>
      <point x="1" y="0" type="line" smooth="yes"/>
      <point x="-15" y="-74"/>
      <point x="-35" y="-120"/>
      <point x="-81" y="-120" type="curve" smooth="yes"/>
      <point x="-96" y="-120"/>
      <point x="-112" y="-115"/>
      <point x="-127" y="-108" type="curve"/>
      <point x="-145" y="-180" type="line"/>
      <point x="-128" y="-188"/>
      <point x="-108" y="-192"/>
    </contour>
  </outline>
</glyph>
<glyph name="K" format="2">
  <advance width="399"/>
  <unicode hex="004B"/>
  <anchor x="145" y="0" name="bottom"/>
  <anchor x="316" y="714" name="top"/>
  <anchor x="475" y="714" name="topright"/>
  <outline>
    <contour>
      <point x="0" y="0" type="line"/>
      <point x="80" y="0" type="line"/>
      <point x="137" y="270" type="line"/>
      <point x="191" y="326" type="line"/>
      <point x="251" y="0" type="line"/>
      <point x="338" y="0" type="line"/>
      <point x="260" y="387" type="line"/>
      <point x="482" y="714" type="line"/>
      <point x="395" y="714" type="line"/>
      <point x="210" y="444" type="line"/>
      <point x="156" y="359" type="line"/>
      <point x="231" y="714" type="line"/>
      <point x="151" y="714" type="line"/>
    </contour>
  </outline>
</glyph>
<glyph name="L" format="2">
  <advance width="332"/>
  <unicode hex="004C"/>
  <anchor x="120" y="0" name="bottom"/>
  <anchor x="113" y="357" name="center"/>
  <anchor x="192" y="714" name="top"/>
  <anchor x="328" y="714" name="topright"/>
  <outline>
    <contour>
      <point x="0" y="0" type="line"/>
      <point x="252" y="0" type="line"/>
      <point x="267" y="72" type="line"/>
      <point x="95" y="72" type="line"/>
      <point x="231" y="714" type="line"/>
      <point x="151" y="714" type="line"/>
    </contour>
  </outline>
</glyph>
<glyph name="M" format="2">
  <advance width="636"/>
  <unicode hex="004D"/>
  <anchor x="264" y="0" name="bottom"/>
  <anchor x="395" y="714" name="top"/>
  <anchor x="712" y="714" name="topright"/>
  <outline>
    <contour>
      <point x="0" y="0" type="line"/>
      <point x="76" y="0" type="line"/>
      <point x="174" y="466" type="line" smooth="yes"/>
      <point x="181" y="500"/>
      <point x="186" y="534"/>
      <point x="194" y="575" type="curve"/>
      <point x="196" y="575" type="line"/>
      <point x="215" y="0" type="line"/>
      <point x="295" y="0" type="line"/>
      <point x="552" y="576" type="line"/>
      <point x="554" y="576" type="line"/>
      <point x="546" y="544"/>
      <point x="538" y="514"/>
      <point x="532" y="484" type="curve" smooth="yes"/>
      <point x="429" y="0" type="line"/>
      <point x="509" y="0" type="line"/>
      <point x="661" y="714" type="line"/>
      <point x="541" y="714" type="line"/>
      <point x="283" y="130" type="line"/>
      <point x="281" y="130" type="line"/>
      <point x="263" y="714" type="line"/>
      <point x="151" y="714" type="line"/>
    </contour>
  </outline>
</glyph>
<glyph name="N" format="2">
  <advance width="504"/>
  <unicode hex="004E"/>
  <anchor x="198" y="0" name="bottom"/>
  <anchor x="340" y="714" name="top"/>
  <anchor x="582" y="714" name="topright"/>
  <outline>
    <contour>
      <point x="0" y="0" type="line"/>
      <point x="77" y="0" type="line"/>
      <point x="154" y="366" type="line"/>
      <point x="162" y="404"/>
      <point x="183" y="502"/>
      <point x="193" y="578" type="curve"/>
      <point x="196" y="578" type="line"/>
      <point x="287" y="0" type="line"/>
      <point x="378" y="0" type="line"/>
      <point x="530" y="714" type="line"/>
      <point x="453" y="714" type="line"/>
      <point x="372" y="330" type="line"/>
      <point x="364" y="290"/>
      <point x="349" y="217"/>
      <point x="337" y="145" type="curve"/>
      <point x="334" y="145" type="line"/>
      <point x="246" y="714" type="line"/>
      <point x="151" y="714" type="line"/>
    </contour>
  </outline>
</glyph>
<glyph name="O" format="2">
  <advance width="487"/>
  <unicode hex="004F"/>
  <anchor x="189" y="0" name="bottom"/>
  <anchor x="262" y="357" name="center"/>
  <anchor x="330" y="714" name="top"/>
  <anchor x="564" y="714" name="topright"/>
  <outline>
    <contour>
      <point x="188" y="-10" type="curve" smooth="yes"/>
      <point x="393" y="-10"/>
      <point x="475" y="337"/>
      <point x="475" y="524" type="curve" smooth="yes"/>
      <point x="475" y="659"/>
      <point x="426" y="724"/>
      <point x="324" y="724" type="curve" smooth="yes"/>
      <point x="131" y="724"/>
      <point x="35" y="414"/>
      <point x="35" y="198" type="curve" smooth="yes"/>
      <point x="35" y="56"/>
      <point x="85" y="-10"/>
    </contour>
    <contour>
      <point x="194" y="63" type="curve" smooth="yes"/>
      <point x="144" y="63"/>
      <point x="118" y="103"/>
      <point x="118" y="197" type="curve" smooth="yes"/>
      <point x="118" y="325"/>
      <point x="173" y="652"/>
      <point x="317" y="652" type="curve" smooth="yes"/>
      <point x="368" y="652"/>
      <point x="393" y="611"/>
      <point x="393" y="525" type="curve" smooth="yes"/>
      <point x="393" y="365"/>
      <point x="327" y="63"/>
    </contour>
  </outline>
</glyph>
<glyph name="P" format="2">
  <advance width="398"/>
  <unicode hex="0050"/>
  <anchor x="144" y="0" name="bottom"/>
  <anchor x="286" y="714" name="top"/>
  <anchor x="474" y="714" name="topright"/>
  <outline>
    <contour>
      <point x="0" y="0" type="line"/>
      <point x="80" y="0" type="line"/>
      <point x="139" y="279" type="line"/>
      <point x="183" y="279" type="line" smooth="yes"/>
      <point x="332" y="279"/>
      <point x="418" y="400"/>
      <point x="418" y="559" type="curve" smooth="yes"/>
      <point x="418" y="653"/>
      <point x="363" y="714"/>
      <point x="258" y="714" type="curve" smooth="yes"/>
      <point x="151" y="714" type="line"/>
    </contour>
    <contour>
      <point x="182" y="351" type="curve" smooth="yes"/>
      <point x="154" y="351" type="line"/>
      <point x="216" y="642" type="line"/>
      <point x="245" y="642" type="line" smooth="yes"/>
      <point x="304" y="642"/>
      <point x="335" y="610"/>
      <point x="335" y="549" type="curve" smooth="yes"/>
      <point x="335" y="432"/>
      <point x="282" y="351"/>
    </contour>
  </outline>
</glyph>
<glyph name="Q" format="2">
  <advance width="487"/>
  <unicode hex="0051"/>
  <anchor x="153" y="-110" name="bottom"/>
  <anchor x="330" y="714" name="top"/>
  <anchor x="564" y="714" name="topright"/>
  <outline>
    <contour>
      <point x="188" y="-8" type="curve"/>
      <point x="232" y="-170" type="line"/>
      <point x="324" y="-170" type="line"/>
      <point x="267" y="9" type="line"/>
      <point x="415" y="79"/>
      <point x="475" y="362"/>
      <point x="475" y="524" type="curve" smooth="yes"/>
      <point x="475" y="659"/>
      <point x="426" y="724"/>
      <point x="324" y="724" type="curve" smooth="yes"/>
      <point x="131" y="724"/>
      <point x="35" y="414"/>
      <point x="35" y="198" type="curve" smooth="yes"/>
      <point x="35" y="63"/>
      <point x="80" y="-9"/>
      <point x="172" y="-9" type="curve" smooth="yes"/>
      <point x="177" y="-9"/>
      <point x="182" y="-9"/>
    </contour>
    <contour>
      <point x="194" y="63" type="curve" smooth="yes"/>
      <point x="144" y="63"/>
      <point x="118" y="103"/>
      <point x="118" y="197" type="curve" smooth="yes"/>
      <point x="118" y="325"/>
      <point x="173" y="652"/>
      <point x="317" y="652" type="curve" smooth="yes"/>
      <point x="368" y="652"/>
      <point x="393" y="611"/>
      <point x="393" y="525" type="curve" smooth="yes"/>
      <point x="393" y="365"/>
      <point x="327" y="63"/>
    </contour>
  </outline>
</glyph>
<glyph name="R" format="2">
  <advance width="412"/>
  <unicode hex="0052"/>
  <anchor x="151" y="0" name="bottom"/>
  <anchor x="302" y="714" name="top"/>
  <anchor x="488" y="714" name="topright"/>
  <outline>
    <contour>
      <point x="0" y="0" type="line"/>
      <point x="80" y="0" type="line"/>
      <point x="143" y="299" type="line"/>
      <point x="197" y="299" type="line"/>
      <point x="248" y="0" type="line"/>
      <point x="336" y="0" type="line"/>
      <point x="274" y="315" type="line"/>
      <point x="362" y="338"/>
      <point x="419" y="441"/>
      <point x="419" y="560" type="curve" smooth="yes"/>
      <point x="419" y="657"/>
      <point x="362" y="714"/>
      <point x="258" y="714" type="curve" smooth="yes"/>
      <point x="151" y="714" type="line"/>
    </contour>
    <contour>
      <point x="201" y="367" type="curve" smooth="yes"/>
      <point x="158" y="367" type="line"/>
      <point x="216" y="643" type="line"/>
      <point x="246" y="643" type="line" smooth="yes"/>
      <point x="304" y="643"/>
      <point x="335" y="611"/>
      <point x="335" y="550" type="curve" smooth="yes"/>
      <point x="335" y="458"/>
      <point x="293" y="367"/>
    </contour>
  </outline>
</glyph>
<glyph name="S" format="2">
  <advance width="370"/>
  <unicode hex="0053"/>
  <anchor x="121" y="0" name="bottom"/>
  <anchor x="282" y="714" name="top"/>
  <anchor x="447" y="714" name="topright"/>
  <outline>
    <contour>
      <point x="113" y="-10" type="curve" smooth="yes"/>
      <point x="245" y="-10"/>
      <point x="317" y="80"/>
      <point x="317" y="205" type="curve" smooth="yes"/>
      <point x="317" y="282"/>
      <point x="294" y="330"/>
      <point x="243" y="382" type="curve" smooth="yes"/>
      <point x="188" y="439"/>
      <point x="161" y="471"/>
      <point x="161" y="528" type="curve" smooth="yes"/>
      <point x="161" y="604"/>
      <point x="210" y="649"/>
      <point x="272" y="649" type="curve" smooth="yes"/>
      <point x="307" y="649"/>
      <point x="340" y="635"/>
      <point x="370" y="614" type="curve"/>
      <point x="409" y="687" type="line"/>
      <point x="379" y="708"/>
      <point x="324" y="724"/>
      <point x="279" y="724" type="curve" smooth="yes"/>
      <point x="156" y="724"/>
      <point x="77" y="644"/>
      <point x="77" y="519" type="curve" smooth="yes"/>
      <point x="77" y="441"/>
      <point x="108" y="395"/>
      <point x="160" y="342" type="curve" smooth="yes"/>
      <point x="220" y="281"/>
      <point x="233" y="250"/>
      <point x="233" y="198" type="curve" smooth="yes"/>
      <point x="233" y="114"/>
      <point x="185" y="66"/>
      <point x="115" y="66" type="curve" smooth="yes"/>
      <point x="69" y="66"/>
      <point x="24" y="83"/>
      <point x="-10" y="107" type="curve"/>
      <point x="-22" y="23" type="line"/>
      <point x="9" y="2"/>
      <point x="56" y="-10"/>
    </contour>
  </outline>
</glyph>
<glyph name="T" format="2">
  <advance width="338"/>
  <unicode hex="0054"/>
  <anchor x="100" y="0" name="bottom"/>
  <anchor x="179" y="357" name="center"/>
  <anchor x="251" y="714" name="top"/>
  <anchor x="415" y="714" name="topright"/>
  <outline>
    <contour>
      <point x="65" y="0" type="line"/>
      <point x="145" y="0" type="line"/>
      <point x="281" y="641" type="line"/>
      <point x="401" y="641" type="line"/>
      <point x="417" y="714" type="line"/>
      <point x="97" y="714" type="line"/>
      <point x="80" y="641" type="line"/>
      <point x="201" y="641" type="line"/>
    </contour>
  </outline>
</glyph>
<glyph name="U" format="2">
  <advance width="464"/>
  <unicode hex="0055"/>
  <anchor x="173" y="0" name="bottom"/>
  <anchor x="316" y="714" name="top"/>
  <anchor x="539" y="714" name="topright"/>
  <outline>
    <contour>
      <point x="173" y="-10" type="curve" smooth="yes"/>
      <point x="300" y="-10"/>
      <point x="356" y="80"/>
      <point x="387" y="223" type="curve" smooth="yes"/>
      <point x="492" y="714" type="line"/>
      <point x="413" y="714" type="line"/>
      <point x="309" y="231" type="line" smooth="yes"/>
      <point x="284" y="114"/>
      <point x="250" y="63"/>
      <point x="184" y="63" type="curve" smooth="yes"/>
      <point x="138" y="63"/>
      <point x="114" y="91"/>
      <point x="114" y="149" type="curve" smooth="yes"/>
      <point x="114" y="169"/>
      <point x="117" y="195"/>
      <point x="122" y="220" type="curve" smooth="yes"/>
      <point x="227" y="714" type="line"/>
      <point x="147" y="714" type="line"/>
      <point x="43" y="224" type="line" smooth="yes"/>
      <point x="36" y="193"/>
      <point x="33" y="163"/>
      <point x="33" y="139" type="curve" smooth="yes"/>
      <point x="33" y="45"/>
      <point x="85" y="-10"/>
    </contour>
  </outline>
</glyph>
<glyph name="V" format="2">
  <advance width="397"/>
  <unicode hex="0056"/>
  <anchor x="135" y="0" name="bottom"/>
  <anchor x="275" y="714" name="top"/>
  <anchor x="474" y="714" name="topright"/>
  <outline>
    <contour>
      <point x="88" y="0" type="line"/>
      <point x="180" y="0" type="line"/>
      <point x="481" y="714" type="line"/>
      <point x="396" y="714" type="line"/>
      <point x="206" y="245" type="line" smooth="yes"/>
      <point x="183" y="190"/>
      <point x="167" y="144"/>
      <point x="157" y="108" type="curve"/>
      <point x="155" y="108" type="line"/>
      <point x="161" y="171"/>
      <point x="163" y="219"/>
      <point x="164" y="265" type="curve" smooth="yes"/>
      <point x="170" y="714" type="line"/>
      <point x="87" y="714" type="line"/>
    </contour>
  </outline>
</glyph>
<glyph name="W" format="2">
  <advance width="642"/>
  <unicode hex="0057"/>
  <anchor x="257" y="0" name="bottom"/>
  <anchor x="408" y="714" name="top"/>
  <anchor x="720" y="714" name="topright"/>
  <outline>
    <contour>
      <point x="69" y="0" type="line"/>
      <point x="162" y="0" type="line"/>
      <point x="337" y="459" type="line" smooth="yes"/>
      <point x="349" y="490"/>
      <point x="361" y="524"/>
      <point x="371" y="556" type="curve"/>
      <point x="373" y="556" type="line"/>
      <point x="370" y="520"/>
      <point x="367" y="482"/>
      <point x="366" y="453" type="curve" smooth="yes"/>
      <point x="348" y="0" type="line"/>
      <point x="443" y="0" type="line"/>
      <point x="723" y="714" type="line"/>
      <point x="640" y="714" type="line"/>
      <point x="471" y="273" type="line" smooth="yes"/>
      <point x="453" y="226"/>
      <point x="438" y="182"/>
      <point x="418" y="126" type="curve"/>
      <point x="416" y="126" type="line"/>
      <point x="419" y="170"/>
      <point x="423" y="216"/>
      <point x="425" y="280" type="curve" smooth="yes"/>
      <point x="441" y="714" type="line"/>
      <point x="369" y="714" type="line"/>
      <point x="197" y="266" type="line" smooth="yes"/>
      <point x="179" y="219"/>
      <point x="161" y="172"/>
      <point x="146" y="126" type="curve"/>
      <point x="144" y="126" type="line"/>
      <point x="147" y="161"/>
      <point x="150" y="208"/>
      <point x="152" y="266" type="curve" smooth="yes"/>
      <point x="167" y="714" type="line"/>
      <point x="89" y="714" type="line"/>
    </contour>
  </outline>
</glyph>
<glyph name="X" format="2">
  <advance width="365"/>
  <unicode hex="0058"/>
  <anchor x="127" y="0" name="bottom"/>
  <anchor x="279" y="714" name="top"/>
  <anchor x="442" y="714" name="topright"/>
  <outline>
    <contour>
      <point x="-58" y="0" type="line"/>
      <point x="27" y="0" type="line"/>
      <point x="182" y="287" type="line"/>
      <point x="209" y="0" type="line"/>
      <point x="294" y="0" type="line"/>
      <point x="246" y="365" type="line"/>
      <point x="438" y="714" type="line"/>
      <point x="353" y="714" type="line"/>
      <point x="219" y="451" type="line"/>
      <point x="191" y="714" type="line"/>
      <point x="108" y="714" type="line"/>
      <point x="155" y="376" type="line"/>
    </contour>
  </outline>
</glyph>
<glyph name="Y" format="2">
  <advance width="352"/>
  <unicode hex="0059"/>
  <anchor x="111" y="0" name="bottom"/>
  <anchor x="262" y="714" name="top"/>
  <anchor x="428" y="714" name="topright"/>
  <outline>
    <contour>
      <point x="72" y="0" type="line"/>
      <point x="152" y="0" type="line"/>
      <point x="211" y="277" type="line"/>
      <point x="439" y="714" type="line"/>
      <point x="354" y="714" type="line"/>
      <point x="192" y="383" type="line"/>
      <point x="169" y="714" type="line"/>
      <point x="86" y="714" type="line"/>
      <point x="130" y="275" type="line"/>
    </contour>
  </outline>
</glyph>
<glyph name="Z" format="2">
  <advance width="330"/>
  <unicode hex="005A"/>
  <anchor x="111" y="0" name="bottom"/>
  <anchor x="254" y="714" name="top"/>
  <anchor x="397" y="714" name="topright"/>
  <outline>
    <contour>
      <point x="-40" y="0" type="line"/>
      <point x="249" y="0" type="line"/>
      <point x="264" y="72" type="line"/>
      <point x="63" y="72" type="line"/>
      <point x="381" y="651" type="line"/>
      <point x="394" y="714" type="line"/>
      <point x="116" y="714" type="line"/>
      <point x="101" y="642" type="line"/>
      <point x="289" y="642" type="line"/>
      <point x="-27" y="62" type="line"/>
    </contour>
  </outline>
</glyph>
<glyph name="bracketleft" format="2">
  <advance width="276"/>
  <unicode hex="005B"/>
  <outline>
    <contour>
      <point x="-28" y="-161" type="line"/>
      <point x="158" y="-161" type="line"/>
      <point x="172" y="-97" type="line"/>
      <point x="57" y="-97" type="line"/>
      <point x="218" y="656" type="line"/>
      <point x="332" y="656" type="line"/>
      <point x="346" y="720" type="line"/>
      <point x="160" y="720" type="line"/>
    </contour>
  </outline>
</glyph>
<glyph name="backslash" format="2">
  <advance width="334"/>
  <unicode hex="005C"/>
  <outline>
    <contour>
      <point x="186" y="-3" type="line"/>
      <point x="258" y="-3" type="line"/>
      <point x="173" y="717" type="line"/>
      <point x="102" y="717" type="line"/>
    </contour>
  </outline>
</glyph>
<glyph name="bracketright" format="2">
  <advance width="276"/>
  <unicode hex="005D"/>
  <outline>
    <contour>
      <point x="-66" y="-161" type="line"/>
      <point x="119" y="-161" type="line"/>
      <point x="307" y="720" type="line"/>
      <point x="121" y="720" type="line"/>
      <point x="107" y="656" type="line"/>
      <point x="221" y="656" type="line"/>
      <point x="61" y="-97" type="line"/>
      <point x="-53" y="-97" type="line"/>
    </contour>
  </outline>
</glyph>
<glyph name="asciicircum" format="2">
  <advance width="391"/>
  <unicode hex="005E"/>
  <outline>
    <contour>
      <point x="12" y="331" type="line"/>
      <point x="89" y="331" type="line"/>
      <point x="248" y="608" type="line"/>
      <point x="319" y="331" type="line"/>
      <point x="391" y="331" type="line"/>
      <point x="293" y="714" type="line"/>
      <point x="241" y="714" type="line"/>
    </contour>
  </outline>
</glyph>
<glyph name="underscore" format="2">
  <advance width="299"/>
  <unicode hex="005F"/>
  <outline>
    <contour>
      <point x="-86" y="-144" type="line"/>
      <point x="213" y="-144" type="line"/>
      <point x="226" y="-83" type="line"/>
      <point x="-74" y="-83" type="line"/>
    </contour>
  </outline>
</glyph>
<glyph name="a" format="2">
  <advance width="415"/>
  <unicode hex="0061"/>
  <anchor x="133" y="0" name="bottom"/>
  <anchor x="266" y="536" name="top"/>
  <anchor x="443" y="536" name="topright"/>
  <outline>
    <contour>
      <point x="126" y="-10" type="curve" smooth="yes"/>
      <point x="173" y="-10"/>
      <point x="209" y="22"/>
      <point x="243" y="76" type="curve"/>
      <point x="245" y="76" type="line"/>
      <point x="239" y="0" type="line"/>
      <point x="301" y="0" type="line"/>
      <point x="415" y="536" type="line"/>
      <point x="349" y="536" type="line"/>
      <point x="327" y="468" type="line"/>
      <point x="325" y="468" type="line"/>
      <point x="312" y="520"/>
      <point x="282" y="546"/>
      <point x="237" y="546" type="curve" smooth="yes"/>
      <point x="91" y="546"/>
      <point x="24" y="286"/>
      <point x="24" y="138" type="curve" smooth="yes"/>
      <point x="24" y="43"/>
      <point x="60" y="-10"/>
    </contour>
    <contour>
      <point x="152" y="58" type="curve" smooth="yes"/>
      <point x="119" y="58"/>
      <point x="104" y="86"/>
      <point x="104" y="144" type="curve" smooth="yes"/>
      <point x="104" y="265"/>
      <point x="158" y="477"/>
      <point x="246" y="477" type="curve" smooth="yes"/>
      <point x="280" y="477"/>
      <point x="300" y="448"/>
      <point x="300" y="399" type="curve" smooth="yes"/>
      <point x="300" y="354"/>
      <point x="293" y="305"/>
      <point x="276" y="240" type="curve" smooth="yes"/>
      <point x="253" y="151"/>
      <point x="217" y="58"/>
    </contour>
  </outline>
</glyph>
<glyph name="d" format="2">
  <advance width="414"/>
  <unicode hex="0064"/>
  <anchor x="143" y="0" name="bottom"/>
  <anchor x="199" y="265" name="center"/>
  <anchor x="295" y="760" name="top"/>
  <anchor x="481" y="760" name="topright"/>
  <outline>
    <contour>
      <point x="125" y="-10" type="curve" smooth="yes"/>
      <point x="173" y="-10"/>
      <point x="207" y="20"/>
      <point x="243" y="74" type="curve"/>
      <point x="245" y="74" type="line"/>
      <point x="239" y="0" type="line"/>
      <point x="301" y="0" type="line"/>
      <point x="462" y="760" type="line"/>
      <point x="385" y="760" type="line"/>
      <point x="345" y="570" type="line" smooth="yes"/>
      <point x="339" y="541"/>
      <point x="334" y="507"/>
      <point x="328" y="473" type="curve"/>
      <point x="325" y="473" type="line"/>
      <point x="314" y="519"/>
      <point x="279" y="546"/>
      <point x="234" y="546" type="curve" smooth="yes"/>
      <point x="92" y="546"/>
      <point x="24" y="284"/>
      <point x="24" y="138" type="curve" smooth="yes"/>
      <point x="24" y="43"/>
      <point x="60" y="-10"/>
    </contour>
    <contour>
      <point x="152" y="57" type="curve" smooth="yes"/>
      <point x="119" y="57"/>
      <point x="104" y="85"/>
      <point x="104" y="142" type="curve" smooth="yes"/>
      <point x="104" y="255"/>
      <point x="155" y="477"/>
      <point x="246" y="477" type="curve" smooth="yes"/>
      <point x="283" y="477"/>
      <point x="300" y="450"/>
      <point x="300" y="401" type="curve" smooth="yes"/>
      <point x="300" y="309"/>
      <point x="257" y="57"/>
    </contour>
  </outline>
</glyph>
<glyph name="e" format="2">
  <advance width="376"/>
  <unicode hex="0065"/>
  <anchor x="151" y="0" name="bottom"/>
  <anchor x="255" y="536" name="top"/>
  <anchor x="413" y="536" name="topright"/>
  <outline>
    <contour>
      <point x="161" y="-10" type="curve" smooth="yes"/>
      <point x="207" y="-10"/>
      <point x="246" y="-1"/>
      <point x="281" y="21" type="curve"/>
      <point x="281" y="86" type="line"/>
      <point x="243" y="64"/>
      <point x="216" y="55"/>
      <point x="181" y="55" type="curve" smooth="yes"/>
      <point x="127" y="55"/>
      <point x="101" y="88"/>
      <point x="101" y="162" type="curve" smooth="yes"/>
      <point x="101" y="188"/>
      <point x="104" y="216"/>
      <point x="109" y="241" type="curve"/>
      <point x="116" y="241" type="line" smooth="yes"/>
      <point x="269" y="241"/>
      <point x="361" y="316"/>
      <point x="361" y="436" type="curve" smooth="yes"/>
      <point x="361" y="508"/>
      <point x="320" y="546"/>
      <point x="255" y="546" type="curve" smooth="yes"/>
      <point x="123" y="546"/>
      <point x="24" y="369"/>
      <point x="24" y="153" type="curve" smooth="yes"/>
      <point x="24" y="49"/>
      <point x="75" y="-10"/>
    </contour>
    <contour>
      <point x="123" y="301" type="curve"/>
      <point x="120" y="301" type="line"/>
      <point x="145" y="406"/>
      <point x="193" y="481"/>
      <point x="244" y="481" type="curve" smooth="yes"/>
      <point x="275" y="481"/>
      <point x="288" y="462"/>
      <point x="288" y="431" type="curve" smooth="yes"/>
      <point x="288" y="353"/>
      <point x="240" y="301"/>
    </contour>
  </outline>
</glyph>
<glyph name="f" format="2">
  <advance width="227"/>
  <unicode hex="0066"/>
  <anchor x="-71" y="-240" name="bottom"/>
  <anchor x="270" y="765" name="top"/>
  <anchor x="344" y="765" name="topright"/>
  <outline>
    <contour>
      <point x="-71" y="-240" type="curve" smooth="yes"/>
      <point x="22" y="-240"/>
      <point x="48" y="-160"/>
      <point x="69" y="-61" type="curve" smooth="yes"/>
      <point x="183" y="470" type="line"/>
      <point x="256" y="470" type="line"/>
      <point x="270" y="536" type="line"/>
      <point x="198" y="536" type="line"/>
      <point x="209" y="591" type="line" smooth="yes"/>
      <point x="223" y="660"/>
      <point x="239" y="697"/>
      <point x="276" y="697" type="curve" smooth="yes"/>
      <point x="288" y="697"/>
      <point x="302" y="694"/>
      <point x="315" y="687" type="curve"/>
      <point x="344" y="749" type="line"/>
      <point x="323" y="760"/>
      <point x="297" y="765"/>
      <point x="272" y="765" type="curve" smooth="yes"/>
      <point x="184" y="765"/>
      <point x="156" y="702"/>
      <point x="132" y="593" type="curve" smooth="yes"/>
      <point x="120" y="537" type="line"/>
      <point x="58" y="513" type="line"/>
      <point x="50" y="470" type="line"/>
      <point x="106" y="470" type="line"/>
      <point x="-6" y="-55" type="line" smooth="yes"/>
      <point x="-22" y="-129"/>
      <point x="-32" y="-171"/>
      <point x="-78" y="-171" type="curve" smooth="yes"/>
      <point x="-93" y="-171"/>
      <point x="-109" y="-168"/>
      <point x="-121" y="-164" type="curve"/>
      <point x="-121" y="-233" type="line"/>
      <point x="-105" y="-238"/>
      <point x="-89" y="-240"/>
    </contour>
  </outline>
</glyph>
<glyph name="h" format="2">
  <advance width="404"/>
  <unicode hex="0068"/>
  <anchor x="146" y="0" name="bottom"/>
  <anchor x="201" y="265" name="center"/>
  <anchor x="199" y="760" name="top"/>
  <anchor x="435" y="760" name="topright"/>
  <outline>
    <contour>
      <point x="0" y="0" type="line"/>
      <point x="77" y="0" type="line"/>
      <point x="140" y="296" type="line" smooth="yes"/>
      <point x="167" y="421"/>
      <point x="203" y="475"/>
      <point x="256" y="475" type="curve" smooth="yes"/>
      <point x="285" y="475"/>
      <point x="299" y="458"/>
      <point x="299" y="428" type="curve" smooth="yes"/>
      <point x="299" y="399"/>
      <point x="292" y="362"/>
      <point x="284" y="327" type="curve" smooth="yes"/>
      <point x="215" y="0" type="line"/>
      <point x="292" y="0" type="line"/>
      <point x="364" y="338" type="line" smooth="yes"/>
      <point x="372" y="373"/>
      <point x="379" y="416"/>
      <point x="379" y="445" type="curve" smooth="yes"/>
      <point x="379" y="511"/>
      <point x="344" y="546"/>
      <point x="288" y="546" type="curve" smooth="yes"/>
      <point x="239" y="546"/>
      <point x="201" y="519"/>
      <point x="173" y="468" type="curve"/>
      <point x="171" y="468" type="line"/>
      <point x="180" y="498"/>
      <point x="189" y="530"/>
      <point x="195" y="560" type="curve" smooth="yes"/>
      <point x="238" y="760" type="line"/>
      <point x="161" y="760" type="line"/>
    </contour>
  </outline>
</glyph>
<glyph name="k" format="2">
  <advance width="356"/>
  <unicode hex="006B"/>
  <anchor x="144" y="0" name="bottom"/>
  <anchor x="202" y="760" name="top"/>
  <anchor x="394" y="830" name="topright"/>
  <outline>
    <contour>
      <point x="0" y="0" type="line"/>
      <point x="77" y="0" type="line"/>
      <point x="116" y="189" type="line"/>
      <point x="176" y="255" type="line"/>
      <point x="216" y="0" type="line"/>
      <point x="298" y="0" type="line"/>
      <point x="243" y="319" type="line"/>
      <point x="402" y="536" type="line"/>
      <point x="318" y="536" type="line"/>
      <point x="136" y="286" type="line"/>
      <point x="134" y="286" type="line"/>
      <point x="146" y="330"/>
      <point x="154" y="366"/>
      <point x="160" y="393" type="curve" smooth="yes"/>
      <point x="239" y="760" type="line"/>
      <point x="162" y="760" type="line"/>
    </contour>
  </outline>
</glyph>
<glyph name="m" format="2">
  <advance width="603"/>
  <unicode hex="006D"/>
  <anchor x="245" y="0" name="bottom"/>
  <anchor x="359" y="536" name="top"/>
  <anchor x="624" y="536" name="topright"/>
  <outline>
    <contour>
      <point x="-1" y="0" type="line"/>
      <point x="77" y="0" type="line"/>
      <point x="138" y="292" type="line" smooth="yes"/>
      <point x="158" y="387"/>
      <point x="187" y="476"/>
      <point x="254" y="476" type="curve" smooth="yes"/>
      <point x="281" y="476"/>
      <point x="294" y="458"/>
      <point x="294" y="424" type="curve" smooth="yes"/>
      <point x="294" y="410"/>
      <point x="292" y="390"/>
      <point x="287" y="368" type="curve" smooth="yes"/>
      <point x="209" y="0" type="line"/>
      <point x="286" y="0" type="line"/>
      <point x="360" y="347" type="line" smooth="yes"/>
      <point x="373" y="410"/>
      <point x="403" y="476"/>
      <point x="457" y="476" type="curve" smooth="yes"/>
      <point x="484" y="476"/>
      <point x="498" y="458"/>
      <point x="498" y="423" type="curve" smooth="yes"/>
      <point x="498" y="409"/>
      <point x="494" y="384"/>
      <point x="489" y="360" type="curve" smooth="yes"/>
      <point x="413" y="0" type="line"/>
      <point x="490" y="0" type="line"/>
      <point x="569" y="375" type="line" smooth="yes"/>
      <point x="574" y="399"/>
      <point x="579" y="424"/>
      <point x="579" y="445" type="curve" smooth="yes"/>
      <point x="579" y="511"/>
      <point x="545" y="546"/>
      <point x="490" y="546" type="curve" smooth="yes"/>
      <point x="442" y="546"/>
      <point x="404" y="521"/>
      <point x="374" y="477" type="curve"/>
      <point x="372" y="477" type="line"/>
      <point x="363" y="524"/>
      <point x="334" y="546"/>
      <point x="284" y="546" type="curve" smooth="yes"/>
      <point x="237" y="546"/>
      <point x="198" y="518"/>
      <point x="169" y="466" type="curve"/>
      <point x="166" y="466" type="line"/>
      <point x="176" y="536" type="line"/>
      <point x="113" y="536" type="line"/>
    </contour>
  </outline>
</glyph>
<glyph name="n" format="2">
  <advance width="404"/>
  <unicode hex="006E"/>
  <anchor x="145" y="0" name="bottom"/>
  <anchor x="259" y="536" name="top"/>
  <anchor x="441" y="536" name="topright"/>
  <outline>
    <contour>
      <point x="-1" y="0" type="line"/>
      <point x="77" y="0" type="line"/>
      <point x="138" y="288" type="line" smooth="yes"/>
      <point x="164" y="409"/>
      <point x="199" y="475"/>
      <point x="257" y="475" type="curve" smooth="yes"/>
      <point x="285" y="475"/>
      <point x="299" y="458"/>
      <point x="299" y="428" type="curve" smooth="yes"/>
      <point x="299" y="402"/>
      <point x="292" y="365"/>
      <point x="285" y="333" type="curve" smooth="yes"/>
      <point x="215" y="0" type="line"/>
      <point x="292" y="0" type="line"/>
      <point x="365" y="344" type="line" smooth="yes"/>
      <point x="373" y="379"/>
      <point x="379" y="418"/>
      <point x="379" y="446" type="curve" smooth="yes"/>
      <point x="379" y="515"/>
      <point x="339" y="546"/>
      <point x="285" y="546" type="curve" smooth="yes"/>
      <point x="238" y="546"/>
      <point x="198" y="517"/>
      <point x="169" y="464" type="curve"/>
      <point x="166" y="464" type="line"/>
      <point x="176" y="536" type="line"/>
      <point x="113" y="536" type="line"/>
    </contour>
  </outline>
</glyph>
<glyph name="o" format="2">
  <advance width="400"/>
  <unicode hex="006F"/>
  <anchor x="143" y="0" name="bottom"/>
  <anchor x="200" y="268" name="center"/>
  <anchor x="257" y="536" name="top"/>
  <anchor x="437" y="536" name="topright"/>
  <outline>
    <contour>
      <point x="151" y="-10" type="curve" smooth="yes"/>
      <point x="306" y="-10"/>
      <point x="377" y="219"/>
      <point x="377" y="383" type="curve" smooth="yes"/>
      <point x="377" y="487"/>
      <point x="331" y="546"/>
      <point x="253" y="546" type="curve" smooth="yes"/>
      <point x="85" y="546"/>
      <point x="25" y="286"/>
      <point x="25" y="151" type="curve" smooth="yes"/>
      <point x="25" y="47"/>
      <point x="71" y="-10"/>
    </contour>
    <contour>
      <point x="159" y="58" type="curve" smooth="yes"/>
      <point x="121" y="58"/>
      <point x="103" y="91"/>
      <point x="103" y="150" type="curve" smooth="yes"/>
      <point x="103" y="255"/>
      <point x="147" y="479"/>
      <point x="243" y="479" type="curve" smooth="yes"/>
      <point x="280" y="479"/>
      <point x="299" y="444"/>
      <point x="299" y="385" type="curve" smooth="yes"/>
      <point x="299" y="262"/>
      <point x="248" y="58"/>
    </contour>
  </outline>
</glyph>
<glyph name="p" format="2">
  <advance width="411"/>
  <unicode hex="0070"/>
  <anchor x="-12" y="-233" name="bottom"/>
  <anchor x="263" y="536" name="top"/>
  <anchor x="448" y="536" name="topright"/>
  <outline>
    <contour>
      <point x="-48" y="-233" type="line"/>
      <point x="28" y="-233" type="line"/>
      <point x="71" y="-32" type="line" smooth="yes"/>
      <point x="77" y="-4"/>
      <point x="83" y="31"/>
      <point x="88" y="65" type="curve"/>
      <point x="91" y="65" type="line"/>
      <point x="102" y="20"/>
      <point x="134" y="-10"/>
      <point x="178" y="-10" type="curve" smooth="yes"/>
      <point x="322" y="-10"/>
      <point x="392" y="246"/>
      <point x="392" y="398" type="curve" smooth="yes"/>
      <point x="392" y="497"/>
      <point x="355" y="546"/>
      <point x="291" y="546" type="curve" smooth="yes"/>
      <point x="245" y="546"/>
      <point x="207" y="517"/>
      <point x="171" y="459" type="curve"/>
      <point x="168" y="459" type="line"/>
      <point x="178" y="536" type="line"/>
      <point x="114" y="536" type="line"/>
    </contour>
    <contour>
      <point x="170" y="58" type="curve" smooth="yes"/>
      <point x="134" y="58"/>
      <point x="116" y="86"/>
      <point x="116" y="138" type="curve" smooth="yes"/>
      <point x="116" y="247"/>
      <point x="169" y="480"/>
      <point x="263" y="480" type="curve" smooth="yes"/>
      <point x="297" y="480"/>
      <point x="312" y="452"/>
      <point x="312" y="394" type="curve" smooth="yes"/>
      <point x="312" y="271"/>
      <point x="258" y="58"/>
    </contour>
  </outline>
</glyph>
<glyph name="q" format="2">
  <advance width="414"/>
  <unicode hex="0071"/>
  <anchor x="211" y="-239" name="bottom"/>
  <anchor x="264" y="536" name="top"/>
  <anchor x="441" y="536" name="topright"/>
  <outline>
    <contour>
      <point x="223" y="-6" type="curve" smooth="yes"/>
      <point x="174" y="-239" type="line"/>
      <point x="251" y="-239" type="line"/>
      <point x="415" y="536" type="line"/>
      <point x="349" y="536" type="line"/>
      <point x="329" y="468" type="line"/>
      <point x="327" y="468" type="line"/>
      <point x="315" y="519"/>
      <point x="288" y="546"/>
      <point x="239" y="546" type="curve" smooth="yes"/>
      <point x="91" y="546"/>
      <point x="24" y="280"/>
      <point x="24" y="135" type="curve" smooth="yes"/>
      <point x="24" y="40"/>
      <point x="60" y="-10"/>
      <point x="124" y="-10" type="curve" smooth="yes"/>
      <point x="170" y="-10"/>
      <point x="208" y="17"/>
      <point x="241" y="70" type="curve"/>
      <point x="243" y="70" type="line"/>
      <point x="235" y="41"/>
      <point x="227" y="12"/>
    </contour>
    <contour>
      <point x="153" y="58" type="curve" smooth="yes"/>
      <point x="119" y="58"/>
      <point x="104" y="85"/>
      <point x="104" y="143" type="curve" smooth="yes"/>
      <point x="104" y="261"/>
      <point x="156" y="477"/>
      <point x="246" y="477" type="curve" smooth="yes"/>
      <point x="280" y="477"/>
      <point x="301" y="450"/>
      <point x="301" y="402" type="curve" smooth="yes"/>
      <point x="301" y="289"/>
      <point x="247" y="58"/>
    </contour>
  </outline>
</glyph>
<glyph name="r" format="2">
  <advance width="273"/>
  <unicode hex="0072"/>
  <anchor x="41" y="0" name="bottom"/>
  <anchor x="206" y="536" name="top"/>
  <anchor x="310" y="536" name="topright"/>
  <outline>
    <contour>
      <point x="0" y="0" type="line"/>
      <point x="77" y="0" type="line"/>
      <point x="136" y="280" type="line" smooth="yes"/>
      <point x="154" y="366"/>
      <point x="193" y="465"/>
      <point x="261" y="465" type="curve" smooth="yes"/>
      <point x="275" y="465"/>
      <point x="285" y="463"/>
      <point x="296" y="458" type="curve"/>
      <point x="320" y="540" type="line"/>
      <point x="307" y="544"/>
      <point x="295" y="546"/>
      <point x="282" y="546" type="curve" smooth="yes"/>
      <point x="231" y="546"/>
      <point x="195" y="514"/>
      <point x="165" y="448" type="curve"/>
      <point x="162" y="448" type="line"/>
      <point x="173" y="536" type="line"/>
      <point x="113" y="536" type="line"/>
    </contour>
  </outline>
</glyph>
<glyph name="s" format="2">
  <advance width="311"/>
  <unicode hex="0073"/>
  <anchor x="99" y="0" name="bottom"/>
  <anchor x="213" y="536" name="top"/>
  <anchor x="328" y="536" name="topright"/>
  <outline>
    <contour>
      <point x="98" y="-10" type="curve" smooth="yes"/>
      <point x="198" y="-10"/>
      <point x="256" y="55"/>
      <point x="256" y="156" type="curve" smooth="yes"/>
      <point x="256" y="222"/>
      <point x="234" y="252"/>
      <point x="183" y="306" type="curve" smooth="yes"/>
      <point x="144" y="346"/>
      <point x="134" y="369"/>
      <point x="134" y="404" type="curve" smooth="yes"/>
      <point x="134" y="450"/>
      <point x="162" y="480"/>
      <point x="207" y="480" type="curve" smooth="yes"/>
      <point x="236" y="480"/>
      <point x="267" y="469"/>
      <point x="291" y="449" type="curve"/>
      <point x="326" y="511" type="line"/>
      <point x="297" y="532"/>
      <point x="256" y="546"/>
      <point x="205" y="546" type="curve" smooth="yes"/>
      <point x="111" y="546"/>
      <point x="55" y="479"/>
      <point x="55" y="393" type="curve" smooth="yes"/>
      <point x="55" y="337"/>
      <point x="77" y="299"/>
      <point x="120" y="255" type="curve" smooth="yes"/>
      <point x="164" y="209"/>
      <point x="175" y="185"/>
      <point x="175" y="148" type="curve" smooth="yes"/>
      <point x="175" y="90"/>
      <point x="143" y="59"/>
      <point x="91" y="59" type="curve" smooth="yes"/>
      <point x="55" y="59"/>
      <point x="13" y="75"/>
      <point x="-11" y="94" type="curve"/>
      <point x="-11" y="15" type="line"/>
      <point x="11" y="1"/>
      <point x="52" y="-10"/>
    </contour>
  </outline>
</glyph>
<glyph name="t" format="2">
  <advance width="235"/>
  <unicode hex="0074"/>
  <anchor x="81" y="0" name="bottom"/>
  <anchor x="97" y="268" name="center"/>
  <anchor x="184" y="658" name="top"/>
  <anchor x="268" y="830" name="topright"/>
  <outline>
    <contour>
      <point x="101" y="-10" type="curve" smooth="yes"/>
      <point x="123" y="-10"/>
      <point x="152" y="-5"/>
      <point x="174" y="5" type="curve"/>
      <point x="174" y="68" type="line"/>
      <point x="160" y="62"/>
      <point x="142" y="59"/>
      <point x="130" y="59" type="curve" smooth="yes"/>
      <point x="109" y="59"/>
      <point x="101" y="70"/>
      <point x="101" y="93" type="curve" smooth="yes"/>
      <point x="101" y="106"/>
      <point x="104" y="126"/>
      <point x="109" y="146" type="curve" smooth="yes"/>
      <point x="177" y="470" type="line"/>
      <point x="253" y="470" type="line"/>
      <point x="267" y="536" type="line"/>
      <point x="192" y="536" type="line"/>
      <point x="218" y="658" type="line"/>
      <point x="162" y="658" type="line"/>
      <point x="119" y="535" type="line"/>
      <point x="63" y="514" type="line"/>
      <point x="54" y="470" type="line"/>
      <point x="101" y="470" type="line"/>
      <point x="33" y="151" type="line" smooth="yes"/>
      <point x="27" y="123"/>
      <point x="24" y="99"/>
      <point x="24" y="79" type="curve" smooth="yes"/>
      <point x="24" y="24"/>
      <point x="47" y="-10"/>
    </contour>
  </outline>
</glyph>
<glyph name="u" format="2">
  <advance width="406"/>
  <unicode hex="0075"/>
  <anchor x="126" y="0" name="bottom"/>
  <anchor x="253" y="536" name="top"/>
  <anchor x="423" y="536" name="topright"/>
  <outline>
    <contour>
      <point x="119" y="-10" type="curve" smooth="yes"/>
      <point x="162" y="-10"/>
      <point x="203" y="18"/>
      <point x="232" y="68" type="curve"/>
      <point x="235" y="68" type="line"/>
      <point x="229" y="0" type="line"/>
      <point x="291" y="0" type="line"/>
      <point x="404" y="536" type="line"/>
      <point x="327" y="536" type="line"/>
      <point x="266" y="248" type="line" smooth="yes"/>
      <point x="241" y="128"/>
      <point x="203" y="60"/>
      <point x="146" y="60" type="curve" smooth="yes"/>
      <point x="118" y="60"/>
      <point x="105" y="79"/>
      <point x="105" y="110" type="curve" smooth="yes"/>
      <point x="105" y="134"/>
      <point x="110" y="162"/>
      <point x="116" y="192" type="curve" smooth="yes"/>
      <point x="189" y="536" type="line"/>
      <point x="112" y="536" type="line"/>
      <point x="36" y="181" type="line" smooth="yes"/>
      <point x="30" y="153"/>
      <point x="25" y="117"/>
      <point x="25" y="93" type="curve" smooth="yes"/>
      <point x="25" y="27"/>
      <point x="57" y="-10"/>
    </contour>
  </outline>
</glyph>
<glyph name="v" format="2">
  <advance width="332"/>
  <unicode hex="0076"/>
  <anchor x="109" y="0" name="bottom"/>
  <anchor x="223" y="536" name="top"/>
  <anchor x="369" y="536" name="topright"/>
  <outline>
    <contour>
      <point x="66" y="0" type="line"/>
      <point x="151" y="0" type="line"/>
      <point x="384" y="536" type="line"/>
      <point x="304" y="536" type="line"/>
      <point x="168" y="208" type="line" smooth="yes"/>
      <point x="155" y="177"/>
      <point x="143" y="147"/>
      <point x="132" y="112" type="curve"/>
      <point x="128" y="112" type="line"/>
      <point x="131" y="139"/>
      <point x="134" y="207"/>
      <point x="134" y="239" type="curve" smooth="yes"/>
      <point x="137" y="536" type="line"/>
      <point x="60" y="536" type="line"/>
    </contour>
  </outline>
</glyph>
<glyph name="w" format="2">
  <advance width="535"/>
  <unicode hex="0077"/>
  <anchor x="211" y="0" name="bottom"/>
  <anchor x="325" y="536" name="top"/>
  <anchor x="572" y="536" name="topright"/>
  <outline>
    <contour>
      <point x="52" y="0" type="line"/>
      <point x="140" y="0" type="line"/>
      <point x="273" y="352" type="line" smooth="yes"/>
      <point x="283" y="378"/>
      <point x="292" y="403"/>
      <point x="300" y="430" type="curve"/>
      <point x="302" y="430" type="line"/>
      <point x="299" y="397"/>
      <point x="296" y="364"/>
      <point x="295" y="332" type="curve" smooth="yes"/>
      <point x="281" y="0" type="line"/>
      <point x="371" y="0" type="line"/>
      <point x="584" y="536" type="line"/>
      <point x="506" y="536" type="line"/>
      <point x="396" y="244" type="line" smooth="yes"/>
      <point x="379" y="200"/>
      <point x="365" y="159"/>
      <point x="351" y="115" type="curve"/>
      <point x="349" y="115" type="line"/>
      <point x="351" y="155"/>
      <point x="355" y="197"/>
      <point x="356" y="233" type="curve" smooth="yes"/>
      <point x="367" y="536" type="line"/>
      <point x="280" y="536" type="line"/>
      <point x="158" y="219" type="line" smooth="yes"/>
      <point x="147" y="191"/>
      <point x="133" y="152"/>
      <point x="124" y="119" type="curve"/>
      <point x="122" y="119" type="line"/>
      <point x="125" y="153"/>
      <point x="128" y="190"/>
      <point x="129" y="230" type="curve" smooth="yes"/>
      <point x="139" y="536" type="line"/>
      <point x="64" y="536" type="line"/>
    </contour>
  </outline>
</glyph>
<glyph name="x" format="2">
  <advance width="339"/>
  <unicode hex="0078"/>
  <anchor x="113" y="0" name="bottom"/>
  <anchor x="227" y="536" name="top"/>
  <anchor x="364" y="536" name="topright"/>
  <outline>
    <contour>
      <point x="-45" y="0" type="line"/>
      <point x="39" y="0" type="line"/>
      <point x="156" y="205" type="line"/>
      <point x="190" y="0" type="line"/>
      <point x="271" y="0" type="line"/>
      <point x="216" y="272" type="line"/>
      <point x="379" y="536" type="line"/>
      <point x="294" y="536" type="line"/>
      <point x="186" y="345" type="line"/>
      <point x="157" y="536" type="line"/>
      <point x="76" y="536" type="line"/>
      <point x="125" y="279" type="line"/>
    </contour>
  </outline>
</glyph>
<glyph name="y" format="2">
  <advance width="335"/>
  <unicode hex="0079"/>
  <anchor x="-40" y="-241" name="bottom"/>
  <anchor x="225" y="536" name="top"/>
  <anchor x="372" y="536" name="topright"/>
  <outline>
    <contour>
      <point x="-40" y="-241" type="curve" smooth="yes"/>
      <point x="36" y="-241"/>
      <point x="74" y="-187"/>
      <point x="110" y="-103" type="curve" smooth="yes"/>
      <point x="389" y="536" type="line"/>
      <point x="308" y="536" type="line"/>
      <point x="180" y="226" type="line" smooth="yes"/>
      <point x="169" y="198"/>
      <point x="154" y="157"/>
      <point x="141" y="116" type="curve"/>
      <point x="138" y="116" type="line"/>
      <point x="141" y="157"/>
      <point x="142" y="199"/>
      <point x="142" y="239" type="curve" smooth="yes"/>
      <point x="142" y="536" type="line"/>
      <point x="65" y="536" type="line"/>
      <point x="76" y="2" type="line"/>
      <point x="38" y="-85" type="line" smooth="yes"/>
      <point x="16" y="-138"/>
      <point x="-3" y="-170"/>
      <point x="-41" y="-170" type="curve" smooth="yes"/>
      <point x="-56" y="-170"/>
      <point x="-69" y="-167"/>
      <point x="-82" y="-162" type="curve"/>
      <point x="-92" y="-231" type="line"/>
      <point x="-78" y="-237"/>
      <point x="-61" y="-241"/>
    </contour>
  </outline>
</glyph>
<glyph name="z" format="2">
  <advance width="279"/>
  <unicode hex="007A"/>
  <anchor x="83" y="0" name="bottom"/>
  <anchor x="197" y="536" name="top"/>
  <anchor x="316" y="536" name="topright"/>
  <outline>
    <contour>
      <point x="-35" y="0" type="line"/>
      <point x="203" y="0" type="line"/>
      <point x="219" y="67" type="line"/>
      <point x="67" y="67" type="line"/>
      <point x="299" y="481" type="line"/>
      <point x="311" y="536" type="line"/>
      <point x="88" y="536" type="line"/>
      <point x="74" y="470" type="line"/>
      <point x="211" y="470" type="line"/>
      <point x="-24" y="52" type="line"/>
    </contour>
  </outline>
</glyph>
<glyph name="braceleft" format="2">
  <advance width="322"/>
  <unicode hex="007B"/>
  <outline>
    <contour>
      <point x="204" y="-158" type="curve" smooth="yes"/>
      <point x="209" y="-158" type="line"/>
      <point x="211" y="-93" type="line"/>
      <point x="161" y="-92"/>
      <point x="143" y="-73"/>
      <point x="143" y="-30" type="curve" smooth="yes"/>
      <point x="143" y="-19"/>
      <point x="144" y="-6"/>
      <point x="147" y="10" type="curve" smooth="yes"/>
      <point x="175" y="142" type="line" smooth="yes"/>
      <point x="179" y="161"/>
      <point x="181" y="177"/>
      <point x="181" y="190" type="curve" smooth="yes"/>
      <point x="181" y="235"/>
      <point x="158" y="264"/>
      <point x="109" y="276" type="curve"/>
      <point x="109" y="279" type="line"/>
      <point x="180" y="290"/>
      <point x="216" y="331"/>
      <point x="230" y="398" type="curve" smooth="yes"/>
      <point x="264" y="559" type="line" smooth="yes"/>
      <point x="278" y="625"/>
      <point x="304" y="648"/>
      <point x="370" y="649" type="curve"/>
      <point x="386" y="714" type="line"/>
      <point x="383" y="714" type="line" smooth="yes"/>
      <point x="271" y="714"/>
      <point x="215" y="685"/>
      <point x="191" y="575" type="curve" smooth="yes"/>
      <point x="155" y="409" type="line" smooth="yes"/>
      <point x="140" y="341"/>
      <point x="106" y="311"/>
      <point x="37" y="311" type="curve"/>
      <point x="23" y="247" type="line"/>
      <point x="82" y="247"/>
      <point x="104" y="227"/>
      <point x="104" y="183" type="curve" smooth="yes"/>
      <point x="104" y="170"/>
      <point x="101" y="157"/>
      <point x="99" y="145" type="curve" smooth="yes"/>
      <point x="71" y="11" type="line" smooth="yes"/>
      <point x="67" y="-8"/>
      <point x="65" y="-25"/>
      <point x="65" y="-43" type="curve" smooth="yes"/>
      <point x="65" y="-117"/>
      <point x="106" y="-158"/>
    </contour>
  </outline>
</glyph>
<glyph name="bar" format="2">
  <advance width="359"/>
  <unicode hex="007C"/>
  <outline>
    <contour>
      <point x="142" y="-237" type="line"/>
      <point x="212" y="-237" type="line"/>
      <point x="212" y="764" type="line"/>
      <point x="142" y="764" type="line"/>
    </contour>
  </outline>
</glyph>
<glyph name="braceright" format="2">
  <advance width="321"/>
  <unicode hex="007D"/>
  <outline>
    <contour>
      <point x="-58" y="-93" type="curve"/>
      <point x="-59" y="-158" type="line"/>
      <point x="-56" y="-158" type="line" smooth="yes"/>
      <point x="53" y="-158"/>
      <point x="106" y="-127"/>
      <point x="129" y="-19" type="curve" smooth="yes"/>
      <point x="165" y="147" type="line" smooth="yes"/>
      <point x="180" y="214"/>
      <point x="214" y="245"/>
      <point x="283" y="245" type="curve"/>
      <point x="297" y="309" type="line"/>
      <point x="238" y="309"/>
      <point x="217" y="329"/>
      <point x="217" y="373" type="curve" smooth="yes"/>
      <point x="217" y="386"/>
      <point x="218" y="399"/>
      <point x="221" y="412" type="curve" smooth="yes"/>
      <point x="249" y="545" type="line" smooth="yes"/>
      <point x="253" y="564"/>
      <point x="256" y="586"/>
      <point x="256" y="602" type="curve" smooth="yes"/>
      <point x="256" y="675"/>
      <point x="220" y="714"/>
      <point x="127" y="714" type="curve" smooth="yes"/>
      <point x="121" y="714" type="line"/>
      <point x="107" y="649" type="line"/>
      <point x="156" y="648"/>
      <point x="177" y="628"/>
      <point x="177" y="585" type="curve" smooth="yes"/>
      <point x="177" y="574"/>
      <point x="176" y="561"/>
      <point x="173" y="546" type="curve" smooth="yes"/>
      <point x="145" y="415" type="line" smooth="yes"/>
      <point x="141" y="397"/>
      <point x="140" y="380"/>
      <point x="140" y="366" type="curve" smooth="yes"/>
      <point x="140" y="320"/>
      <point x="162" y="292"/>
      <point x="211" y="280" type="curve"/>
      <point x="211" y="277" type="line"/>
      <point x="140" y="266"/>
      <point x="104" y="225"/>
      <point x="90" y="158" type="curve" smooth="yes"/>
      <point x="56" y="-3" type="line" smooth="yes"/>
      <point x="43" y="-67"/>
      <point x="12" y="-93"/>
    </contour>
  </outline>
</glyph>
<glyph name="asciitilde" format="2">
  <advance width="419"/>
  <unicode hex="007E"/>
  <outline>
    <contour>
      <point x="220" y="320" type="curve" smooth="yes"/>
      <point x="255" y="300"/>
      <point x="279" y="291"/>
      <point x="318" y="291" type="curve" smooth="yes"/>
      <point x="355" y="291"/>
      <point x="387" y="309"/>
      <point x="412" y="340" type="curve"/>
      <point x="412" y="417" type="line"/>
      <point x="386" y="383"/>
      <point x="352" y="359"/>
      <point x="322" y="359" type="curve" smooth="yes"/>
      <point x="297" y="359"/>
      <point x="273" y="368"/>
      <point x="240" y="386" type="curve" smooth="yes"/>
      <point x="206" y="404"/>
      <point x="179" y="416"/>
      <point x="143" y="416" type="curve" smooth="yes"/>
      <point x="105" y="416"/>
      <point x="73" y="398"/>
      <point x="48" y="365" type="curve"/>
      <point x="48" y="288" type="line"/>
      <point x="77" y="325"/>
      <point x="110" y="347"/>
      <point x="139" y="347" type="curve" smooth="yes"/>
      <point x="162" y="347"/>
      <point x="190" y="337"/>
    </contour>
  </outline>
</glyph>
<glyph name="exclamdown" format="2">
  <advance width="231"/>
  <unicode hex="00A1"/>
  <outline>
    <contour>
      <point x="-22" y="-185" type="line"/>
      <point x="69" y="-185" type="line"/>
      <point x="167" y="335" type="line"/>
      <point x="103" y="335" type="line"/>
    </contour>
    <contour>
      <point x="154" y="419" type="curve" smooth="yes"/>
      <point x="196" y="419"/>
      <point x="220" y="457"/>
      <point x="220" y="499" type="curve" smooth="yes"/>
      <point x="220" y="527"/>
      <point x="203" y="542"/>
      <point x="177" y="542" type="curve" smooth="yes"/>
      <point x="142" y="542"/>
      <point x="115" y="508"/>
      <point x="115" y="463" type="curve" smooth="yes"/>
      <point x="115" y="436"/>
      <point x="130" y="419"/>
    </contour>
  </outline>
</glyph>
<glyph name="cent" format="2">
  <advance width="385"/>
  <unicode hex="00A2"/>
  <outline>
    <contour>
      <point x="148" y="92" type="curve"/>
      <point x="126" y="-10" type="line"/>
      <point x="180" y="-10" type="line"/>
      <point x="201" y="89" type="line"/>
      <point x="231" y="92"/>
      <point x="269" y="101"/>
      <point x="295" y="119" type="curve"/>
      <point x="276" y="179" type="line"/>
      <point x="254" y="165"/>
      <point x="229" y="156"/>
      <point x="204" y="156" type="curve" smooth="yes"/>
      <point x="163" y="156"/>
      <point x="142" y="184"/>
      <point x="142" y="254" type="curve" smooth="yes"/>
      <point x="142" y="385"/>
      <point x="197" y="575"/>
      <point x="294" y="575" type="curve" smooth="yes"/>
      <point x="312" y="575"/>
      <point x="334" y="567"/>
      <point x="350" y="556" type="curve"/>
      <point x="382" y="621" type="line"/>
      <point x="365" y="631"/>
      <point x="343" y="639"/>
      <point x="319" y="642" type="curve"/>
      <point x="336" y="724" type="line"/>
      <point x="282" y="724" type="line"/>
      <point x="265" y="641" type="line"/>
      <point x="124" y="615"/>
      <point x="63" y="391"/>
      <point x="63" y="249" type="curve" smooth="yes"/>
      <point x="63" y="156"/>
      <point x="90" y="106"/>
    </contour>
  </outline>
</glyph>
<glyph name="sterling" format="2">
  <advance width="386"/>
  <unicode hex="00A3"/>
  <outline>
    <contour>
      <point x="-8" y="66" type="curve"/>
      <point x="-22" y="0" type="line"/>
      <point x="290" y="0" type="line"/>
      <point x="305" y="72" type="line"/>
      <point x="81" y="72" type="line"/>
      <point x="118" y="96"/>
      <point x="146" y="139"/>
      <point x="161" y="210" type="curve" smooth="yes"/>
      <point x="186" y="326" type="line"/>
      <point x="294" y="326" type="line"/>
      <point x="308" y="390" type="line"/>
      <point x="198" y="390" type="line"/>
      <point x="230" y="542" type="line" smooth="yes"/>
      <point x="246" y="615"/>
      <point x="268" y="652"/>
      <point x="317" y="652" type="curve" smooth="yes"/>
      <point x="345" y="652"/>
      <point x="370" y="640"/>
      <point x="391" y="620" type="curve"/>
      <point x="429" y="684" type="line"/>
      <point x="397" y="711"/>
      <point x="361" y="724"/>
      <point x="318" y="724" type="curve" smooth="yes"/>
      <point x="224" y="724"/>
      <point x="179" y="660"/>
      <point x="156" y="556" type="curve" smooth="yes"/>
      <point x="120" y="390" type="line"/>
      <point x="56" y="390" type="line"/>
      <point x="43" y="326" type="line"/>
      <point x="107" y="326" type="line"/>
      <point x="82" y="209" type="line" smooth="yes"/>
      <point x="66" y="131"/>
      <point x="37" y="87"/>
    </contour>
  </outline>
</glyph>
<glyph name="currency" format="2">
  <advance width="495"/>
  <unicode hex="00A4"/>
  <outline>
    <contour>
      <point x="365" y="205" type="curve"/>
      <point x="428" y="142" type="line"/>
      <point x="465" y="179" type="line"/>
      <point x="404" y="243" type="line"/>
      <point x="428" y="276"/>
      <point x="440" y="313"/>
      <point x="440" y="354" type="curve" smooth="yes"/>
      <point x="440" y="393"/>
      <point x="428" y="430"/>
      <point x="404" y="463" type="curve"/>
      <point x="467" y="526" type="line"/>
      <point x="429" y="564" type="line"/>
      <point x="366" y="500" type="line"/>
      <point x="334" y="525"/>
      <point x="298" y="537"/>
      <point x="260" y="537" type="curve" smooth="yes"/>
      <point x="223" y="537"/>
      <point x="185" y="525"/>
      <point x="153" y="500" type="curve"/>
      <point x="91" y="564" type="line"/>
      <point x="52" y="526" type="line"/>
      <point x="115" y="462" type="line"/>
      <point x="90" y="428"/>
      <point x="78" y="391"/>
      <point x="78" y="352" type="curve" smooth="yes"/>
      <point x="78" y="314"/>
      <point x="90" y="277"/>
      <point x="114" y="244" type="curve"/>
      <point x="52" y="181" type="line"/>
      <point x="89" y="143" type="line"/>
      <point x="151" y="206" type="line"/>
      <point x="182" y="182"/>
      <point x="219" y="169"/>
      <point x="258" y="169" type="curve" smooth="yes"/>
      <point x="296" y="169"/>
      <point x="333" y="182"/>
    </contour>
    <contour>
      <point x="257" y="225" type="curve" smooth="yes"/>
      <point x="189" y="225"/>
      <point x="133" y="282"/>
      <point x="133" y="353" type="curve" smooth="yes"/>
      <point x="133" y="424"/>
      <point x="191" y="482"/>
      <point x="260" y="482" type="curve" smooth="yes"/>
      <point x="327" y="482"/>
      <point x="386" y="422"/>
      <point x="385" y="353" type="curve" smooth="yes"/>
      <point x="384" y="284"/>
      <point x="329" y="225"/>
    </contour>
  </outline>
</glyph>
<glyph name="yen" format="2">
  <advance width="381"/>
  <unicode hex="00A5"/>
  <outline>
    <contour>
      <point x="86" y="0" type="line"/>
      <point x="164" y="0" type="line"/>
      <point x="193" y="132" type="line"/>
      <point x="292" y="132" type="line"/>
      <point x="304" y="189" type="line"/>
      <point x="204" y="189" type="line"/>
      <point x="223" y="276" type="line"/>
      <point x="322" y="276" type="line"/>
      <point x="335" y="333" type="line"/>
      <point x="248" y="333" type="line"/>
      <point x="435" y="714" type="line"/>
      <point x="354" y="714" type="line"/>
      <point x="209" y="391" type="line"/>
      <point x="197" y="714" type="line"/>
      <point x="118" y="714" type="line"/>
      <point x="145" y="333" type="line"/>
      <point x="60" y="333" type="line"/>
      <point x="48" y="276" type="line"/>
      <point x="144" y="276" type="line"/>
      <point x="126" y="189" type="line"/>
      <point x="29" y="189" type="line"/>
      <point x="17" y="132" type="line"/>
      <point x="114" y="132" type="line"/>
    </contour>
  </outline>
</glyph>
<glyph name="brokenbar" format="2">
  <advance width="359"/>
  <unicode hex="00A6"/>
  <outline>
    <contour>
      <point x="144" y="382" type="line"/>
      <point x="214" y="382" type="line"/>
      <point x="214" y="763" type="line"/>
      <point x="144" y="763" type="line"/>
    </contour>
    <contour>
      <point x="144" y="-237" type="line"/>
      <point x="214" y="-237" type="line"/>
      <point x="214" y="144" type="line"/>
      <point x="144" y="144" type="line"/>
    </contour>
  </outline>
</glyph>
<glyph name="section" format="2">
  <advance width="340"/>
  <unicode hex="00A7"/>
  <outline>
    <contour>
      <point x="109" y="30" type="curve" smooth="yes"/>
      <point x="201" y="30"/>
      <point x="267" y="96"/>
      <point x="267" y="187" type="curve" smooth="yes"/>
      <point x="267" y="224"/>
      <point x="252" y="254"/>
      <point x="231" y="277" type="curve"/>
      <point x="288" y="315"/>
      <point x="318" y="357"/>
      <point x="318" y="420" type="curve" smooth="yes"/>
      <point x="318" y="464"/>
      <point x="294" y="497"/>
      <point x="236" y="540" type="curve" smooth="yes"/>
      <point x="202" y="565"/>
      <point x="179" y="587"/>
      <point x="179" y="624" type="curve" smooth="yes"/>
      <point x="179" y="672"/>
      <point x="214" y="702"/>
      <point x="258" y="702" type="curve" smooth="yes"/>
      <point x="288" y="702"/>
      <point x="318" y="692"/>
      <point x="343" y="671" type="curve"/>
      <point x="375" y="725" type="line"/>
      <point x="344" y="748"/>
      <point x="304" y="760"/>
      <point x="256" y="760" type="curve" smooth="yes"/>
      <point x="166" y="760"/>
      <point x="108" y="696"/>
      <point x="108" y="620" type="curve" smooth="yes"/>
      <point x="108" y="582"/>
      <point x="120" y="552"/>
      <point x="148" y="524" type="curve"/>
      <point x="87" y="494"/>
      <point x="53" y="452"/>
      <point x="53" y="391" type="curve" smooth="yes"/>
      <point x="53" y="332"/>
      <point x="92" y="296"/>
      <point x="137" y="264" type="curve" smooth="yes"/>
      <point x="174" y="237"/>
      <point x="195" y="214"/>
      <point x="195" y="179" type="curve" smooth="yes"/>
      <point x="195" y="126"/>
      <point x="157" y="89"/>
      <point x="105" y="89" type="curve" smooth="yes"/>
      <point x="70" y="89"/>
      <point x="28" y="102"/>
      <point x="-3" y="127" type="curve"/>
      <point x="-3" y="58" type="line"/>
      <point x="22" y="41"/>
      <point x="62" y="30"/>
    </contour>
    <contour>
      <point x="196" y="309" type="curve"/>
      <point x="147" y="343"/>
      <point x="123" y="368"/>
      <point x="123" y="405" type="curve" smooth="yes"/>
      <point x="123" y="445"/>
      <point x="144" y="476"/>
      <point x="186" y="494" type="curve"/>
      <point x="233" y="460"/>
      <point x="248" y="440"/>
      <point x="248" y="404" type="curve" smooth="yes"/>
      <point x="248" y="366"/>
      <point x="230" y="333"/>
    </contour>
  </outline>
</glyph>
<glyph name="dieresis" format="2">
  <advance width="460"/>
  <unicode hex="00A8"/>
  <outline>
    <contour>
      <point x="353" y="631" type="curve" smooth="yes"/>
      <point x="382" y="631"/>
      <point x="404" y="659"/>
      <point x="404" y="698" type="curve" smooth="yes"/>
      <point x="404" y="721"/>
      <point x="392" y="733"/>
      <point x="372" y="733" type="curve" smooth="yes"/>
      <point x="339" y="733"/>
      <point x="319" y="702"/>
      <point x="319" y="668" type="curve" smooth="yes"/>
      <point x="319" y="643"/>
      <point x="331" y="631"/>
    </contour>
    <contour>
      <point x="206" y="631" type="curve" smooth="yes"/>
      <point x="235" y="631"/>
      <point x="257" y="659"/>
      <point x="257" y="698" type="curve" smooth="yes"/>
      <point x="257" y="721"/>
      <point x="245" y="733"/>
      <point x="225" y="733" type="curve" smooth="yes"/>
      <point x="191" y="733"/>
      <point x="172" y="702"/>
      <point x="172" y="668" type="curve" smooth="yes"/>
      <point x="172" y="643"/>
      <point x="184" y="631"/>
    </contour>
  </outline>
</glyph>
<glyph name="copyright" format="2">
  <advance width="811"/>
  <unicode hex="00A9"/>
  <outline>
    <contour>
      <point x="416" y="-10" type="curve" smooth="yes"/>
      <point x="612" y="-10"/>
      <point x="777" y="153"/>
      <point x="777" y="358" type="curve" smooth="yes"/>
      <point x="777" y="554"/>
      <point x="621" y="724"/>
      <point x="419" y="724" type="curve" smooth="yes"/>
      <point x="228" y="724"/>
      <point x="58" y="564"/>
      <point x="58" y="356" type="curve" smooth="yes"/>
      <point x="58" y="165"/>
      <point x="205" y="-10"/>
    </contour>
    <contour>
      <point x="431" y="135" type="curve" smooth="yes"/>
      <point x="473" y="135"/>
      <point x="509" y="143"/>
      <point x="545" y="160" type="curve"/>
      <point x="545" y="217" type="line"/>
      <point x="507" y="201"/>
      <point x="473" y="193"/>
      <point x="437" y="193" type="curve" smooth="yes"/>
      <point x="350" y="193"/>
      <point x="304" y="244"/>
      <point x="304" y="356" type="curve" smooth="yes"/>
      <point x="304" y="460"/>
      <point x="355" y="520"/>
      <point x="438" y="520" type="curve" smooth="yes"/>
      <point x="472" y="520"/>
      <point x="505" y="512"/>
      <point x="536" y="497" type="curve"/>
      <point x="561" y="549" type="line"/>
      <point x="522" y="569"/>
      <point x="480" y="578"/>
      <point x="435" y="578" type="curve" smooth="yes"/>
      <point x="311" y="578"/>
      <point x="235" y="491"/>
      <point x="235" y="354" type="curve" smooth="yes"/>
      <point x="235" y="213"/>
      <point x="302" y="135"/>
    </contour>
    <contour>
      <point x="416" y="40" type="curve" smooth="yes"/>
      <point x="251" y="40"/>
      <point x="107" y="174"/>
      <point x="107" y="356" type="curve" smooth="yes"/>
      <point x="107" y="526"/>
      <point x="243" y="674"/>
      <point x="419" y="674" type="curve" smooth="yes"/>
      <point x="588" y="674"/>
      <point x="727" y="532"/>
      <point x="727" y="358" type="curve" smooth="yes"/>
      <point x="727" y="190"/>
      <point x="593" y="40"/>
    </contour>
  </outline>
</glyph>
<glyph name="ordfeminine" format="2">
  <advance width="266"/>
  <unicode hex="00AA"/>
  <anchor x="145" y="384" name="bottom"/>
  <anchor x="221" y="719" name="top"/>
  <outline>
    <contour>
      <point x="145" y="384" type="curve" smooth="yes"/>
      <point x="184" y="384"/>
      <point x="208" y="405"/>
      <point x="227" y="437" type="curve"/>
      <point x="230" y="437" type="line"/>
      <point x="224" y="390" type="line"/>
      <point x="268" y="390" type="line"/>
      <point x="336" y="715" type="line"/>
      <point x="295" y="715" type="line"/>
      <point x="279" y="673" type="line"/>
      <point x="275" y="673" type="line"/>
      <point x="266" y="700"/>
      <point x="249" y="721"/>
      <point x="211" y="721" type="curve" smooth="yes"/>
      <point x="117" y="721"/>
      <point x="66" y="602"/>
      <point x="66" y="496" type="curve" smooth="yes"/>
      <point x="66" y="413"/>
      <point x="108" y="384"/>
    </contour>
    <contour>
      <point x="160" y="434" type="curve" smooth="yes"/>
      <point x="138" y="434"/>
      <point x="125" y="455"/>
      <point x="125" y="501" type="curve" smooth="yes"/>
      <point x="125" y="581"/>
      <point x="157" y="671"/>
      <point x="207" y="671" type="curve" smooth="yes"/>
      <point x="236" y="671"/>
      <point x="249" y="646"/>
      <point x="249" y="602" type="curve" smooth="yes"/>
      <point x="249" y="545"/>
      <point x="222" y="434"/>
    </contour>
  </outline>
</glyph>
<glyph name="logicalnot" format="2">
  <advance width="419"/>
  <unicode hex="00AC"/>
  <outline>
    <contour>
      <point x="401" y="387" type="line"/>
      <point x="49" y="387" type="line"/>
      <point x="49" y="319" type="line"/>
      <point x="332" y="319" type="line"/>
      <point x="332" y="120" type="line"/>
      <point x="401" y="120" type="line"/>
    </contour>
  </outline>
</glyph>
<glyph name="registered" format="2">
  <advance width="811"/>
  <unicode hex="00AE"/>
  <outline>
    <contour>
      <point x="288" y="146" type="line"/>
      <point x="355" y="146" type="line"/>
      <point x="355" y="316" type="line"/>
      <point x="424" y="316" type="line"/>
      <point x="512" y="146" type="line"/>
      <point x="587" y="146" type="line"/>
      <point x="485" y="332" type="line"/>
      <point x="533" y="353"/>
      <point x="559" y="392"/>
      <point x="559" y="449" type="curve" smooth="yes"/>
      <point x="559" y="533"/>
      <point x="504" y="574"/>
      <point x="407" y="574" type="curve" smooth="yes"/>
      <point x="288" y="574" type="line"/>
    </contour>
    <contour>
      <point x="403" y="367" type="curve" smooth="yes"/>
      <point x="355" y="367" type="line"/>
      <point x="355" y="519" type="line"/>
      <point x="404" y="519" type="line" smooth="yes"/>
      <point x="462" y="519"/>
      <point x="491" y="496"/>
      <point x="491" y="446" type="curve" smooth="yes"/>
      <point x="491" y="392"/>
      <point x="457" y="367"/>
    </contour>
    <contour>
      <point x="416" y="-10" type="curve" smooth="yes"/>
      <point x="611" y="-10"/>
      <point x="777" y="153"/>
      <point x="777" y="358" type="curve" smooth="yes"/>
      <point x="777" y="554"/>
      <point x="620" y="724"/>
      <point x="419" y="724" type="curve" smooth="yes"/>
      <point x="228" y="724"/>
      <point x="58" y="564"/>
      <point x="58" y="356" type="curve" smooth="yes"/>
      <point x="58" y="164"/>
      <point x="206" y="-10"/>
    </contour>
    <contour>
      <point x="416" y="40" type="curve" smooth="yes"/>
      <point x="250" y="40"/>
      <point x="107" y="175"/>
      <point x="107" y="356" type="curve" smooth="yes"/>
      <point x="107" y="525"/>
      <point x="243" y="674"/>
      <point x="419" y="674" type="curve" smooth="yes"/>
      <point x="588" y="674"/>
      <point x="727" y="532"/>
      <point x="727" y="358" type="curve" smooth="yes"/>
      <point x="727" y="190"/>
      <point x="593" y="40"/>
    </contour>
  </outline>
</glyph>
<glyph name="overscore" format="2">
  <advance width="388"/>
  <unicode hex="00AF"/>
  <outline>
    <contour>
      <point x="94" y="760" type="line"/>
      <point x="488" y="760" type="line"/>
      <point x="501" y="821" type="line"/>
      <point x="108" y="821" type="line"/>
    </contour>
  </outline>
</glyph>
<glyph name="degree" format="2">
  <advance width="370"/>
  <unicode hex="00B0"/>
  <outline>
    <contour>
      <point x="234" y="422" type="curve" smooth="yes"/>
      <point x="319" y="422"/>
      <point x="384" y="487"/>
      <point x="384" y="573" type="curve" smooth="yes"/>
      <point x="384" y="657"/>
      <point x="320" y="724"/>
      <point x="235" y="724" type="curve" smooth="yes"/>
      <point x="154" y="724"/>
      <point x="86" y="661"/>
      <point x="86" y="571" type="curve" smooth="yes"/>
      <point x="86" y="485"/>
      <point x="150" y="422"/>
    </contour>
    <contour>
      <point x="234" y="478" type="curve" smooth="yes"/>
      <point x="185" y="478"/>
      <point x="145" y="520"/>
      <point x="145" y="572" type="curve" smooth="yes"/>
      <point x="145" y="624"/>
      <point x="183" y="667"/>
      <point x="235" y="667" type="curve" smooth="yes"/>
      <point x="285" y="667"/>
      <point x="325" y="625"/>
      <point x="325" y="572" type="curve" smooth="yes"/>
      <point x="325" y="521"/>
      <point x="284" y="478"/>
    </contour>
  </outline>
</glyph>
<glyph name="twosuperior" format="2">
  <advance width="274"/>
  <unicode hex="00B2"/>
  <outline>
    <contour>
      <point x="54" y="416" type="line"/>
      <point x="269" y="416" type="line"/>
      <point x="282" y="472" type="line"/>
      <point x="132" y="472" type="line"/>
      <point x="227" y="573" type="line" smooth="yes"/>
      <point x="280" y="629"/>
      <point x="334" y="689"/>
      <point x="334" y="762" type="curve" smooth="yes"/>
      <point x="334" y="818"/>
      <point x="299" y="855"/>
      <point x="242" y="855" type="curve" smooth="yes"/>
      <point x="199" y="855"/>
      <point x="161" y="839"/>
      <point x="130" y="809" type="curve"/>
      <point x="153" y="764" type="line"/>
      <point x="175" y="784"/>
      <point x="200" y="801"/>
      <point x="226" y="801" type="curve" smooth="yes"/>
      <point x="252" y="801"/>
      <point x="269" y="784"/>
      <point x="269" y="753" type="curve" smooth="yes"/>
      <point x="269" y="704"/>
      <point x="234" y="660"/>
      <point x="183" y="603" type="curve" smooth="yes"/>
      <point x="63" y="469" type="line"/>
    </contour>
  </outline>
</glyph>
<glyph name="threesuperior" format="2">
  <advance width="274"/>
  <unicode hex="00B3"/>
  <outline>
    <contour>
      <point x="152" y="408" type="curve" smooth="yes"/>
      <point x="243" y="408"/>
      <point x="299" y="466"/>
      <point x="299" y="551" type="curve" smooth="yes"/>
      <point x="299" y="596"/>
      <point x="279" y="623"/>
      <point x="249" y="637" type="curve"/>
      <point x="250" y="641" type="line"/>
      <point x="304" y="660"/>
      <point x="336" y="703"/>
      <point x="336" y="760" type="curve" smooth="yes"/>
      <point x="336" y="815"/>
      <point x="303" y="855"/>
      <point x="239" y="855" type="curve" smooth="yes"/>
      <point x="197" y="855"/>
      <point x="161" y="840"/>
      <point x="130" y="814" type="curve"/>
      <point x="154" y="770" type="line"/>
      <point x="178" y="789"/>
      <point x="201" y="800"/>
      <point x="228" y="800" type="curve" smooth="yes"/>
      <point x="256" y="800"/>
      <point x="273" y="782"/>
      <point x="273" y="750" type="curve" smooth="yes"/>
      <point x="273" y="702"/>
      <point x="241" y="663"/>
      <point x="186" y="663" type="curve" smooth="yes"/>
      <point x="156" y="663" type="line"/>
      <point x="146" y="612" type="line"/>
      <point x="178" y="612" type="line" smooth="yes"/>
      <point x="213" y="612"/>
      <point x="238" y="591"/>
      <point x="238" y="549" type="curve" smooth="yes"/>
      <point x="238" y="499"/>
      <point x="205" y="463"/>
      <point x="154" y="463" type="curve" smooth="yes"/>
      <point x="115" y="463"/>
      <point x="88" y="473"/>
      <point x="64" y="491" type="curve"/>
      <point x="64" y="430" type="line"/>
      <point x="85" y="416"/>
      <point x="114" y="408"/>
    </contour>
  </outline>
</glyph>
<glyph name="acute" format="2">
  <advance width="250"/>
  <unicode hex="00B4"/>
  <anchor x="158" y="530" name="_top"/>
  <outline>
    <contour>
      <point x="114" y="615" type="curve"/>
      <point x="113" y="606" type="line"/>
      <point x="164" y="606" type="line"/>
      <point x="202" y="637"/>
      <point x="286" y="719"/>
      <point x="314" y="758" type="curve"/>
      <point x="315" y="766" type="line"/>
      <point x="221" y="766" type="line"/>
      <point x="197" y="722"/>
      <point x="158" y="669"/>
    </contour>
  </outline>
</glyph>
<glyph name="micro" format="2">
  <advance width="404"/>
  <unicode hex="00B5"/>
  <outline>
    <contour>
      <point x="-52" y="-240" type="line"/>
      <point x="24" y="-240" type="line"/>
      <point x="67" y="-39" type="line" smooth="yes"/>
      <point x="72" y="-15"/>
      <point x="75" y="5"/>
      <point x="76" y="28" type="curve"/>
      <point x="78" y="28" type="line"/>
      <point x="89" y="4"/>
      <point x="106" y="-10"/>
      <point x="133" y="-10" type="curve" smooth="yes"/>
      <point x="171" y="-10"/>
      <point x="204" y="12"/>
      <point x="232" y="62" type="curve"/>
      <point x="234" y="62" type="line"/>
      <point x="230" y="0" type="line"/>
      <point x="291" y="0" type="line"/>
      <point x="404" y="536" type="line"/>
      <point x="327" y="536" type="line"/>
      <point x="265" y="244" type="line" smooth="yes"/>
      <point x="238" y="115"/>
      <point x="202" y="61"/>
      <point x="148" y="61" type="curve" smooth="yes"/>
      <point x="120" y="61"/>
      <point x="106" y="81"/>
      <point x="106" y="118" type="curve" smooth="yes"/>
      <point x="106" y="139"/>
      <point x="110" y="163"/>
      <point x="116" y="192" type="curve" smooth="yes"/>
      <point x="189" y="536" type="line"/>
      <point x="112" y="536" type="line"/>
    </contour>
  </outline>
</glyph>
<glyph name="paragraph" format="2">
  <advance width="448"/>
  <unicode hex="00B6"/>
  <outline>
    <contour>
      <point x="229" y="307" type="curve"/>
      <point x="229" y="-127" type="line"/>
      <point x="282" y="-127" type="line"/>
      <point x="282" y="708" type="line"/>
      <point x="346" y="708" type="line"/>
      <point x="346" y="-127" type="line"/>
      <point x="399" y="-127" type="line"/>
      <point x="399" y="760" type="line"/>
      <point x="227" y="760" type="line" smooth="yes"/>
      <point x="130" y="760"/>
      <point x="82" y="664"/>
      <point x="82" y="526" type="curve" smooth="yes"/>
      <point x="82" y="412"/>
      <point x="108" y="301"/>
      <point x="196" y="301" type="curve" smooth="yes"/>
      <point x="211" y="301"/>
      <point x="221" y="303"/>
    </contour>
  </outline>
</glyph>
<glyph name="cedilla" format="2">
  <advance width="183"/>
  <unicode hex="00B8"/>
  <outline>
    <contour>
      <point x="-13" y="-240" type="curve" smooth="yes"/>
      <point x="57" y="-240"/>
      <point x="110" y="-200"/>
      <point x="110" y="-127" type="curve" smooth="yes"/>
      <point x="110" y="-87"/>
      <point x="85" y="-60"/>
      <point x="43" y="-51" type="curve"/>
      <point x="77" y="0" type="line"/>
      <point x="30" y="0" type="line"/>
      <point x="-21" y="-80" type="line"/>
      <point x="25" y="-86"/>
      <point x="46" y="-102"/>
      <point x="46" y="-131" type="curve" smooth="yes"/>
      <point x="46" y="-166"/>
      <point x="21" y="-189"/>
      <point x="-22" y="-189" type="curve" smooth="yes"/>
      <point x="-46" y="-189"/>
      <point x="-64" y="-186"/>
      <point x="-75" y="-182" type="curve"/>
      <point x="-75" y="-233" type="line"/>
      <point x="-56" y="-238"/>
      <point x="-36" y="-240"/>
    </contour>
  </outline>
</glyph>
<glyph name="onesuperior" format="2">
  <advance width="274"/>
  <unicode hex="00B9"/>
  <outline>
    <contour>
      <point x="211" y="723" type="curve" smooth="yes"/>
      <point x="144" y="416" type="line"/>
      <point x="206" y="416" type="line"/>
      <point x="298" y="844" type="line"/>
      <point x="241" y="844" type="line"/>
      <point x="110" y="745" type="line"/>
      <point x="136" y="703" type="line"/>
      <point x="195" y="746" type="line" smooth="yes"/>
      <point x="202" y="751"/>
      <point x="211" y="759"/>
      <point x="223" y="770" type="curve"/>
      <point x="219" y="755"/>
      <point x="215" y="742"/>
    </contour>
  </outline>
</glyph>
<glyph name="ordmasculine" format="2">
  <advance width="274"/>
  <unicode hex="00BA"/>
  <anchor x="150" y="383" name="bottom"/>
  <anchor x="216" y="721" name="top"/>
  <outline>
    <contour>
      <point x="160" y="383" type="curve" smooth="yes"/>
      <point x="260" y="383"/>
      <point x="308" y="508"/>
      <point x="308" y="609" type="curve" smooth="yes"/>
      <point x="308" y="687"/>
      <point x="269" y="722"/>
      <point x="217" y="722" type="curve" smooth="yes"/>
      <point x="118" y="722"/>
      <point x="69" y="601"/>
      <point x="69" y="498" type="curve" smooth="yes"/>
      <point x="69" y="427"/>
      <point x="98" y="383"/>
    </contour>
    <contour>
      <point x="168" y="435" type="curve" smooth="yes"/>
      <point x="140" y="435"/>
      <point x="128" y="456"/>
      <point x="128" y="502" type="curve" smooth="yes"/>
      <point x="128" y="575"/>
      <point x="155" y="670"/>
      <point x="208" y="670" type="curve" smooth="yes"/>
      <point x="238" y="670"/>
      <point x="249" y="645"/>
      <point x="249" y="604" type="curve" smooth="yes"/>
      <point x="249" y="533"/>
      <point x="226" y="435"/>
    </contour>
  </outline>
</glyph>
<glyph name="AE" format="2">
  <advance width="546"/>
  <unicode hex="00C6"/>
  <anchor x="217" y="0" name="bottom"/>
  <anchor x="379" y="714" name="top"/>
  <outline>
    <contour>
      <point x="-66" y="0" type="line"/>
      <point x="19" y="0" type="line"/>
      <point x="123" y="228" type="line"/>
      <point x="235" y="228" type="line"/>
      <point x="186" y="0" type="line"/>
      <point x="441" y="0" type="line"/>
      <point x="457" y="72" type="line"/>
      <point x="281" y="72" type="line"/>
      <point x="337" y="337" type="line"/>
      <point x="501" y="337" type="line"/>
      <point x="518" y="409" type="line"/>
      <point x="353" y="409" type="line"/>
      <point x="402" y="642" type="line"/>
      <point x="577" y="642" type="line"/>
      <point x="592" y="714" type="line"/>
      <point x="270" y="714" type="line"/>
    </contour>
    <contour>
      <point x="156" y="301" type="line"/>
      <point x="310" y="641" type="line"/>
      <point x="323" y="641" type="line"/>
      <point x="251" y="301" type="line"/>
    </contour>
  </outline>
</glyph>
<glyph name="Eth" format="2">
  <advance width="457"/>
  <unicode hex="00D0"/>
  <anchor x="174" y="0" name="bottom"/>
  <anchor x="305" y="714" name="top"/>
  <outline>
    <contour>
      <point x="248" y="404" type="line"/>
      <point x="38" y="404" type="line"/>
      <point x="24" y="338" type="line"/>
      <point x="234" y="338" type="line"/>
    </contour>
    <component base="D"/>
  </outline>
</glyph>
<glyph name="multiply" format="2">
  <advance width="419"/>
  <unicode hex="00D7"/>
  <outline>
    <contour>
      <point x="361" y="537" type="line"/>
      <point x="229" y="400" type="line"/>
      <point x="97" y="535" type="line"/>
      <point x="51" y="488" type="line"/>
      <point x="181" y="353" type="line"/>
      <point x="51" y="217" type="line"/>
      <point x="97" y="170" type="line"/>
      <point x="229" y="306" type="line"/>
      <point x="360" y="171" type="line"/>
      <point x="406" y="217" type="line"/>
      <point x="277" y="353" type="line"/>
      <point x="409" y="491" type="line"/>
    </contour>
  </outline>
</glyph>
<glyph name="Oslash" format="2">
  <advance width="488"/>
  <unicode hex="00D8"/>
  <anchor x="179" y="-48" name="bottom"/>
  <anchor x="349" y="757" name="top"/>
  <outline>
    <contour>
      <point x="34" y="-48" type="line"/>
      <point x="86" y="34" type="line"/>
      <point x="109" y="5"/>
      <point x="143" y="-10"/>
      <point x="189" y="-10" type="curve" smooth="yes"/>
      <point x="394" y="-10"/>
      <point x="476" y="337"/>
      <point x="476" y="524" type="curve" smooth="yes"/>
      <point x="476" y="566"/>
      <point x="471" y="603"/>
      <point x="460" y="631" type="curve"/>
      <point x="522" y="730" type="line"/>
      <point x="479" y="757" type="line"/>
      <point x="431" y="678" type="line"/>
      <point x="406" y="709"/>
      <point x="372" y="724"/>
      <point x="326" y="724" type="curve" smooth="yes"/>
      <point x="131" y="724"/>
      <point x="36" y="414"/>
      <point x="36" y="198" type="curve" smooth="yes"/>
      <point x="36" y="150"/>
      <point x="42" y="111"/>
      <point x="55" y="80" type="curve"/>
      <point x="-9" y="-23" type="line"/>
    </contour>
    <contour>
      <point x="195" y="63" type="curve" smooth="yes"/>
      <point x="165" y="63"/>
      <point x="143" y="77"/>
      <point x="131" y="109" type="curve"/>
      <point x="391" y="529" type="line"/>
      <point x="392" y="519"/>
      <point x="391" y="508"/>
      <point x="390" y="495" type="curve" smooth="yes"/>
      <point x="380" y="335"/>
      <point x="320" y="63"/>
    </contour>
    <contour>
      <point x="383" y="603" type="curve"/>
      <point x="121" y="179" type="line"/>
      <point x="120" y="193"/>
      <point x="119" y="208"/>
      <point x="120" y="226" type="curve" smooth="yes"/>
      <point x="128" y="354"/>
      <point x="181" y="652"/>
      <point x="317" y="652" type="curve" smooth="yes"/>
      <point x="350" y="652"/>
      <point x="371" y="636"/>
    </contour>
  </outline>
</glyph>
<glyph name="Thorn" format="2">
  <advance width="394"/>
  <unicode hex="00DE"/>
  <anchor x="142" y="0" name="bottom"/>
  <anchor x="294" y="714" name="top"/>
  <outline>
    <contour>
      <point x="0" y="0" type="line"/>
      <point x="80" y="0" type="line"/>
      <point x="112" y="156" type="line"/>
      <point x="156" y="156" type="line" smooth="yes"/>
      <point x="303" y="156"/>
      <point x="392" y="279"/>
      <point x="392" y="436" type="curve" smooth="yes"/>
      <point x="392" y="530"/>
      <point x="335" y="590"/>
      <point x="230" y="590" type="curve" smooth="yes"/>
      <point x="205" y="590" type="line"/>
      <point x="231" y="714" type="line"/>
      <point x="151" y="714" type="line"/>
    </contour>
    <contour>
      <point x="156" y="227" type="curve" smooth="yes"/>
      <point x="128" y="227" type="line"/>
      <point x="190" y="518" type="line"/>
      <point x="219" y="518" type="line" smooth="yes"/>
      <point x="280" y="518"/>
      <point x="309" y="487"/>
      <point x="309" y="425" type="curve" smooth="yes"/>
      <point x="309" y="308"/>
      <point x="256" y="227"/>
    </contour>
  </outline>
</glyph>
<glyph name="germandbls" format="2">
  <advance width="406"/>
  <unicode hex="00DF"/>
  <anchor x="97" y="-240" name="bottom"/>
  <anchor x="310" y="765" name="top"/>
  <outline>
    <contour>
      <point x="-82" y="-240" type="curve" smooth="yes"/>
      <point x="11" y="-240"/>
      <point x="35" y="-161"/>
      <point x="57" y="-60" type="curve" smooth="yes"/>
      <point x="193" y="574" type="line" smooth="yes"/>
      <point x="211" y="656"/>
      <point x="238" y="696"/>
      <point x="284" y="696" type="curve" smooth="yes"/>
      <point x="315" y="696"/>
      <point x="334" y="677"/>
      <point x="334" y="642" type="curve" smooth="yes"/>
      <point x="334" y="587"/>
      <point x="307" y="554"/>
      <point x="264" y="508" type="curve" smooth="yes"/>
      <point x="224" y="465"/>
      <point x="201" y="424"/>
      <point x="201" y="375" type="curve" smooth="yes"/>
      <point x="201" y="338"/>
      <point x="215" y="307"/>
      <point x="239" y="264" type="curve" smooth="yes"/>
      <point x="263" y="222"/>
      <point x="275" y="191"/>
      <point x="275" y="156" type="curve" smooth="yes"/>
      <point x="275" y="97"/>
      <point x="245" y="59"/>
      <point x="196" y="59" type="curve" smooth="yes"/>
      <point x="170" y="59"/>
      <point x="141" y="68"/>
      <point x="115" y="89" type="curve"/>
      <point x="104" y="14" type="line"/>
      <point x="126" y="-1"/>
      <point x="159" y="-10"/>
      <point x="194" y="-10" type="curve" smooth="yes"/>
      <point x="294" y="-10"/>
      <point x="355" y="61"/>
      <point x="355" y="164" type="curve" smooth="yes"/>
      <point x="355" y="217"/>
      <point x="337" y="256"/>
      <point x="316" y="292" type="curve" smooth="yes"/>
      <point x="296" y="326"/>
      <point x="282" y="358"/>
      <point x="282" y="386" type="curve" smooth="yes"/>
      <point x="282" y="429"/>
      <point x="306" y="457"/>
      <point x="342" y="497" type="curve" smooth="yes"/>
      <point x="388" y="548"/>
      <point x="413" y="589"/>
      <point x="413" y="651" type="curve" smooth="yes"/>
      <point x="413" y="718"/>
      <point x="370" y="765"/>
      <point x="291" y="765" type="curve" smooth="yes"/>
      <point x="197" y="765"/>
      <point x="142" y="699"/>
      <point x="116" y="578" type="curve" smooth="yes"/>
      <point x="-18" y="-54" type="line" smooth="yes"/>
      <point x="-35" y="-134"/>
      <point x="-49" y="-170"/>
      <point x="-90" y="-170" type="curve" smooth="yes"/>
      <point x="-105" y="-170"/>
      <point x="-121" y="-167"/>
      <point x="-133" y="-163" type="curve"/>
      <point x="-133" y="-233" type="line"/>
      <point x="-117" y="-238"/>
      <point x="-101" y="-240"/>
    </contour>
  </outline>
</glyph>
<glyph name="ae" format="2">
  <advance width="606"/>
  <unicode hex="00E6"/>
  <anchor x="264" y="0" name="bottom"/>
  <anchor x="370" y="536" name="top"/>
  <outline>
    <contour>
      <point x="121" y="-10" type="curve" smooth="yes"/>
      <point x="171" y="-10"/>
      <point x="209" y="20"/>
      <point x="241" y="73" type="curve"/>
      <point x="243" y="73" type="line"/>
      <point x="231" y="0" type="line"/>
      <point x="287" y="0" type="line"/>
      <point x="300" y="66" type="line"/>
      <point x="312" y="18"/>
      <point x="347" y="-10"/>
      <point x="401" y="-10" type="curve" smooth="yes"/>
      <point x="445" y="-10"/>
      <point x="477" y="-1"/>
      <point x="513" y="21" type="curve"/>
      <point x="523" y="89" type="line"/>
      <point x="484" y="66"/>
      <point x="450" y="55"/>
      <point x="416" y="55" type="curve" smooth="yes"/>
      <point x="357" y="55"/>
      <point x="335" y="97"/>
      <point x="335" y="162" type="curve" smooth="yes"/>
      <point x="335" y="188"/>
      <point x="338" y="216"/>
      <point x="344" y="241" type="curve"/>
      <point x="350" y="241" type="line" smooth="yes"/>
      <point x="503" y="241"/>
      <point x="596" y="313"/>
      <point x="596" y="436" type="curve" smooth="yes"/>
      <point x="596" y="506"/>
      <point x="557" y="546"/>
      <point x="494" y="546" type="curve" smooth="yes"/>
      <point x="445" y="546"/>
      <point x="409" y="512"/>
      <point x="383" y="475" type="curve"/>
      <point x="395" y="536" type="line"/>
      <point x="339" y="536" type="line"/>
      <point x="322" y="474" type="line"/>
      <point x="320" y="474" type="line"/>
      <point x="306" y="524"/>
      <point x="277" y="546"/>
      <point x="237" y="546" type="curve" smooth="yes"/>
      <point x="111" y="546"/>
      <point x="24" y="328"/>
      <point x="24" y="138" type="curve" smooth="yes"/>
      <point x="24" y="43"/>
      <point x="60" y="-10"/>
    </contour>
    <contour>
      <point x="152" y="57" type="curve" smooth="yes"/>
      <point x="119" y="57"/>
      <point x="104" y="85"/>
      <point x="104" y="142" type="curve" smooth="yes"/>
      <point x="104" y="288"/>
      <point x="167" y="477"/>
      <point x="246" y="477" type="curve" smooth="yes"/>
      <point x="276" y="477"/>
      <point x="293" y="450"/>
      <point x="293" y="402" type="curve" smooth="yes"/>
      <point x="293" y="354"/>
      <point x="286" y="301"/>
      <point x="271" y="237" type="curve" smooth="yes"/>
      <point x="248" y="139"/>
      <point x="211" y="57"/>
    </contour>
    <contour>
      <point x="358" y="301" type="curve" smooth="yes"/>
      <point x="355" y="301" type="line"/>
      <point x="381" y="406"/>
      <point x="424" y="481"/>
      <point x="477" y="481" type="curve" smooth="yes"/>
      <point x="509" y="481"/>
      <point x="523" y="462"/>
      <point x="523" y="431" type="curve" smooth="yes"/>
      <point x="523" y="354"/>
      <point x="473" y="301"/>
    </contour>
  </outline>
</glyph>
<glyph name="eth" format="2">
  <advance width="398"/>
  <unicode hex="00F0"/>
  <anchor x="144" y="0" name="bottom"/>
  <anchor x="307" y="768" name="top"/>
  <outline>
    <contour>
      <point x="141" y="-10" type="curve" smooth="yes"/>
      <point x="319" y="-10"/>
      <point x="370" y="261"/>
      <point x="370" y="425" type="curve" smooth="yes"/>
      <point x="370" y="515"/>
      <point x="349" y="594"/>
      <point x="305" y="662" type="curve"/>
      <point x="398" y="721" type="line"/>
      <point x="371" y="760" type="line"/>
      <point x="276" y="699" type="line"/>
      <point x="249" y="727"/>
      <point x="222" y="750"/>
      <point x="192" y="768" type="curve"/>
      <point x="152" y="723" type="line"/>
      <point x="181" y="702"/>
      <point x="205" y="680"/>
      <point x="219" y="663" type="curve"/>
      <point x="124" y="603" type="line"/>
      <point x="149" y="563" type="line"/>
      <point x="244" y="623" type="line"/>
      <point x="287" y="564"/>
      <point x="298" y="489"/>
      <point x="298" y="393" type="curve"/>
      <point x="297" y="393" type="line"/>
      <point x="287" y="436"/>
      <point x="268" y="474"/>
      <point x="219" y="474" type="curve" smooth="yes"/>
      <point x="78" y="474"/>
      <point x="11" y="277"/>
      <point x="11" y="148" type="curve" smooth="yes"/>
      <point x="11" y="47"/>
      <point x="58" y="-10"/>
    </contour>
    <contour>
      <point x="148" y="57" type="curve" smooth="yes"/>
      <point x="110" y="57"/>
      <point x="90" y="87"/>
      <point x="90" y="152" type="curve" smooth="yes"/>
      <point x="90" y="261"/>
      <point x="137" y="406"/>
      <point x="220" y="406" type="curve" smooth="yes"/>
      <point x="258" y="406"/>
      <point x="278" y="371"/>
      <point x="278" y="310" type="curve" smooth="yes"/>
      <point x="278" y="207"/>
      <point x="231" y="57"/>
    </contour>
  </outline>
</glyph>
<glyph name="divide" format="2">
  <advance width="419"/>
  <unicode hex="00F7"/>
  <outline>
    <contour>
      <point x="49" y="319" type="line"/>
      <point x="408" y="319" type="line"/>
      <point x="408" y="387" type="line"/>
      <point x="49" y="387" type="line"/>
    </contour>
    <contour>
      <point x="230" y="112" type="curve" smooth="yes"/>
      <point x="259" y="112"/>
      <point x="279" y="132"/>
      <point x="279" y="174" type="curve" smooth="yes"/>
      <point x="279" y="215"/>
      <point x="262" y="236"/>
      <point x="230" y="236" type="curve" smooth="yes"/>
      <point x="197" y="236"/>
      <point x="180" y="215"/>
      <point x="180" y="174" type="curve" smooth="yes"/>
      <point x="180" y="133"/>
      <point x="198" y="112"/>
    </contour>
    <contour>
      <point x="230" y="469" type="curve" smooth="yes"/>
      <point x="259" y="469"/>
      <point x="279" y="489"/>
      <point x="279" y="531" type="curve" smooth="yes"/>
      <point x="279" y="572"/>
      <point x="262" y="593"/>
      <point x="230" y="593" type="curve" smooth="yes"/>
      <point x="197" y="593"/>
      <point x="180" y="572"/>
      <point x="180" y="531" type="curve" smooth="yes"/>
      <point x="180" y="490"/>
      <point x="198" y="469"/>
    </contour>
  </outline>
</glyph>
<glyph name="oslash" format="2">
  <advance width="400"/>
  <unicode hex="00F8"/>
  <anchor x="132" y="-60" name="bottom"/>
  <anchor x="269" y="584" name="top"/>
  <outline>
    <contour>
      <point x="27" y="-60" type="line"/>
      <point x="75" y="17" type="line"/>
      <point x="94" y="-1"/>
      <point x="120" y="-10"/>
      <point x="150" y="-10" type="curve" smooth="yes"/>
      <point x="316" y="-10"/>
      <point x="377" y="248"/>
      <point x="377" y="383" type="curve" smooth="yes"/>
      <point x="377" y="418"/>
      <point x="371" y="447"/>
      <point x="361" y="471" type="curve"/>
      <point x="416" y="558" type="line"/>
      <point x="374" y="584" type="line"/>
      <point x="331" y="513" type="line"/>
      <point x="311" y="535"/>
      <point x="285" y="546"/>
      <point x="253" y="546" type="curve" smooth="yes"/>
      <point x="82" y="546"/>
      <point x="25" y="277"/>
      <point x="25" y="151" type="curve" smooth="yes"/>
      <point x="25" y="112"/>
      <point x="31" y="81"/>
      <point x="43" y="56" type="curve"/>
      <point x="-14" y="-34" type="line"/>
    </contour>
    <contour>
      <point x="159" y="55" type="curve" smooth="yes"/>
      <point x="139" y="55"/>
      <point x="124" y="64"/>
      <point x="114" y="82" type="curve"/>
      <point x="299" y="383" type="line"/>
      <point x="300" y="374"/>
      <point x="300" y="363"/>
      <point x="300" y="353" type="curve" smooth="yes"/>
      <point x="297" y="229"/>
      <point x="242" y="55"/>
    </contour>
    <contour>
      <point x="291" y="448" type="curve"/>
      <point x="102" y="142" type="line"/>
      <point x="102" y="148"/>
      <point x="102" y="156"/>
      <point x="102" y="164" type="curve" smooth="yes"/>
      <point x="102" y="275"/>
      <point x="153" y="481"/>
      <point x="243" y="481" type="curve" smooth="yes"/>
      <point x="266" y="481"/>
      <point x="282" y="470"/>
    </contour>
  </outline>
</glyph>
<glyph name="thorn" format="2">
  <advance width="411"/>
  <unicode hex="00FE"/>
  <anchor x="101" y="-233" name="bottom"/>
  <anchor x="312" y="760" name="top"/>
  <outline>
    <contour>
      <point x="-48" y="-233" type="line"/>
      <point x="28" y="-233" type="line"/>
      <point x="76" y="-1" type="line" smooth="yes"/>
      <point x="80" y="17"/>
      <point x="85" y="43"/>
      <point x="88" y="66" type="curve"/>
      <point x="91" y="66" type="line"/>
      <point x="102" y="20"/>
      <point x="134" y="-10"/>
      <point x="178" y="-10" type="curve" smooth="yes"/>
      <point x="322" y="-10"/>
      <point x="392" y="246"/>
      <point x="392" y="398" type="curve" smooth="yes"/>
      <point x="392" y="497"/>
      <point x="355" y="546"/>
      <point x="291" y="546" type="curve" smooth="yes"/>
      <point x="246" y="546"/>
      <point x="208" y="517"/>
      <point x="177" y="468" type="curve"/>
      <point x="174" y="468" type="line"/>
      <point x="177" y="479"/>
      <point x="180" y="491"/>
      <point x="183" y="505" type="curve" smooth="yes"/>
      <point x="238" y="760" type="line"/>
      <point x="162" y="760" type="line"/>
    </contour>
    <contour>
      <point x="170" y="58" type="curve" smooth="yes"/>
      <point x="134" y="58"/>
      <point x="116" y="86"/>
      <point x="116" y="138" type="curve" smooth="yes"/>
      <point x="116" y="180"/>
      <point x="123" y="239"/>
      <point x="139" y="299" type="curve" smooth="yes"/>
      <point x="163" y="388"/>
      <point x="203" y="480"/>
      <point x="263" y="480" type="curve" smooth="yes"/>
      <point x="297" y="480"/>
      <point x="312" y="452"/>
      <point x="312" y="394" type="curve" smooth="yes"/>
      <point x="312" y="291"/>
      <point x="266" y="58"/>
    </contour>
  </outline>
</glyph>
<glyph name="dcroat" format="2">
  <advance width="415"/>
  <unicode hex="0111"/>
  <anchor x="154" y="0" name="bottom"/>
  <anchor x="315" y="760" name="top"/>
  <outline>
    <contour>
      <point x="125" y="-10" type="curve" smooth="yes"/>
      <point x="173" y="-10"/>
      <point x="207" y="20"/>
      <point x="243" y="74" type="curve"/>
      <point x="245" y="74" type="line"/>
      <point x="239" y="0" type="line"/>
      <point x="301" y="0" type="line"/>
      <point x="431" y="611" type="line"/>
      <point x="488" y="611" type="line"/>
      <point x="501" y="671" type="line"/>
      <point x="444" y="671" type="line"/>
      <point x="462" y="760" type="line"/>
      <point x="385" y="760" type="line"/>
      <point x="367" y="671" type="line"/>
      <point x="275" y="671" type="line"/>
      <point x="262" y="611" type="line"/>
      <point x="354" y="611" type="line"/>
      <point x="344" y="564" type="line" smooth="yes"/>
      <point x="338" y="535"/>
      <point x="333" y="505"/>
      <point x="328" y="473" type="curve"/>
      <point x="325" y="473" type="line"/>
      <point x="314" y="519"/>
      <point x="279" y="546"/>
      <point x="234" y="546" type="curve" smooth="yes"/>
      <point x="92" y="546"/>
      <point x="24" y="284"/>
      <point x="24" y="138" type="curve" smooth="yes"/>
      <point x="24" y="43"/>
      <point x="60" y="-10"/>
    </contour>
    <contour>
      <point x="152" y="57" type="curve" smooth="yes"/>
      <point x="119" y="57"/>
      <point x="104" y="85"/>
      <point x="104" y="142" type="curve" smooth="yes"/>
      <point x="104" y="255"/>
      <point x="155" y="477"/>
      <point x="246" y="477" type="curve" smooth="yes"/>
      <point x="283" y="477"/>
      <point x="300" y="450"/>
      <point x="300" y="401" type="curve" smooth="yes"/>
      <point x="300" y="309"/>
      <point x="257" y="57"/>
    </contour>
  </outline>
</glyph>
<glyph name="Hbar" format="2">
  <advance width="473"/>
  <unicode hex="0126"/>
  <anchor x="182" y="0" name="bottom"/>
  <anchor x="333" y="714" name="top"/>
  <outline>
    <contour>
      <point x="0" y="0" type="line"/>
      <point x="80" y="0" type="line"/>
      <point x="151" y="337" type="line"/>
      <point x="339" y="337" type="line"/>
      <point x="268" y="0" type="line"/>
      <point x="348" y="0" type="line"/>
      <point x="461" y="530" type="line"/>
      <point x="521" y="530" type="line"/>
      <point x="535" y="593" type="line"/>
      <point x="474" y="593" type="line"/>
      <point x="500" y="714" type="line"/>
      <point x="419" y="714" type="line"/>
      <point x="393" y="593" type="line"/>
      <point x="205" y="593" type="line"/>
      <point x="231" y="714" type="line"/>
      <point x="151" y="714" type="line"/>
      <point x="125" y="593" type="line"/>
      <point x="62" y="593" type="line"/>
      <point x="48" y="530" type="line"/>
      <point x="112" y="530" type="line"/>
    </contour>
    <contour>
      <point x="166" y="407" type="line"/>
      <point x="192" y="530" type="line"/>
      <point x="380" y="530" type="line"/>
      <point x="354" y="407" type="line"/>
    </contour>
  </outline>
</glyph>
<glyph name="hbar" format="2">
  <advance width="405"/>
  <unicode hex="0127"/>
  <anchor x="149" y="0" name="bottom"/>
  <anchor x="310" y="760" name="top"/>
  <outline>
    <contour>
      <point x="0" y="0" type="line"/>
      <point x="77" y="0" type="line"/>
      <point x="138" y="289" type="line" smooth="yes"/>
      <point x="164" y="411"/>
      <point x="199" y="468"/>
      <point x="255" y="468" type="curve" smooth="yes"/>
      <point x="282" y="468"/>
      <point x="298" y="451"/>
      <point x="298" y="421" type="curve" smooth="yes"/>
      <point x="298" y="392"/>
      <point x="291" y="355"/>
      <point x="283" y="320" type="curve" smooth="yes"/>
      <point x="215" y="0" type="line"/>
      <point x="292" y="0" type="line"/>
      <point x="362" y="331" type="line" smooth="yes"/>
      <point x="370" y="366"/>
      <point x="377" y="409"/>
      <point x="377" y="438" type="curve" smooth="yes"/>
      <point x="377" y="504"/>
      <point x="343" y="539"/>
      <point x="286" y="539" type="curve" smooth="yes"/>
      <point x="238" y="539"/>
      <point x="200" y="512"/>
      <point x="171" y="461" type="curve"/>
      <point x="169" y="461" type="line"/>
      <point x="177" y="489"/>
      <point x="186" y="518"/>
      <point x="206" y="611" type="curve"/>
      <point x="298" y="611" type="line"/>
      <point x="310" y="671" type="line"/>
      <point x="219" y="671" type="line"/>
      <point x="238" y="760" type="line"/>
      <point x="161" y="760" type="line"/>
      <point x="142" y="671" type="line"/>
      <point x="83" y="671" type="line"/>
      <point x="70" y="611" type="line"/>
      <point x="130" y="611" type="line"/>
    </contour>
  </outline>
</glyph>
<glyph name="kgreenlandic" format="2">
  <advance width="357"/>
  <unicode hex="0138"/>
  <anchor x="124" y="0" name="bottom"/>
  <anchor x="236" y="529" name="top"/>
  <outline>
    <contour>
      <point x="0" y="0" type="line"/>
      <point x="77" y="0" type="line"/>
      <point x="116" y="189" type="line"/>
      <point x="176" y="255" type="line"/>
      <point x="216" y="0" type="line"/>
      <point x="298" y="0" type="line"/>
      <point x="243" y="319" type="line"/>
      <point x="402" y="536" type="line"/>
      <point x="318" y="536" type="line"/>
      <point x="136" y="286" type="line"/>
      <point x="134" y="286" type="line"/>
      <point x="146" y="330"/>
      <point x="154" y="365"/>
      <point x="160" y="392" type="curve" smooth="yes"/>
      <point x="192" y="536" type="line"/>
      <point x="115" y="536" type="line"/>
    </contour>
  </outline>
</glyph>
<glyph name="Lslash" format="2">
  <advance width="338"/>
  <unicode hex="0141"/>
  <anchor x="114" y="0" name="bottom"/>
  <anchor x="265" y="714" name="top"/>
  <outline>
    <contour>
      <point x="7" y="0" type="line"/>
      <point x="260" y="0" type="line"/>
      <point x="274" y="72" type="line"/>
      <point x="103" y="72" type="line"/>
      <point x="157" y="330" type="line"/>
      <point x="300" y="421" type="line"/>
      <point x="268" y="472" type="line"/>
      <point x="176" y="415" type="line"/>
      <point x="239" y="714" type="line"/>
      <point x="159" y="714" type="line"/>
      <point x="83" y="353" type="line"/>
      <point x="-21" y="288" type="line"/>
      <point x="9" y="236" type="line"/>
      <point x="64" y="269" type="line"/>
    </contour>
  </outline>
</glyph>
<glyph name="lslash" format="2">
  <advance width="214"/>
  <unicode hex="0142"/>
  <anchor x="53" y="0" name="bottom"/>
  <anchor x="214" y="760" name="top"/>
  <outline>
    <contour>
      <point x="8" y="0" type="line"/>
      <point x="84" y="0" type="line"/>
      <point x="161" y="361" type="line"/>
      <point x="270" y="423" type="line"/>
      <point x="246" y="476" type="line"/>
      <point x="178" y="436" type="line"/>
      <point x="246" y="760" type="line"/>
      <point x="169" y="760" type="line"/>
      <point x="92" y="395" type="line"/>
      <point x="-4" y="341" type="line"/>
      <point x="20" y="287" type="line"/>
      <point x="76" y="320" type="line"/>
    </contour>
  </outline>
</glyph>
<glyph name="Eng" format="2">
  <advance width="504"/>
  <unicode hex="014A"/>
  <anchor x="157" y="-191" name="bottom"/>
  <anchor x="349" y="714" name="top"/>
  <outline>
    <contour>
      <point x="217" y="-191" type="curve" smooth="yes"/>
      <point x="322" y="-191"/>
      <point x="354" y="-114"/>
      <point x="380" y="7" type="curve" smooth="yes"/>
      <point x="531" y="714" type="line"/>
      <point x="453" y="714" type="line"/>
      <point x="361" y="276" type="line" smooth="yes"/>
      <point x="352" y="235"/>
      <point x="346" y="197"/>
      <point x="340" y="160" type="curve"/>
      <point x="337" y="160" type="line"/>
      <point x="248" y="714" type="line"/>
      <point x="151" y="714" type="line"/>
      <point x="0" y="0" type="line"/>
      <point x="76" y="0" type="line"/>
      <point x="171" y="454" type="line" smooth="yes"/>
      <point x="180" y="498"/>
      <point x="190" y="546"/>
      <point x="195" y="587" type="curve"/>
      <point x="198" y="587" type="line"/>
      <point x="297" y="-7" type="line"/>
      <point x="285" y="-81"/>
      <point x="263" y="-117"/>
      <point x="221" y="-117" type="curve" smooth="yes"/>
      <point x="202" y="-117"/>
      <point x="187" y="-113"/>
      <point x="172" y="-105" type="curve"/>
      <point x="156" y="-178" type="line"/>
      <point x="171" y="-186"/>
      <point x="195" y="-191"/>
    </contour>
  </outline>
</glyph>
<glyph name="eng" format="2">
  <advance width="403"/>
  <unicode hex="014B"/>
  <anchor x="96" y="-240" name="bottom"/>
  <anchor x="263" y="546" name="top"/>
  <anchor x="441" y="536" name="topright"/>
  <outline>
    <contour>
      <point x="137" y="-240" type="curve" smooth="yes"/>
      <point x="221" y="-240"/>
      <point x="251" y="-190"/>
      <point x="281" y="-50" type="curve" smooth="yes"/>
      <point x="365" y="344" type="line" smooth="yes"/>
      <point x="372" y="378"/>
      <point x="379" y="418"/>
      <point x="379" y="446" type="curve" smooth="yes"/>
      <point x="379" y="515"/>
      <point x="339" y="546"/>
      <point x="285" y="546" type="curve" smooth="yes"/>
      <point x="238" y="546"/>
      <point x="198" y="517"/>
      <point x="169" y="464" type="curve"/>
      <point x="166" y="464" type="line"/>
      <point x="176" y="536" type="line"/>
      <point x="113" y="536" type="line"/>
      <point x="-1" y="0" type="line"/>
      <point x="76" y="0" type="line"/>
      <point x="139" y="295" type="line" smooth="yes"/>
      <point x="163" y="409"/>
      <point x="199" y="475"/>
      <point x="257" y="475" type="curve" smooth="yes"/>
      <point x="285" y="475"/>
      <point x="299" y="458"/>
      <point x="299" y="428" type="curve" smooth="yes"/>
      <point x="299" y="402"/>
      <point x="292" y="365"/>
      <point x="285" y="333" type="curve" smooth="yes"/>
      <point x="206" y="-44" type="line" smooth="yes"/>
      <point x="185" y="-143"/>
      <point x="171" y="-170"/>
      <point x="129" y="-170" type="curve" smooth="yes"/>
      <point x="116" y="-170"/>
      <point x="99" y="-168"/>
      <point x="87" y="-163" type="curve"/>
      <point x="87" y="-233" type="line"/>
      <point x="100" y="-237"/>
      <point x="116" y="-240"/>
    </contour>
  </outline>
</glyph>
<glyph name="OE" format="2">
  <advance width="572"/>
  <unicode hex="0152"/>
  <anchor x="231" y="0" name="bottom"/>
  <anchor x="382" y="714" name="top"/>
  <outline>
    <contour>
      <point x="188" y="-5" type="curve" smooth="yes"/>
      <point x="214" y="-5"/>
      <point x="237" y="0"/>
      <point x="250" y="0" type="curve" smooth="yes"/>
      <point x="469" y="0" type="line"/>
      <point x="484" y="72" type="line"/>
      <point x="309" y="72" type="line"/>
      <point x="365" y="337" type="line"/>
      <point x="529" y="337" type="line"/>
      <point x="544" y="409" type="line"/>
      <point x="381" y="409" type="line"/>
      <point x="429" y="642" type="line"/>
      <point x="604" y="642" type="line"/>
      <point x="620" y="714" type="line"/>
      <point x="398" y="714" type="line" smooth="yes"/>
      <point x="381" y="714"/>
      <point x="350" y="719"/>
      <point x="320" y="719" type="curve" smooth="yes"/>
      <point x="111" y="719"/>
      <point x="35" y="391"/>
      <point x="35" y="195" type="curve" smooth="yes"/>
      <point x="35" y="71"/>
      <point x="85" y="-5"/>
    </contour>
    <contour>
      <point x="205" y="68" type="curve" smooth="yes"/>
      <point x="142" y="68"/>
      <point x="118" y="111"/>
      <point x="118" y="201" type="curve" smooth="yes"/>
      <point x="118" y="364"/>
      <point x="184" y="647"/>
      <point x="317" y="647" type="curve" smooth="yes"/>
      <point x="333" y="647"/>
      <point x="342" y="644"/>
      <point x="350" y="642" type="curve"/>
      <point x="230" y="70" type="line"/>
      <point x="225" y="69"/>
      <point x="216" y="68"/>
    </contour>
  </outline>
</glyph>
<glyph name="oe" format="2">
  <advance width="620"/>
  <unicode hex="0153"/>
  <anchor x="256" y="0" name="bottom"/>
  <anchor x="372" y="546" name="top"/>
  <outline>
    <contour>
      <point x="146" y="-10" type="curve" smooth="yes"/>
      <point x="208" y="-10"/>
      <point x="256" y="31"/>
      <point x="291" y="100" type="curve"/>
      <point x="304" y="27"/>
      <point x="342" y="-10"/>
      <point x="408" y="-10" type="curve" smooth="yes"/>
      <point x="453" y="-10"/>
      <point x="493" y="2"/>
      <point x="529" y="23" type="curve"/>
      <point x="529" y="86" type="line"/>
      <point x="496" y="66"/>
      <point x="463" y="55"/>
      <point x="428" y="55" type="curve" smooth="yes"/>
      <point x="374" y="55"/>
      <point x="348" y="88"/>
      <point x="348" y="162" type="curve" smooth="yes"/>
      <point x="348" y="187"/>
      <point x="350" y="214"/>
      <point x="355" y="241" type="curve"/>
      <point x="363" y="241" type="line" smooth="yes"/>
      <point x="516" y="241"/>
      <point x="608" y="316"/>
      <point x="608" y="436" type="curve" smooth="yes"/>
      <point x="608" y="508"/>
      <point x="567" y="546"/>
      <point x="502" y="546" type="curve" smooth="yes"/>
      <point x="444" y="546"/>
      <point x="390" y="504"/>
      <point x="352" y="434" type="curve"/>
      <point x="344" y="508"/>
      <point x="312" y="546"/>
      <point x="250" y="546" type="curve" smooth="yes"/>
      <point x="79" y="546"/>
      <point x="25" y="273"/>
      <point x="25" y="153" type="curve" smooth="yes"/>
      <point x="25" y="47"/>
      <point x="71" y="-10"/>
    </contour>
    <contour>
      <point x="159" y="57" type="curve" smooth="yes"/>
      <point x="122" y="57"/>
      <point x="103" y="87"/>
      <point x="103" y="148" type="curve" smooth="yes"/>
      <point x="103" y="267"/>
      <point x="152" y="478"/>
      <point x="243" y="478" type="curve" smooth="yes"/>
      <point x="280" y="478"/>
      <point x="299" y="448"/>
      <point x="299" y="388" type="curve" smooth="yes"/>
      <point x="299" y="265"/>
      <point x="247" y="57"/>
    </contour>
    <contour>
      <point x="371" y="301" type="curve" smooth="yes"/>
      <point x="367" y="301" type="line"/>
      <point x="383" y="385"/>
      <point x="433" y="481"/>
      <point x="491" y="481" type="curve" smooth="yes"/>
      <point x="522" y="481"/>
      <point x="535" y="462"/>
      <point x="535" y="431" type="curve" smooth="yes"/>
      <point x="535" y="354"/>
      <point x="488" y="301"/>
    </contour>
  </outline>
</glyph>
<glyph name="Tbar" format="2">
  <advance width="339"/>
  <unicode hex="0166"/>
  <anchor x="115" y="0" name="bottom"/>
  <anchor x="266" y="714" name="top"/>
  <outline>
    <contour>
      <point x="65" y="0" type="line"/>
      <point x="146" y="0" type="line"/>
      <point x="216" y="334" type="line"/>
      <point x="308" y="334" type="line"/>
      <point x="320" y="396" type="line"/>
      <point x="229" y="396" type="line"/>
      <point x="281" y="641" type="line"/>
      <point x="401" y="641" type="line"/>
      <point x="418" y="714" type="line"/>
      <point x="97" y="714" type="line"/>
      <point x="81" y="641" type="line"/>
      <point x="201" y="641" type="line"/>
      <point x="149" y="396" type="line"/>
      <point x="63" y="396" type="line"/>
      <point x="50" y="334" type="line"/>
      <point x="136" y="334" type="line"/>
    </contour>
  </outline>
</glyph>
<glyph name="tbar" format="2">
  <advance width="233"/>
  <unicode hex="0167"/>
  <anchor x="62" y="0" name="bottom"/>
  <anchor x="202" y="658" name="top"/>
  <outline>
    <contour>
      <point x="100" y="-10" type="curve" smooth="yes"/>
      <point x="123" y="-10"/>
      <point x="152" y="-5"/>
      <point x="174" y="5" type="curve"/>
      <point x="174" y="68" type="line"/>
      <point x="159" y="62"/>
      <point x="144" y="59"/>
      <point x="133" y="59" type="curve" smooth="yes"/>
      <point x="111" y="59"/>
      <point x="101" y="70"/>
      <point x="101" y="96" type="curve" smooth="yes"/>
      <point x="101" y="109"/>
      <point x="104" y="126"/>
      <point x="108" y="146" type="curve" smooth="yes"/>
      <point x="136" y="279" type="line"/>
      <point x="214" y="279" type="line"/>
      <point x="228" y="340" type="line"/>
      <point x="149" y="340" type="line"/>
      <point x="177" y="470" type="line"/>
      <point x="253" y="470" type="line"/>
      <point x="267" y="536" type="line"/>
      <point x="191" y="536" type="line"/>
      <point x="217" y="658" type="line"/>
      <point x="162" y="658" type="line"/>
      <point x="119" y="535" type="line"/>
      <point x="63" y="514" type="line"/>
      <point x="54" y="470" type="line"/>
      <point x="101" y="470" type="line"/>
      <point x="73" y="340" type="line"/>
      <point x="22" y="340" type="line"/>
      <point x="9" y="279" type="line"/>
      <point x="60" y="279" type="line"/>
      <point x="32" y="147" type="line" smooth="yes"/>
      <point x="26" y="119"/>
      <point x="23" y="96"/>
      <point x="23" y="78" type="curve" smooth="yes"/>
      <point x="23" y="24"/>
      <point x="47" y="-10"/>
    </contour>
  </outline>
</glyph>
<glyph name="longs" format="2">
  <advance width="200"/>
  <unicode hex="017F"/>
  <anchor x="-84" y="-240" name="bottom"/>
  <anchor x="268" y="765" name="top"/>
  <outline>
    <contour>
      <point x="-79" y="-240" type="curve" smooth="yes"/>
      <point x="13" y="-240"/>
      <point x="39" y="-162"/>
      <point x="61" y="-61" type="curve"/>
      <point x="198" y="578" type="line"/>
      <point x="211" y="640"/>
      <point x="223" y="696"/>
      <point x="268" y="696" type="curve" smooth="yes"/>
      <point x="280" y="696"/>
      <point x="294" y="693"/>
      <point x="307" y="686" type="curve"/>
      <point x="336" y="749" type="line"/>
      <point x="314" y="760"/>
      <point x="289" y="765"/>
      <point x="264" y="765" type="curve" smooth="yes"/>
      <point x="173" y="765"/>
      <point x="144" y="689"/>
      <point x="124" y="593" type="curve"/>
      <point x="-14" y="-55" type="line"/>
      <point x="-30" y="-129"/>
      <point x="-41" y="-170"/>
      <point x="-86" y="-170" type="curve" smooth="yes"/>
      <point x="-101" y="-170"/>
      <point x="-118" y="-168"/>
      <point x="-129" y="-163" type="curve"/>
      <point x="-129" y="-233" type="line"/>
      <point x="-113" y="-238"/>
      <point x="-97" y="-240"/>
    </contour>
  </outline>
</glyph>
<glyph name="Ohorn" format="2">
  <advance width="494"/>
  <unicode hex="01A0"/>
  <anchor x="192" y="0" name="bottom"/>
  <anchor x="323" y="714" name="top"/>
  <outline>
    <contour>
      <point x="188" y="-10" type="curve" smooth="yes"/>
      <point x="375" y="-10"/>
      <point x="475" y="296"/>
      <point x="475" y="523" type="curve" smooth="yes"/>
      <point x="475" y="537"/>
      <point x="474" y="549"/>
      <point x="473" y="562" type="curve"/>
      <point x="552" y="593"/>
      <point x="595" y="656"/>
      <point x="612" y="749" type="curve"/>
      <point x="608" y="760" type="line"/>
      <point x="539" y="760" type="line"/>
      <point x="528" y="691"/>
      <point x="502" y="644"/>
      <point x="460" y="623" type="curve"/>
      <point x="440" y="691"/>
      <point x="395" y="724"/>
      <point x="324" y="724" type="curve" smooth="yes"/>
      <point x="133" y="724"/>
      <point x="35" y="418"/>
      <point x="35" y="198" type="curve" smooth="yes"/>
      <point x="35" y="56"/>
      <point x="85" y="-10"/>
    </contour>
    <contour>
      <point x="194" y="63" type="curve" smooth="yes"/>
      <point x="144" y="63"/>
      <point x="118" y="103"/>
      <point x="118" y="197" type="curve" smooth="yes"/>
      <point x="118" y="358"/>
      <point x="187" y="652"/>
      <point x="317" y="652" type="curve" smooth="yes"/>
      <point x="368" y="652"/>
      <point x="393" y="611"/>
      <point x="393" y="525" type="curve" smooth="yes"/>
      <point x="393" y="367"/>
      <point x="325" y="63"/>
    </contour>
  </outline>
</glyph>
<glyph name="ohorn" format="2">
  <advance width="417"/>
  <unicode hex="01A1"/>
  <anchor x="154" y="0" name="bottom"/>
  <anchor x="266" y="529" name="top"/>
  <outline>
    <contour>
      <point x="146" y="-10" type="curve" smooth="yes"/>
      <point x="293" y="-10"/>
      <point x="372" y="213"/>
      <point x="372" y="383" type="curve" smooth="yes"/>
      <point x="372" y="393"/>
      <point x="372" y="406"/>
      <point x="370" y="421" type="curve"/>
      <point x="443" y="447"/>
      <point x="484" y="509"/>
      <point x="502" y="604" type="curve"/>
      <point x="499" y="615" type="line"/>
      <point x="429" y="615" type="line"/>
      <point x="418" y="544"/>
      <point x="395" y="496"/>
      <point x="355" y="474" type="curve"/>
      <point x="335" y="522"/>
      <point x="299" y="546"/>
      <point x="248" y="546" type="curve" smooth="yes"/>
      <point x="98" y="546"/>
      <point x="20" y="320"/>
      <point x="20" y="151" type="curve" smooth="yes"/>
      <point x="20" y="48"/>
      <point x="66" y="-10"/>
    </contour>
    <contour>
      <point x="154" y="57" type="curve" smooth="yes"/>
      <point x="116" y="57"/>
      <point x="98" y="87"/>
      <point x="98" y="146" type="curve" smooth="yes"/>
      <point x="98" y="255"/>
      <point x="148" y="478"/>
      <point x="238" y="478" type="curve" smooth="yes"/>
      <point x="275" y="478"/>
      <point x="294" y="448"/>
      <point x="294" y="388" type="curve" smooth="yes"/>
      <point x="294" y="271"/>
      <point x="244" y="57"/>
    </contour>
  </outline>
</glyph>
<glyph name="Uhorn" format="2">
  <advance width="506"/>
  <unicode hex="01AF"/>
  <anchor x="178" y="0" name="bottom"/>
  <anchor x="314" y="714" name="top"/>
  <outline>
    <contour>
      <point x="173" y="-10" type="curve" smooth="yes"/>
      <point x="298" y="-10"/>
      <point x="356" y="79"/>
      <point x="387" y="223" type="curve" smooth="yes"/>
      <point x="457" y="554" type="line"/>
      <point x="555" y="568"/>
      <point x="611" y="637"/>
      <point x="632" y="749" type="curve"/>
      <point x="629" y="760" type="line"/>
      <point x="559" y="760" type="line"/>
      <point x="545" y="678"/>
      <point x="518" y="625"/>
      <point x="470" y="612" type="curve"/>
      <point x="493" y="714" type="line"/>
      <point x="413" y="714" type="line"/>
      <point x="309" y="231" type="line" smooth="yes"/>
      <point x="284" y="114"/>
      <point x="250" y="63"/>
      <point x="184" y="63" type="curve" smooth="yes"/>
      <point x="138" y="63"/>
      <point x="114" y="91"/>
      <point x="114" y="149" type="curve" smooth="yes"/>
      <point x="114" y="169"/>
      <point x="117" y="195"/>
      <point x="122" y="220" type="curve" smooth="yes"/>
      <point x="227" y="714" type="line"/>
      <point x="147" y="714" type="line"/>
      <point x="43" y="224" type="line" smooth="yes"/>
      <point x="36" y="193"/>
      <point x="33" y="163"/>
      <point x="33" y="139" type="curve" smooth="yes"/>
      <point x="33" y="45"/>
      <point x="85" y="-10"/>
    </contour>
  </outline>
</glyph>
<glyph name="uhorn" format="2">
  <advance width="452"/>
  <unicode hex="01B0"/>
  <anchor x="151" y="0" name="bottom"/>
  <anchor x="249" y="536" name="top"/>
  <outline>
    <contour>
      <point x="114" y="-10" type="curve" smooth="yes"/>
      <point x="160" y="-10"/>
      <point x="200" y="18"/>
      <point x="230" y="68" type="curve"/>
      <point x="232" y="68" type="line"/>
      <point x="227" y="0" type="line"/>
      <point x="288" y="0" type="line"/>
      <point x="375" y="409" type="line"/>
      <point x="476" y="422"/>
      <point x="528" y="497"/>
      <point x="549" y="604" type="curve"/>
      <point x="546" y="615" type="line"/>
      <point x="476" y="615" type="line"/>
      <point x="462" y="534"/>
      <point x="436" y="480"/>
      <point x="387" y="468" type="curve"/>
      <point x="402" y="536" type="line"/>
      <point x="325" y="536" type="line"/>
      <point x="263" y="248" type="line" smooth="yes"/>
      <point x="237" y="128"/>
      <point x="200" y="61"/>
      <point x="143" y="61" type="curve" smooth="yes"/>
      <point x="116" y="61"/>
      <point x="102" y="79"/>
      <point x="102" y="113" type="curve" smooth="yes"/>
      <point x="102" y="135"/>
      <point x="107" y="163"/>
      <point x="113" y="192" type="curve" smooth="yes"/>
      <point x="187" y="536" type="line"/>
      <point x="110" y="536" type="line"/>
      <point x="35" y="184" type="line" smooth="yes"/>
      <point x="28" y="153"/>
      <point x="23" y="119"/>
      <point x="23" y="93" type="curve" smooth="yes"/>
      <point x="23" y="27"/>
      <point x="55" y="-10"/>
    </contour>
  </outline>
</glyph>
<glyph name="Aringacute" format="2">
  <advance width="398"/>
  <unicode hex="01FA"/>
  <anchor x="144" y="0" name="bottom"/>
  <anchor x="346" y="952" name="top"/>
  <outline>
    <contour>
      <point x="204" y="624" type="curve"/>
      <point x="-62" y="0" type="line"/>
      <point x="25" y="0" type="line"/>
      <point x="115" y="220" type="line"/>
      <point x="249" y="220" type="line"/>
      <point x="253" y="0" type="line"/>
      <point x="336" y="0" type="line"/>
      <point x="321" y="613" type="line"/>
      <point x="353" y="625"/>
      <point x="371" y="654"/>
      <point x="371" y="695" type="curve" smooth="yes"/>
      <point x="371" y="750"/>
      <point x="332" y="792"/>
      <point x="272" y="792" type="curve" smooth="yes"/>
      <point x="209" y="792"/>
      <point x="171" y="753"/>
      <point x="171" y="693" type="curve" smooth="yes"/>
      <point x="171" y="661"/>
      <point x="183" y="637"/>
    </contour>
    <contour>
      <point x="144" y="293" type="line"/>
      <point x="230" y="511" type="line" smooth="yes"/>
      <point x="239" y="535"/>
      <point x="247" y="560"/>
      <point x="252" y="582" type="curve"/>
      <point x="255" y="582" type="line"/>
      <point x="253" y="559"/>
      <point x="254" y="533"/>
      <point x="254" y="510" type="curve" smooth="yes"/>
      <point x="254" y="293" type="line"/>
    </contour>
    <contour>
      <point x="271" y="639" type="curve" smooth="yes"/>
      <point x="235" y="639"/>
      <point x="220" y="660"/>
      <point x="220" y="692" type="curve" smooth="yes"/>
      <point x="220" y="724"/>
      <point x="240" y="747"/>
      <point x="272" y="747" type="curve" smooth="yes"/>
      <point x="305" y="747"/>
      <point x="324" y="724"/>
      <point x="324" y="692" type="curve" smooth="yes"/>
      <point x="324" y="660"/>
      <point x="303" y="639"/>
    </contour>
    <contour>
      <point x="248" y="827" type="curve"/>
      <point x="248" y="820" type="line"/>
      <point x="304" y="820" type="line"/>
      <point x="345" y="849"/>
      <point x="409" y="908"/>
      <point x="440" y="945" type="curve"/>
      <point x="440" y="952" type="line"/>
      <point x="344" y="952" type="line"/>
      <point x="317" y="907"/>
      <point x="282" y="865"/>
    </contour>
  </outline>
</glyph>
<glyph name="aringacute" format="2">
  <advance width="415"/>
  <unicode hex="01FB"/>
  <anchor x="154" y="0" name="bottom"/>
  <anchor x="355" y="951" name="top"/>
  <outline>
    <contour>
      <point x="127" y="-10" type="curve" smooth="yes"/>
      <point x="170" y="-10"/>
      <point x="207" y="20"/>
      <point x="242" y="73" type="curve"/>
      <point x="245" y="73" type="line"/>
      <point x="239" y="0" type="line"/>
      <point x="301" y="0" type="line"/>
      <point x="415" y="536" type="line"/>
      <point x="349" y="536" type="line"/>
      <point x="328" y="472" type="line"/>
      <point x="326" y="472" type="line"/>
      <point x="311" y="523"/>
      <point x="281" y="546"/>
      <point x="238" y="546" type="curve" smooth="yes"/>
      <point x="90" y="546"/>
      <point x="24" y="282"/>
      <point x="24" y="135" type="curve" smooth="yes"/>
      <point x="24" y="41"/>
      <point x="59" y="-10"/>
    </contour>
    <contour>
      <point x="151" y="58" type="curve" smooth="yes"/>
      <point x="117" y="58"/>
      <point x="104" y="85"/>
      <point x="104" y="138" type="curve" smooth="yes"/>
      <point x="104" y="263"/>
      <point x="158" y="477"/>
      <point x="246" y="477" type="curve" smooth="yes"/>
      <point x="280" y="477"/>
      <point x="301" y="448"/>
      <point x="301" y="399" type="curve" smooth="yes"/>
      <point x="301" y="353"/>
      <point x="293" y="304"/>
      <point x="277" y="240" type="curve" smooth="yes"/>
      <point x="255" y="151"/>
      <point x="216" y="58"/>
    </contour>
    <contour>
      <point x="282" y="583" type="curve" smooth="yes"/>
      <point x="344" y="583"/>
      <point x="382" y="623"/>
      <point x="382" y="685" type="curve" smooth="yes"/>
      <point x="382" y="743"/>
      <point x="341" y="782"/>
      <point x="283" y="782" type="curve" smooth="yes"/>
      <point x="221" y="782"/>
      <point x="183" y="742"/>
      <point x="183" y="681" type="curve" smooth="yes"/>
      <point x="183" y="621"/>
      <point x="221" y="583"/>
    </contour>
    <contour>
      <point x="282" y="628" type="curve" smooth="yes"/>
      <point x="246" y="628"/>
      <point x="229" y="646"/>
      <point x="229" y="682" type="curve" smooth="yes"/>
      <point x="229" y="715"/>
      <point x="249" y="738"/>
      <point x="282" y="738" type="curve" smooth="yes"/>
      <point x="315" y="738"/>
      <point x="336" y="715"/>
      <point x="336" y="682" type="curve" smooth="yes"/>
      <point x="336" y="649"/>
      <point x="313" y="628"/>
    </contour>
    <contour>
      <point x="272" y="825" type="curve"/>
      <point x="271" y="817" type="line"/>
      <point x="326" y="817" type="line"/>
      <point x="373" y="852"/>
      <point x="436" y="910"/>
      <point x="464" y="944" type="curve"/>
      <point x="464" y="951" type="line"/>
      <point x="365" y="951" type="line"/>
      <point x="336" y="902"/>
      <point x="302" y="861"/>
    </contour>
  </outline>
</glyph>
<glyph name="jdotless" format="2">
  <advance width="189"/>
  <unicode hex="0237"/>
  <anchor x="-11" y="-240" name="bottom"/>
  <anchor x="152" y="529" name="top"/>
  <outline>
    <contour>
      <point x="-77" y="-240" type="curve" smooth="yes"/>
      <point x="16" y="-240"/>
      <point x="43" y="-162"/>
      <point x="66" y="-50" type="curve" smooth="yes"/>
      <point x="190" y="536" type="line"/>
      <point x="113" y="536" type="line"/>
      <point x="-9" y="-44" type="line" smooth="yes"/>
      <point x="-29" y="-141"/>
      <point x="-42" y="-170"/>
      <point x="-85" y="-170" type="curve" smooth="yes"/>
      <point x="-99" y="-170"/>
      <point x="-116" y="-168"/>
      <point x="-127" y="-163" type="curve"/>
      <point x="-127" y="-233" type="line"/>
      <point x="-112" y="-238"/>
      <point x="-95" y="-240"/>
    </contour>
  </outline>
</glyph>
<glyph name="Estroke" format="2">
  <advance width="360"/>
  <unicode hex="0246"/>
  <anchor x="110" y="-76" name="bottom"/>
  <anchor x="287" y="761" name="top"/>
  <outline>
    <contour>
      <point x="71" y="-76" type="line"/>
      <point x="124" y="-76" type="line"/>
      <point x="390" y="761" type="line"/>
      <point x="337" y="761" type="line"/>
    </contour>
    <component base="E"/>
  </outline>
</glyph>
<glyph name="schwahook" format="2">
  <advance width="531"/>
  <unicode hex="025A"/>
  <anchor x="123" y="-10" name="bottom"/>
  <anchor x="216" y="546" name="top"/>
  <outline>
    <contour>
      <point x="123" y="-10" type="curve" smooth="yes"/>
      <point x="241" y="-10"/>
      <point x="335" y="134"/>
      <point x="351" y="307" type="curve"/>
      <point x="384" y="319" type="line"/>
      <point x="393" y="235"/>
      <point x="414" y="197"/>
      <point x="464" y="197" type="curve" smooth="yes"/>
      <point x="491" y="197"/>
      <point x="517" y="209"/>
      <point x="538" y="225" type="curve"/>
      <point x="521" y="270" type="line"/>
      <point x="507" y="260"/>
      <point x="494" y="253"/>
      <point x="475" y="253" type="curve" smooth="yes"/>
      <point x="450" y="253"/>
      <point x="442" y="274"/>
      <point x="436" y="346" type="curve" smooth="yes"/>
      <point x="432" y="393" type="line"/>
      <point x="353" y="365" type="line"/>
      <point x="352" y="490"/>
      <point x="302" y="546"/>
      <point x="216" y="546" type="curve" smooth="yes"/>
      <point x="172" y="546"/>
      <point x="133" y="537"/>
      <point x="97" y="515" type="curve"/>
      <point x="97" y="449" type="line"/>
      <point x="136" y="472"/>
      <point x="162" y="481"/>
      <point x="198" y="481" type="curve" smooth="yes"/>
      <point x="257" y="481"/>
      <point x="278" y="445"/>
      <point x="277" y="343" type="curve"/>
      <point x="259" y="335" type="line" smooth="yes"/>
      <point x="95" y="266"/>
      <point x="17" y="204"/>
      <point x="17" y="99" type="curve" smooth="yes"/>
      <point x="17" y="28"/>
      <point x="58" y="-10"/>
    </contour>
    <contour>
      <point x="135" y="54" type="curve" smooth="yes"/>
      <point x="103" y="54"/>
      <point x="89" y="73"/>
      <point x="89" y="105" type="curve" smooth="yes"/>
      <point x="89" y="174"/>
      <point x="130" y="226"/>
      <point x="257" y="278" type="curve" smooth="yes"/>
      <point x="275" y="285" type="line"/>
      <point x="259" y="162"/>
      <point x="197" y="54"/>
    </contour>
  </outline>
</glyph>
<glyph name="rlongleg" format="2">
  <advance width="271"/>
  <unicode hex="027C"/>
  <anchor x="29" y="-240" name="bottom"/>
  <anchor x="196" y="546" name="top"/>
  <outline>
    <contour>
      <point x="-50" y="-240" type="line"/>
      <point x="26" y="-240" type="line"/>
      <point x="137" y="280" type="line" smooth="yes"/>
      <point x="156" y="367"/>
      <point x="193" y="465"/>
      <point x="261" y="465" type="curve" smooth="yes"/>
      <point x="275" y="465"/>
      <point x="286" y="463"/>
      <point x="297" y="458" type="curve"/>
      <point x="321" y="540" type="line"/>
      <point x="308" y="544"/>
      <point x="296" y="546"/>
      <point x="282" y="546" type="curve" smooth="yes"/>
      <point x="231" y="546"/>
      <point x="195" y="514"/>
      <point x="165" y="448" type="curve"/>
      <point x="162" y="448" type="line"/>
      <point x="173" y="536" type="line"/>
      <point x="114" y="536" type="line"/>
    </contour>
  </outline>
</glyph>
<glyph name="rfishhookreversed" format="2">
  <advance width="225"/>
  <unicode hex="027F"/>
  <anchor x="7" y="-240" name="bottom"/>
  <anchor x="174" y="546" name="top"/>
  <outline>
    <contour>
      <point x="122" y="410" type="curve" smooth="yes"/>
      <point x="-17" y="-240" type="line"/>
      <point x="61" y="-240" type="line"/>
      <point x="197" y="403" type="line" smooth="yes"/>
      <point x="202" y="425"/>
      <point x="206" y="451"/>
      <point x="206" y="466" type="curve" smooth="yes"/>
      <point x="206" y="517"/>
      <point x="180" y="546"/>
      <point x="130" y="546" type="curve" smooth="yes"/>
      <point x="108" y="546"/>
      <point x="83" y="540"/>
      <point x="62" y="530" type="curve"/>
      <point x="62" y="467" type="line"/>
      <point x="77" y="473"/>
      <point x="91" y="477"/>
      <point x="104" y="477" type="curve" smooth="yes"/>
      <point x="119" y="477"/>
      <point x="127" y="467"/>
      <point x="127" y="449" type="curve" smooth="yes"/>
      <point x="127" y="437"/>
      <point x="125" y="425"/>
    </contour>
  </outline>
</glyph>
<glyph name="eshsquatreversed" format="2">
  <advance width="210"/>
  <unicode hex="0285"/>
  <anchor x="-1" y="-240" name="bottom"/>
  <anchor x="166" y="546" name="top"/>
  <outline>
    <contour>
      <point x="65" y="-240" type="curve" smooth="yes"/>
      <point x="86" y="-240"/>
      <point x="112" y="-234"/>
      <point x="132" y="-224" type="curve"/>
      <point x="132" y="-160" type="line"/>
      <point x="118" y="-166"/>
      <point x="103" y="-171"/>
      <point x="90" y="-171" type="curve" smooth="yes"/>
      <point x="75" y="-171"/>
      <point x="67" y="-160"/>
      <point x="67" y="-142" type="curve" smooth="yes"/>
      <point x="67" y="-130"/>
      <point x="69" y="-118"/>
      <point x="72" y="-103" type="curve" smooth="yes"/>
      <point x="181" y="403" type="line" smooth="yes"/>
      <point x="186" y="426"/>
      <point x="189" y="451"/>
      <point x="189" y="466" type="curve" smooth="yes"/>
      <point x="189" y="517"/>
      <point x="163" y="546"/>
      <point x="113" y="546" type="curve" smooth="yes"/>
      <point x="91" y="546"/>
      <point x="66" y="540"/>
      <point x="45" y="530" type="curve"/>
      <point x="45" y="467" type="line"/>
      <point x="60" y="473"/>
      <point x="75" y="477"/>
      <point x="87" y="477" type="curve" smooth="yes"/>
      <point x="102" y="477"/>
      <point x="111" y="467"/>
      <point x="111" y="449" type="curve" smooth="yes"/>
      <point x="111" y="437"/>
      <point x="108" y="425"/>
      <point x="105" y="410" type="curve" smooth="yes"/>
      <point x="-3" y="-97" type="line" smooth="yes"/>
      <point x="-8" y="-119"/>
      <point x="-11" y="-144"/>
      <point x="-11" y="-160" type="curve" smooth="yes"/>
      <point x="-11" y="-210"/>
      <point x="15" y="-240"/>
    </contour>
  </outline>
</glyph>
<glyph name="eshcurl" format="2">
  <advance width="210"/>
  <unicode hex="0286"/>
  <anchor x="-1" y="-240" name="bottom"/>
  <anchor x="212" y="765" name="top"/>
  <outline>
    <contour>
      <point x="-66" y="-240" type="curve" smooth="yes"/>
      <point x="8" y="-240"/>
      <point x="45" y="-191"/>
      <point x="65" y="-107" type="curve"/>
      <point x="128" y="-107" type="line"/>
      <point x="139" y="-54" type="line"/>
      <point x="77" y="-54" type="line"/>
      <point x="215" y="593" type="line" smooth="yes"/>
      <point x="232" y="675"/>
      <point x="246" y="697"/>
      <point x="285" y="697" type="curve" smooth="yes"/>
      <point x="296" y="697"/>
      <point x="315" y="694"/>
      <point x="328" y="687" type="curve"/>
      <point x="328" y="753" type="line"/>
      <point x="313" y="761"/>
      <point x="295" y="765"/>
      <point x="274" y="765" type="curve" smooth="yes"/>
      <point x="195" y="765"/>
      <point x="163" y="717"/>
      <point x="138" y="598" type="curve" smooth="yes"/>
      <point x="0" y="-54" type="line"/>
      <point x="-23" y="-54" type="line" smooth="yes"/>
      <point x="-110" y="-54"/>
      <point x="-153" y="-93"/>
      <point x="-153" y="-160" type="curve" smooth="yes"/>
      <point x="-153" y="-212"/>
      <point x="-118" y="-240"/>
    </contour>
    <contour>
      <point x="-65" y="-187" type="curve" smooth="yes"/>
      <point x="-84" y="-187"/>
      <point x="-95" y="-178"/>
      <point x="-95" y="-157" type="curve" smooth="yes"/>
      <point x="-95" y="-124"/>
      <point x="-75" y="-107"/>
      <point x="-35" y="-107" type="curve" smooth="yes"/>
      <point x="-11" y="-107" type="line"/>
      <point x="-23" y="-163"/>
      <point x="-37" y="-187"/>
    </contour>
  </outline>
</glyph>
<glyph name="ezhcurl" format="2">
  <advance width="340"/>
  <unicode hex="0293"/>
  <anchor x="64" y="-240" name="bottom"/>
  <anchor x="227" y="529" name="top"/>
  <outline>
    <contour>
      <point x="46" y="-240" type="curve" smooth="yes"/>
      <point x="113" y="-240"/>
      <point x="168" y="-205"/>
      <point x="204" y="-151" type="curve"/>
      <point x="218" y="-173"/>
      <point x="232" y="-200"/>
      <point x="243" y="-232" type="curve"/>
      <point x="292" y="-212" type="line"/>
      <point x="276" y="-166"/>
      <point x="256" y="-129"/>
      <point x="232" y="-98" type="curve"/>
      <point x="250" y="-54"/>
      <point x="258" y="-4"/>
      <point x="258" y="47" type="curve" smooth="yes"/>
      <point x="258" y="143"/>
      <point x="222" y="206"/>
      <point x="139" y="222" type="curve"/>
      <point x="335" y="481" type="line"/>
      <point x="346" y="536" type="line"/>
      <point x="91" y="536" type="line"/>
      <point x="76" y="469" type="line"/>
      <point x="237" y="469" type="line"/>
      <point x="55" y="221" type="line"/>
      <point x="43" y="164" type="line"/>
      <point x="77" y="164" type="line" smooth="yes"/>
      <point x="150" y="164"/>
      <point x="180" y="125"/>
      <point x="180" y="39" type="curve" smooth="yes"/>
      <point x="180" y="11"/>
      <point x="177" y="-20"/>
      <point x="169" y="-46" type="curve"/>
      <point x="138" y="-26"/>
      <point x="105" y="-15"/>
      <point x="66" y="-15" type="curve" smooth="yes"/>
      <point x="-31" y="-15"/>
      <point x="-81" y="-63"/>
      <point x="-81" y="-135" type="curve" smooth="yes"/>
      <point x="-81" y="-197"/>
      <point x="-38" y="-240"/>
    </contour>
    <contour>
      <point x="48" y="-179" type="curve" smooth="yes"/>
      <point x="0" y="-179"/>
      <point x="-21" y="-159"/>
      <point x="-21" y="-129" type="curve" smooth="yes"/>
      <point x="-21" y="-92"/>
      <point x="3" y="-68"/>
      <point x="61" y="-68" type="curve" smooth="yes"/>
      <point x="95" y="-68"/>
      <point x="125" y="-78"/>
      <point x="153" y="-100" type="curve"/>
      <point x="129" y="-151"/>
      <point x="95" y="-179"/>
    </contour>
  </outline>
</glyph>
<glyph name="cstretched" format="2">
  <advance width="340"/>
  <unicode hex="0297"/>
  <anchor x="125" y="-240" name="bottom"/>
  <anchor x="276" y="536" name="top"/>
  <outline>
    <contour>
      <point x="140" y="-240" type="curve" smooth="yes"/>
      <point x="177" y="-240"/>
      <point x="211" y="-228"/>
      <point x="238" y="-212" type="curve"/>
      <point x="238" y="-144" type="line"/>
      <point x="209" y="-162"/>
      <point x="183" y="-172"/>
      <point x="159" y="-172" type="curve" smooth="yes"/>
      <point x="119" y="-172"/>
      <point x="84" y="-144"/>
      <point x="84" y="-31" type="curve" smooth="yes"/>
      <point x="84" y="198"/>
      <point x="166" y="478"/>
      <point x="283" y="478" type="curve" smooth="yes"/>
      <point x="304" y="478"/>
      <point x="325" y="471"/>
      <point x="342" y="459" type="curve"/>
      <point x="374" y="523" type="line"/>
      <point x="349" y="539"/>
      <point x="320" y="546"/>
      <point x="286" y="546" type="curve" smooth="yes"/>
      <point x="99" y="546"/>
      <point x="5" y="234"/>
      <point x="5" y="-26" type="curve" smooth="yes"/>
      <point x="5" y="-187"/>
      <point x="63" y="-240"/>
    </contour>
  </outline>
</glyph>
<glyph name="eopenclosed" format="2">
  <advance width="413"/>
  <unicode hex="029A"/>
  <anchor x="151" y="0" name="bottom"/>
  <anchor x="260" y="536" name="top"/>
  <outline>
    <contour>
      <point x="148" y="-10" type="curve" smooth="yes"/>
      <point x="314" y="-10"/>
      <point x="390" y="193"/>
      <point x="390" y="374" type="curve" smooth="yes"/>
      <point x="390" y="489"/>
      <point x="342" y="547"/>
      <point x="242" y="547" type="curve" smooth="yes"/>
      <point x="131" y="547"/>
      <point x="66" y="471"/>
      <point x="66" y="381" type="curve" smooth="yes"/>
      <point x="66" y="323"/>
      <point x="94" y="283"/>
      <point x="144" y="270" type="curve"/>
      <point x="144" y="268" type="line"/>
      <point x="68" y="254"/>
      <point x="16" y="198"/>
      <point x="16" y="113" type="curve" smooth="yes"/>
      <point x="16" y="32"/>
      <point x="72" y="-10"/>
    </contour>
    <contour>
      <point x="158" y="53" type="curve" smooth="yes"/>
      <point x="118" y="53"/>
      <point x="96" y="75"/>
      <point x="96" y="120" type="curve" smooth="yes"/>
      <point x="96" y="191"/>
      <point x="143" y="237"/>
      <point x="215" y="237" type="curve" smooth="yes"/>
      <point x="251" y="237" type="line"/>
      <point x="262" y="299" type="line"/>
      <point x="227" y="299" type="line" smooth="yes"/>
      <point x="171" y="299"/>
      <point x="143" y="328"/>
      <point x="143" y="378" type="curve" smooth="yes"/>
      <point x="143" y="436"/>
      <point x="180" y="483"/>
      <point x="240" y="483" type="curve" smooth="yes"/>
      <point x="288" y="483"/>
      <point x="312" y="454"/>
      <point x="312" y="377" type="curve" smooth="yes"/>
      <point x="312" y="235"/>
      <point x="263" y="53"/>
    </contour>
  </outline>
</glyph>
<glyph name="kturned" format="2">
  <advance width="353"/>
  <unicode hex="029E"/>
  <anchor x="72" y="-224" name="bottom"/>
  <anchor x="233.965" y="536" name="top"/>
  <anchor x="357" y="536" name="topright"/>
  <outline>
    <contour>
      <point x="197" y="143" type="curve" smooth="yes"/>
      <point x="118" y="-224" type="line"/>
      <point x="195" y="-224" type="line"/>
      <point x="357" y="536" type="line"/>
      <point x="280" y="536" type="line"/>
      <point x="241" y="347" type="line"/>
      <point x="182" y="281" type="line"/>
      <point x="141" y="536" type="line"/>
      <point x="59" y="536" type="line"/>
      <point x="114" y="217" type="line"/>
      <point x="-45" y="0" type="line"/>
      <point x="39" y="0" type="line"/>
      <point x="221" y="250" type="line"/>
      <point x="223" y="250" type="line"/>
      <point x="212" y="206"/>
      <point x="203" y="170"/>
    </contour>
  </outline>
</glyph>
<glyph name="qhook" format="2">
  <advance width="416"/>
  <unicode hex="02A0"/>
  <anchor x="103" y="-240" name="bottom"/>
  <anchor x="317" y="769" name="top"/>
  <outline>
    <contour>
      <point x="224" y="-1" type="curve" smooth="yes"/>
      <point x="174" y="-240" type="line"/>
      <point x="251" y="-240" type="line"/>
      <point x="439" y="649" type="line" smooth="yes"/>
      <point x="447" y="687"/>
      <point x="462" y="702"/>
      <point x="489" y="702" type="curve" smooth="yes"/>
      <point x="502" y="702"/>
      <point x="514" y="699"/>
      <point x="523" y="694" type="curve"/>
      <point x="524" y="760" type="line"/>
      <point x="511" y="765"/>
      <point x="492" y="769"/>
      <point x="471" y="769" type="curve" smooth="yes"/>
      <point x="411" y="769"/>
      <point x="381" y="736"/>
      <point x="366" y="668" type="curve" smooth="yes"/>
      <point x="342" y="553" type="line" smooth="yes"/>
      <point x="336" y="525"/>
      <point x="332" y="497"/>
      <point x="329" y="472" type="curve"/>
      <point x="326" y="472" type="line"/>
      <point x="313" y="521"/>
      <point x="286" y="546"/>
      <point x="240" y="546" type="curve"/>
      <point x="93" y="546"/>
      <point x="24" y="284"/>
      <point x="24" y="135" type="curve" smooth="yes"/>
      <point x="24" y="41"/>
      <point x="60" y="-10"/>
      <point x="124" y="-10" type="curve" smooth="yes"/>
      <point x="170" y="-10"/>
      <point x="206" y="16"/>
      <point x="241" y="70" type="curve"/>
      <point x="243" y="70" type="line"/>
      <point x="235" y="42"/>
      <point x="228" y="15"/>
    </contour>
    <contour>
      <point x="153" y="58" type="curve" smooth="yes"/>
      <point x="119" y="58"/>
      <point x="104" y="86"/>
      <point x="104" y="143" type="curve" smooth="yes"/>
      <point x="104" y="255"/>
      <point x="155" y="477"/>
      <point x="246" y="477" type="curve" smooth="yes"/>
      <point x="280" y="477"/>
      <point x="301" y="451"/>
      <point x="301" y="405" type="curve" smooth="yes"/>
      <point x="301" y="298"/>
      <point x="248" y="58"/>
    </contour>
  </outline>
</glyph>
<glyph name="circumflex" format="2">
  <advance width="318"/>
  <unicode hex="02C6"/>
  <outline>
    <contour>
      <point x="114" y="616" type="curve"/>
      <point x="112" y="606" type="line"/>
      <point x="157" y="606" type="line"/>
      <point x="185" y="629"/>
      <point x="217" y="661"/>
      <point x="252" y="699" type="curve"/>
      <point x="270" y="663"/>
      <point x="289" y="631"/>
      <point x="306" y="606" type="curve"/>
      <point x="350" y="606" type="line"/>
      <point x="352" y="616" type="line"/>
      <point x="335" y="652"/>
      <point x="306" y="730"/>
      <point x="299" y="766" type="curve"/>
      <point x="230" y="766" type="line"/>
      <point x="201" y="719"/>
      <point x="159" y="666"/>
    </contour>
  </outline>
</glyph>
<glyph name="caron" format="2">
  <advance width="319"/>
  <unicode hex="02C7"/>
  <outline>
    <contour>
      <point x="197" y="606" type="curve"/>
      <point x="266" y="606" type="line"/>
      <point x="288" y="643"/>
      <point x="352" y="723"/>
      <point x="383" y="756" type="curve"/>
      <point x="385" y="766" type="line"/>
      <point x="339" y="766" type="line"/>
      <point x="311" y="743"/>
      <point x="280" y="711"/>
      <point x="244" y="673" type="curve"/>
      <point x="222" y="715"/>
      <point x="203" y="747"/>
      <point x="190" y="766" type="curve"/>
      <point x="146" y="766" type="line"/>
      <point x="144" y="756" type="line"/>
      <point x="161" y="722"/>
      <point x="189" y="640"/>
    </contour>
  </outline>
</glyph>
<glyph name="breve" format="2">
  <advance width="303"/>
  <unicode hex="02D8"/>
  <outline>
    <contour>
      <point x="235" y="606" type="curve" smooth="yes"/>
      <point x="305" y="606"/>
      <point x="348" y="654"/>
      <point x="363" y="739" type="curve"/>
      <point x="312" y="739" type="line"/>
      <point x="298" y="687"/>
      <point x="277" y="667"/>
      <point x="239" y="667" type="curve" smooth="yes"/>
      <point x="204" y="667"/>
      <point x="190" y="688"/>
      <point x="190" y="739" type="curve"/>
      <point x="140" y="739" type="line"/>
      <point x="138" y="729"/>
      <point x="137" y="717"/>
      <point x="137" y="703" type="curve" smooth="yes"/>
      <point x="137" y="645"/>
      <point x="166" y="606"/>
    </contour>
  </outline>
</glyph>
<glyph name="dotaccent" format="2">
  <advance width="173"/>
  <unicode hex="02D9"/>
  <outline>
    <contour>
      <point x="166" y="626" type="curve" smooth="yes"/>
      <point x="201" y="626"/>
      <point x="222" y="659"/>
      <point x="222" y="697" type="curve" smooth="yes"/>
      <point x="222" y="724"/>
      <point x="209" y="737"/>
      <point x="183" y="737" type="curve" smooth="yes"/>
      <point x="147" y="737"/>
      <point x="127" y="703"/>
      <point x="127" y="667" type="curve" smooth="yes"/>
      <point x="127" y="641"/>
      <point x="140" y="626"/>
    </contour>
  </outline>
</glyph>
<glyph name="ring" format="2">
  <advance width="283"/>
  <unicode hex="02DA"/>
  <outline>
    <contour>
      <point x="235" y="609" type="curve" smooth="yes"/>
      <point x="297" y="609"/>
      <point x="334" y="651"/>
      <point x="334" y="711" type="curve" smooth="yes"/>
      <point x="334" y="768"/>
      <point x="296" y="808"/>
      <point x="236" y="808" type="curve" smooth="yes"/>
      <point x="174" y="808"/>
      <point x="136" y="768"/>
      <point x="136" y="708" type="curve" smooth="yes"/>
      <point x="136" y="648"/>
      <point x="172" y="609"/>
    </contour>
    <contour>
      <point x="236" y="654" type="curve" smooth="yes"/>
      <point x="200" y="654"/>
      <point x="183" y="676"/>
      <point x="183" y="709" type="curve" smooth="yes"/>
      <point x="183" y="741"/>
      <point x="202" y="764"/>
      <point x="237" y="764" type="curve" smooth="yes"/>
      <point x="270" y="764"/>
      <point x="289" y="741"/>
      <point x="289" y="709" type="curve" smooth="yes"/>
      <point x="289" y="676"/>
      <point x="268" y="654"/>
    </contour>
  </outline>
</glyph>
<glyph name="ogonek" format="2">
  <advance width="222"/>
  <unicode hex="02DB"/>
  <outline>
    <contour>
      <point x="27" y="-224" type="curve" smooth="yes"/>
      <point x="46" y="-224"/>
      <point x="63" y="-222"/>
      <point x="79" y="-215" type="curve"/>
      <point x="91" y="-161" type="line"/>
      <point x="77" y="-164"/>
      <point x="65" y="-167"/>
      <point x="55" y="-167" type="curve" smooth="yes"/>
      <point x="35" y="-167"/>
      <point x="24" y="-155"/>
      <point x="24" y="-133" type="curve" smooth="yes"/>
      <point x="24" y="-92"/>
      <point x="47" y="-52"/>
      <point x="104" y="0" type="curve"/>
      <point x="53" y="0" type="line"/>
      <point x="-15" y="-51"/>
      <point x="-46" y="-96"/>
      <point x="-46" y="-152" type="curve" smooth="yes"/>
      <point x="-46" y="-194"/>
      <point x="-22" y="-224"/>
    </contour>
  </outline>
</glyph>
<glyph name="tilde" format="2">
  <advance width="347"/>
  <unicode hex="02DC"/>
  <outline>
    <contour>
      <point x="112" y="608" type="curve"/>
      <point x="161" y="608" type="line"/>
      <point x="170" y="648"/>
      <point x="184" y="669"/>
      <point x="206" y="669" type="curve" smooth="yes"/>
      <point x="239" y="669"/>
      <point x="263" y="609"/>
      <point x="314" y="609" type="curve" smooth="yes"/>
      <point x="356" y="609"/>
      <point x="389" y="641"/>
      <point x="406" y="734" type="curve"/>
      <point x="357" y="734" type="line"/>
      <point x="346" y="688"/>
      <point x="336" y="674"/>
      <point x="316" y="674" type="curve" smooth="yes"/>
      <point x="283" y="674"/>
      <point x="261" y="733"/>
      <point x="208" y="733" type="curve" smooth="yes"/>
      <point x="157" y="733"/>
      <point x="129" y="687"/>
    </contour>
  </outline>
</glyph>
<glyph name="hungarumlaut" format="2">
  <advance width="382"/>
  <unicode hex="02DD"/>
  <outline>
    <contour>
      <point x="260" y="616" type="curve"/>
      <point x="258" y="606" type="line"/>
      <point x="299" y="606" type="line"/>
      <point x="345" y="642"/>
      <point x="419" y="717"/>
      <point x="446" y="758" type="curve"/>
      <point x="447" y="766" type="line"/>
      <point x="364" y="766" type="line"/>
      <point x="344" y="729"/>
      <point x="307" y="676"/>
    </contour>
    <contour>
      <point x="114" y="616" type="curve"/>
      <point x="112" y="606" type="line"/>
      <point x="151" y="606" type="line"/>
      <point x="201" y="645"/>
      <point x="274" y="715"/>
      <point x="301" y="758" type="curve"/>
      <point x="302" y="766" type="line"/>
      <point x="218" y="766" type="line"/>
      <point x="198" y="730"/>
      <point x="161" y="676"/>
    </contour>
  </outline>
</glyph>
<glyph name="rhotichookmod" format="2">
  <advance width="148"/>
  <unicode hex="02DE"/>
  <outline>
    <contour>
      <point x="81" y="197" type="curve" smooth="yes"/>
      <point x="109" y="197"/>
      <point x="135" y="209"/>
      <point x="155" y="226" type="curve"/>
      <point x="139" y="271" type="line"/>
      <point x="125" y="261"/>
      <point x="111" y="254"/>
      <point x="92" y="254" type="curve" smooth="yes"/>
      <point x="67" y="254"/>
      <point x="58" y="274"/>
      <point x="52" y="346" type="curve" smooth="yes"/>
      <point x="48" y="393" type="line"/>
      <point x="-70" y="347" type="line"/>
      <point x="-60" y="295" type="line"/>
      <point x="1" y="319" type="line"/>
      <point x="9" y="235"/>
      <point x="30" y="197"/>
    </contour>
  </outline>
</glyph>
<glyph name="dblverticallineabovecomb" format="2">
  <unicode hex="030E"/>
  <anchor x="58" y="529" name="_top"/>
  <anchor x="92" y="765" name="top"/>
  <outline>
    <contour>
      <point x="109" y="596" type="line"/>
      <point x="172" y="596" type="line"/>
      <point x="208" y="765" type="line"/>
      <point x="146" y="765" type="line"/>
    </contour>
    <contour>
      <point x="-28" y="596" type="line"/>
      <point x="35" y="596" type="line"/>
      <point x="71" y="765" type="line"/>
      <point x="9" y="765" type="line"/>
    </contour>
  </outline>
</glyph>
<glyph name="dblgravecomb" format="2">
  <unicode hex="030F"/>
  <anchor x="-266" y="529" name="_top"/>
  <anchor x="-220" y="765" name="top"/>
  <outline>
    <contour>
      <point x="-148" y="606" type="curve"/>
      <point x="-110" y="606" type="line"/>
      <point x="-108" y="617" type="line"/>
      <point x="-125" y="665"/>
      <point x="-139" y="714"/>
      <point x="-150" y="765" type="curve"/>
      <point x="-227" y="765" type="line"/>
      <point x="-228" y="757" type="line"/>
      <point x="-215" y="712"/>
      <point x="-181" y="647"/>
    </contour>
    <contour>
      <point x="-280" y="606" type="curve"/>
      <point x="-240" y="606" type="line"/>
      <point x="-237" y="617" type="line"/>
      <point x="-254" y="657"/>
      <point x="-271" y="719"/>
      <point x="-280" y="765" type="curve"/>
      <point x="-357" y="765" type="line"/>
      <point x="-358" y="757" type="line"/>
      <point x="-347" y="713"/>
      <point x="-310" y="645"/>
    </contour>
  </outline>
</glyph>
<glyph name="candraBinducomb" format="2">
  <unicode hex="0310"/>
  <anchor x="61" y="529" name="_top"/>
  <anchor x="114" y="813" name="top"/>
  <outline>
    <contour>
      <point x="85" y="606" type="curve" smooth="yes"/>
      <point x="154" y="606"/>
      <point x="199" y="651"/>
      <point x="216" y="739" type="curve"/>
      <point x="172" y="739" type="line"/>
      <point x="157" y="684"/>
      <point x="132" y="659"/>
      <point x="88" y="659" type="curve" smooth="yes"/>
      <point x="48" y="659"/>
      <point x="29" y="681"/>
      <point x="29" y="739" type="curve"/>
      <point x="-15" y="739" type="line"/>
      <point x="-16" y="730"/>
      <point x="-17" y="719"/>
      <point x="-17" y="706" type="curve" smooth="yes"/>
      <point x="-17" y="648"/>
      <point x="16" y="606"/>
    </contour>
    <contour>
      <point x="96" y="716" type="curve" smooth="yes"/>
      <point x="123" y="716"/>
      <point x="139" y="745"/>
      <point x="139" y="779" type="curve" smooth="yes"/>
      <point x="139" y="803"/>
      <point x="130" y="813"/>
      <point x="111" y="813" type="curve" smooth="yes"/>
      <point x="84" y="813"/>
      <point x="67" y="784"/>
      <point x="67" y="752" type="curve" smooth="yes"/>
      <point x="67" y="727"/>
      <point x="77" y="716"/>
    </contour>
  </outline>
</glyph>
<glyph name="breveinvertedcomb" format="2">
  <unicode hex="0311"/>
  <anchor x="45" y="529" name="_top"/>
  <anchor x="85" y="738" name="top"/>
  <outline>
    <contour>
      <point x="-37" y="607" type="curve"/>
      <point x="14" y="607" type="line"/>
      <point x="27" y="657"/>
      <point x="49" y="677"/>
      <point x="87" y="677" type="curve" smooth="yes"/>
      <point x="122" y="677"/>
      <point x="136" y="657"/>
      <point x="136" y="607" type="curve"/>
      <point x="186" y="607" type="line"/>
      <point x="187" y="618"/>
      <point x="189" y="630"/>
      <point x="189" y="644" type="curve" smooth="yes"/>
      <point x="189" y="699"/>
      <point x="160" y="738"/>
      <point x="91" y="738" type="curve" smooth="yes"/>
      <point x="20" y="738"/>
      <point x="-22" y="690"/>
    </contour>
  </outline>
</glyph>
<glyph name="lefttackbelowcomb" format="2">
  <unicode hex="0318"/>
  <anchor x="-45" y="16" name="_bottom"/>
  <anchor x="-86" y="-212" name="bottom"/>
  <outline>
    <contour>
      <point x="-85" y="-212" type="line"/>
      <point x="-40" y="-212" type="line"/>
      <point x="-3" y="-34" type="line"/>
      <point x="-48" y="-34" type="line"/>
      <point x="-62" y="-100" type="line"/>
      <point x="-136" y="-100" type="line"/>
      <point x="-145" y="-146" type="line"/>
      <point x="-71" y="-146" type="line"/>
    </contour>
  </outline>
</glyph>
